M48
; DRILL file {KiCad 8.0.6+1} date 2024-11-03T11:28:45+0100
; FORMAT={-:-/ absolute / metric / decimal}
; #@! TF.CreationDate,2024-11-03T11:28:45+01:00
; #@! TF.GenerationSoftware,Kicad,Pcbnew,8.0.6+1
; #@! TF.FileFunction,Plated,1,2,PTH
FMAT,2
METRIC
; #@! TA.AperFunction,Plated,PTH,ViaDrill
T1C0.300
; #@! TA.AperFunction,Plated,PTH,ComponentDrill
T2C0.600
; #@! TA.AperFunction,Plated,PTH,ComponentDrill
T3C1.270
%
G90
G05
T1
X139.5Y-80.5
X140.5Y-79.0
X141.5Y-77.5
X143.0Y-77.5
X143.0Y-79.0
X143.0Y-80.5
X143.0Y-82.0
X143.0Y-92.5
X144.0Y-88.5
X145.0Y-72.0
X146.0Y-94.5
X147.0Y-61.75
X147.5Y-82.5
X147.5Y-88.0
X148.0Y-73.5
X148.5Y-83.5
X148.5Y-94.5
X149.5Y-79.5
X150.0Y-80.5
X150.0Y-83.5
X150.0Y-94.5
X150.5Y-81.5
X151.0Y-82.5
X151.5Y-83.5
X152.0Y-90.0
X152.975Y-90.975
X153.0Y-61.0
X153.0Y-94.5
X157.481Y-79.481
X157.5Y-73.0
X157.5Y-78.5
X157.5Y-80.5
X157.5Y-81.5
X157.663Y-85.25
T3
X52.359Y-72.123
X56.645Y-75.446
X56.759Y-55.702
X61.045Y-59.025
X61.159Y-39.281
X65.445Y-42.604
X72.852Y-65.19
X77.138Y-68.513
X77.251Y-48.77
X81.537Y-52.093
X81.651Y-32.349
X85.937Y-35.672
X91.273Y-65.985
X94.532Y-88.599
X95.559Y-69.308
X95.673Y-49.565
X98.818Y-91.922
X99.959Y-52.888
X100.073Y-33.144
X104.359Y-36.467
X107.625Y-74.508
X111.401Y-95.19
X111.911Y-77.831
X112.025Y-58.087
X115.687Y-98.513
X116.311Y-61.41
X116.425Y-41.666
X120.711Y-44.989
X124.494Y-81.098
X128.78Y-84.421
X128.787Y-99.849
X128.894Y-64.678
X133.073Y-103.172
X133.18Y-68.001
X133.294Y-48.257
X137.58Y-51.58
X157.047Y-50.846
X161.447Y-67.267
X161.554Y-102.438
X162.42Y-51.58
X165.847Y-83.687
X166.82Y-68.001
X166.927Y-103.172
X171.22Y-84.421
X173.916Y-44.255
X178.316Y-60.676
X178.94Y-97.779
X179.289Y-44.989
X182.716Y-77.097
X183.689Y-61.41
X184.313Y-98.513
X188.089Y-77.831
X190.268Y-35.733
X194.668Y-52.154
X195.641Y-36.467
X195.809Y-91.188
X199.068Y-68.574
X200.041Y-52.888
X201.182Y-91.922
X204.441Y-69.308
X208.69Y-34.938
X213.09Y-51.359
X214.063Y-35.672
X217.49Y-67.779
X218.463Y-52.093
X222.863Y-68.513
X229.182Y-41.87
X233.582Y-58.291
X234.555Y-42.604
X237.982Y-74.712
X238.955Y-59.025
X243.355Y-75.446
T2
X145.68Y-32.925G85X145.68Y-32.325
G05
X145.68Y-37.355G85X145.68Y-36.255
G05
X154.32Y-32.925G85X154.32Y-32.325
G05
X154.32Y-37.355G85X154.32Y-36.255
G05
M30
