%TF.GenerationSoftware,KiCad,Pcbnew,8.0.6+1*%
%TF.CreationDate,2024-11-03T11:28:58+01:00*%
%TF.ProjectId,keymini,6b65796d-696e-4692-9e6b-696361645f70,rev?*%
%TF.SameCoordinates,Original*%
%TF.FileFunction,Drillmap*%
%TF.FilePolarity,Positive*%
%FSLAX45Y45*%
G04 Gerber Fmt 4.5, Leading zero omitted, Abs format (unit mm)*
G04 Created by KiCad (PCBNEW 8.0.6+1) date 2024-11-03 11:28:58*
%MOMM*%
%LPD*%
G01*
G04 APERTURE LIST*
%ADD10C,0.200000*%
%ADD11C,0.100000*%
%ADD12C,0.170180*%
%ADD13C,0.342900*%
G04 APERTURE END LIST*
D10*
X9939290Y-2022820D02*
X8097100Y-1943320D01*
X25272100Y-7562770D02*
X23952150Y-2636560D01*
X21902900Y-1943320D02*
X20060710Y-2022820D01*
X15890636Y-10801230D02*
X19367970Y-9869480D01*
X23952150Y-2636560D02*
X21902900Y-1943320D01*
X11677960Y-2488700D02*
X9939290Y-2022820D01*
X4727900Y-7562770D02*
X10632030Y-9869480D01*
X8097100Y-1943320D02*
X6047850Y-2636560D01*
X17198130Y-3000000D02*
X12801870Y-3000000D01*
X6047850Y-2636560D02*
X4727900Y-7562770D01*
X10632030Y-9869480D02*
X14109364Y-10801230D01*
X18322040Y-2488700D02*
X17198130Y-3000000D01*
X14109364Y-10801230D02*
X15890636Y-10801230D01*
X20060710Y-2022820D02*
X18322040Y-2488700D01*
X19367970Y-9869480D02*
X25272100Y-7562770D01*
X12801870Y-3000000D02*
X11677960Y-2488700D01*
D11*
X14678500Y-3595000D02*
X14743500Y-3660000D01*
X14743500Y-3595000D02*
X14678500Y-3660000D01*
X15256500Y-3595000D02*
X15321500Y-3660000D01*
X15321500Y-3595000D02*
X15256500Y-3660000D01*
D12*
X5371031Y-6832349D02*
G75*
G02*
X5200851Y-6832349I-85090J0D01*
G01*
X5200851Y-6832349D02*
G75*
G02*
X5371031Y-6832349I85090J0D01*
G01*
X5811031Y-5190250D02*
G75*
G02*
X5640851Y-5190250I-85090J0D01*
G01*
X5640851Y-5190250D02*
G75*
G02*
X5811031Y-5190250I85090J0D01*
G01*
X6251031Y-3548149D02*
G75*
G02*
X6080851Y-3548149I-85090J0D01*
G01*
X6080851Y-3548149D02*
G75*
G02*
X6251031Y-3548149I85090J0D01*
G01*
X6433549Y-7117050D02*
G75*
G02*
X6263369Y-7117050I-85090J0D01*
G01*
X6263369Y-7117050D02*
G75*
G02*
X6433549Y-7117050I85090J0D01*
G01*
X6873549Y-5474951D02*
G75*
G02*
X6703369Y-5474951I-85090J0D01*
G01*
X6703369Y-5474951D02*
G75*
G02*
X6873549Y-5474951I85090J0D01*
G01*
X7313549Y-3832850D02*
G75*
G02*
X7143369Y-3832850I-85090J0D01*
G01*
X7143369Y-3832850D02*
G75*
G02*
X7313549Y-3832850I85090J0D01*
G01*
X7420331Y-6139049D02*
G75*
G02*
X7250151Y-6139049I-85090J0D01*
G01*
X7250151Y-6139049D02*
G75*
G02*
X7420331Y-6139049I85090J0D01*
G01*
X7860231Y-4497050D02*
G75*
G02*
X7690051Y-4497050I-85090J0D01*
G01*
X7690051Y-4497050D02*
G75*
G02*
X7860231Y-4497050I85090J0D01*
G01*
X8300231Y-2854949D02*
G75*
G02*
X8130051Y-2854949I-85090J0D01*
G01*
X8130051Y-2854949D02*
G75*
G02*
X8300231Y-2854949I85090J0D01*
G01*
X8482849Y-6423750D02*
G75*
G02*
X8312669Y-6423750I-85090J0D01*
G01*
X8312669Y-6423750D02*
G75*
G02*
X8482849Y-6423750I85090J0D01*
G01*
X8922749Y-4781751D02*
G75*
G02*
X8752569Y-4781751I-85090J0D01*
G01*
X8752569Y-4781751D02*
G75*
G02*
X8922749Y-4781751I85090J0D01*
G01*
X9262431Y-6218549D02*
G75*
G02*
X9092251Y-6218549I-85090J0D01*
G01*
X9092251Y-6218549D02*
G75*
G02*
X9262431Y-6218549I85090J0D01*
G01*
X9362749Y-3139650D02*
G75*
G02*
X9192569Y-3139650I-85090J0D01*
G01*
X9192569Y-3139650D02*
G75*
G02*
X9362749Y-3139650I85090J0D01*
G01*
X9588331Y-8479950D02*
G75*
G02*
X9418151Y-8479950I-85090J0D01*
G01*
X9418151Y-8479950D02*
G75*
G02*
X9588331Y-8479950I85090J0D01*
G01*
X9702431Y-4576550D02*
G75*
G02*
X9532251Y-4576550I-85090J0D01*
G01*
X9532251Y-4576550D02*
G75*
G02*
X9702431Y-4576550I85090J0D01*
G01*
X10142431Y-2934449D02*
G75*
G02*
X9972251Y-2934449I-85090J0D01*
G01*
X9972251Y-2934449D02*
G75*
G02*
X10142431Y-2934449I85090J0D01*
G01*
X10324949Y-6503250D02*
G75*
G02*
X10154769Y-6503250I-85090J0D01*
G01*
X10154769Y-6503250D02*
G75*
G02*
X10324949Y-6503250I85090J0D01*
G01*
X10650849Y-8764651D02*
G75*
G02*
X10480669Y-8764651I-85090J0D01*
G01*
X10480669Y-8764651D02*
G75*
G02*
X10650849Y-8764651I85090J0D01*
G01*
X10764949Y-4861251D02*
G75*
G02*
X10594769Y-4861251I-85090J0D01*
G01*
X10594769Y-4861251D02*
G75*
G02*
X10764949Y-4861251I85090J0D01*
G01*
X10897631Y-7070849D02*
G75*
G02*
X10727451Y-7070849I-85090J0D01*
G01*
X10727451Y-7070849D02*
G75*
G02*
X10897631Y-7070849I85090J0D01*
G01*
X11204949Y-3219150D02*
G75*
G02*
X11034769Y-3219150I-85090J0D01*
G01*
X11034769Y-3219150D02*
G75*
G02*
X11204949Y-3219150I85090J0D01*
G01*
X11275231Y-9139050D02*
G75*
G02*
X11105051Y-9139050I-85090J0D01*
G01*
X11105051Y-9139050D02*
G75*
G02*
X11275231Y-9139050I85090J0D01*
G01*
X11337631Y-5428750D02*
G75*
G02*
X11167451Y-5428750I-85090J0D01*
G01*
X11167451Y-5428750D02*
G75*
G02*
X11337631Y-5428750I85090J0D01*
G01*
X11777631Y-3786649D02*
G75*
G02*
X11607451Y-3786649I-85090J0D01*
G01*
X11607451Y-3786649D02*
G75*
G02*
X11777631Y-3786649I85090J0D01*
G01*
X11960149Y-7355550D02*
G75*
G02*
X11789969Y-7355550I-85090J0D01*
G01*
X11789969Y-7355550D02*
G75*
G02*
X11960149Y-7355550I85090J0D01*
G01*
X12337749Y-9423751D02*
G75*
G02*
X12167569Y-9423751I-85090J0D01*
G01*
X12167569Y-9423751D02*
G75*
G02*
X12337749Y-9423751I85090J0D01*
G01*
X12400149Y-5713450D02*
G75*
G02*
X12229969Y-5713450I-85090J0D01*
G01*
X12229969Y-5713450D02*
G75*
G02*
X12400149Y-5713450I85090J0D01*
G01*
X12584531Y-7729849D02*
G75*
G02*
X12414351Y-7729849I-85090J0D01*
G01*
X12414351Y-7729849D02*
G75*
G02*
X12584531Y-7729849I85090J0D01*
G01*
X12840149Y-4071350D02*
G75*
G02*
X12669969Y-4071350I-85090J0D01*
G01*
X12669969Y-4071350D02*
G75*
G02*
X12840149Y-4071350I85090J0D01*
G01*
X13013831Y-9604950D02*
G75*
G02*
X12843651Y-9604950I-85090J0D01*
G01*
X12843651Y-9604950D02*
G75*
G02*
X13013831Y-9604950I85090J0D01*
G01*
X13024531Y-6087849D02*
G75*
G02*
X12854351Y-6087849I-85090J0D01*
G01*
X12854351Y-6087849D02*
G75*
G02*
X13024531Y-6087849I85090J0D01*
G01*
X13464531Y-4445750D02*
G75*
G02*
X13294351Y-4445750I-85090J0D01*
G01*
X13294351Y-4445750D02*
G75*
G02*
X13464531Y-4445750I85090J0D01*
G01*
X13647049Y-8014550D02*
G75*
G02*
X13476869Y-8014550I-85090J0D01*
G01*
X13476869Y-8014550D02*
G75*
G02*
X13647049Y-8014550I85090J0D01*
G01*
X14076349Y-9889651D02*
G75*
G02*
X13906169Y-9889651I-85090J0D01*
G01*
X13906169Y-9889651D02*
G75*
G02*
X14076349Y-9889651I85090J0D01*
G01*
X14087049Y-6372550D02*
G75*
G02*
X13916869Y-6372550I-85090J0D01*
G01*
X13916869Y-6372550D02*
G75*
G02*
X14087049Y-6372550I85090J0D01*
G01*
X14527049Y-4730451D02*
G75*
G02*
X14356869Y-4730451I-85090J0D01*
G01*
X14356869Y-4730451D02*
G75*
G02*
X14527049Y-4730451I85090J0D01*
G01*
X15643131Y-4730451D02*
G75*
G02*
X15472951Y-4730451I-85090J0D01*
G01*
X15472951Y-4730451D02*
G75*
G02*
X15643131Y-4730451I85090J0D01*
G01*
X16083131Y-6372550D02*
G75*
G02*
X15912951Y-6372550I-85090J0D01*
G01*
X15912951Y-6372550D02*
G75*
G02*
X16083131Y-6372550I85090J0D01*
G01*
X16093831Y-9889651D02*
G75*
G02*
X15923651Y-9889651I-85090J0D01*
G01*
X15923651Y-9889651D02*
G75*
G02*
X16093831Y-9889651I85090J0D01*
G01*
X16523131Y-8014550D02*
G75*
G02*
X16352951Y-8014550I-85090J0D01*
G01*
X16352951Y-8014550D02*
G75*
G02*
X16523131Y-8014550I85090J0D01*
G01*
X16705649Y-4445750D02*
G75*
G02*
X16535469Y-4445750I-85090J0D01*
G01*
X16535469Y-4445750D02*
G75*
G02*
X16705649Y-4445750I85090J0D01*
G01*
X17145649Y-6087849D02*
G75*
G02*
X16975469Y-6087849I-85090J0D01*
G01*
X16975469Y-6087849D02*
G75*
G02*
X17145649Y-6087849I85090J0D01*
G01*
X17156349Y-9604950D02*
G75*
G02*
X16986169Y-9604950I-85090J0D01*
G01*
X16986169Y-9604950D02*
G75*
G02*
X17156349Y-9604950I85090J0D01*
G01*
X17330031Y-4071350D02*
G75*
G02*
X17159851Y-4071350I-85090J0D01*
G01*
X17159851Y-4071350D02*
G75*
G02*
X17330031Y-4071350I85090J0D01*
G01*
X17585649Y-7729849D02*
G75*
G02*
X17415469Y-7729849I-85090J0D01*
G01*
X17415469Y-7729849D02*
G75*
G02*
X17585649Y-7729849I85090J0D01*
G01*
X17770031Y-5713450D02*
G75*
G02*
X17599851Y-5713450I-85090J0D01*
G01*
X17599851Y-5713450D02*
G75*
G02*
X17770031Y-5713450I85090J0D01*
G01*
X17832431Y-9423751D02*
G75*
G02*
X17662251Y-9423751I-85090J0D01*
G01*
X17662251Y-9423751D02*
G75*
G02*
X17832431Y-9423751I85090J0D01*
G01*
X18210031Y-7355550D02*
G75*
G02*
X18039851Y-7355550I-85090J0D01*
G01*
X18039851Y-7355550D02*
G75*
G02*
X18210031Y-7355550I85090J0D01*
G01*
X18392549Y-3786649D02*
G75*
G02*
X18222369Y-3786649I-85090J0D01*
G01*
X18222369Y-3786649D02*
G75*
G02*
X18392549Y-3786649I85090J0D01*
G01*
X18832549Y-5428750D02*
G75*
G02*
X18662369Y-5428750I-85090J0D01*
G01*
X18662369Y-5428750D02*
G75*
G02*
X18832549Y-5428750I85090J0D01*
G01*
X18894949Y-9139050D02*
G75*
G02*
X18724769Y-9139050I-85090J0D01*
G01*
X18724769Y-9139050D02*
G75*
G02*
X18894949Y-9139050I85090J0D01*
G01*
X18965231Y-3219150D02*
G75*
G02*
X18795051Y-3219150I-85090J0D01*
G01*
X18795051Y-3219150D02*
G75*
G02*
X18965231Y-3219150I85090J0D01*
G01*
X19272549Y-7070849D02*
G75*
G02*
X19102369Y-7070849I-85090J0D01*
G01*
X19102369Y-7070849D02*
G75*
G02*
X19272549Y-7070849I85090J0D01*
G01*
X19405231Y-4861251D02*
G75*
G02*
X19235051Y-4861251I-85090J0D01*
G01*
X19235051Y-4861251D02*
G75*
G02*
X19405231Y-4861251I85090J0D01*
G01*
X19519331Y-8764651D02*
G75*
G02*
X19349151Y-8764651I-85090J0D01*
G01*
X19349151Y-8764651D02*
G75*
G02*
X19519331Y-8764651I85090J0D01*
G01*
X19845231Y-6503250D02*
G75*
G02*
X19675051Y-6503250I-85090J0D01*
G01*
X19675051Y-6503250D02*
G75*
G02*
X19845231Y-6503250I85090J0D01*
G01*
X20027749Y-2934449D02*
G75*
G02*
X19857569Y-2934449I-85090J0D01*
G01*
X19857569Y-2934449D02*
G75*
G02*
X20027749Y-2934449I85090J0D01*
G01*
X20467749Y-4576550D02*
G75*
G02*
X20297569Y-4576550I-85090J0D01*
G01*
X20297569Y-4576550D02*
G75*
G02*
X20467749Y-4576550I85090J0D01*
G01*
X20581849Y-8479950D02*
G75*
G02*
X20411669Y-8479950I-85090J0D01*
G01*
X20411669Y-8479950D02*
G75*
G02*
X20581849Y-8479950I85090J0D01*
G01*
X20807431Y-3139650D02*
G75*
G02*
X20637251Y-3139650I-85090J0D01*
G01*
X20637251Y-3139650D02*
G75*
G02*
X20807431Y-3139650I85090J0D01*
G01*
X20907749Y-6218549D02*
G75*
G02*
X20737569Y-6218549I-85090J0D01*
G01*
X20737569Y-6218549D02*
G75*
G02*
X20907749Y-6218549I85090J0D01*
G01*
X21247431Y-4781751D02*
G75*
G02*
X21077251Y-4781751I-85090J0D01*
G01*
X21077251Y-4781751D02*
G75*
G02*
X21247431Y-4781751I85090J0D01*
G01*
X21687431Y-6423750D02*
G75*
G02*
X21517251Y-6423750I-85090J0D01*
G01*
X21517251Y-6423750D02*
G75*
G02*
X21687431Y-6423750I85090J0D01*
G01*
X21869949Y-2854949D02*
G75*
G02*
X21699769Y-2854949I-85090J0D01*
G01*
X21699769Y-2854949D02*
G75*
G02*
X21869949Y-2854949I85090J0D01*
G01*
X22309949Y-4497050D02*
G75*
G02*
X22139769Y-4497050I-85090J0D01*
G01*
X22139769Y-4497050D02*
G75*
G02*
X22309949Y-4497050I85090J0D01*
G01*
X22749949Y-6139049D02*
G75*
G02*
X22579769Y-6139049I-85090J0D01*
G01*
X22579769Y-6139049D02*
G75*
G02*
X22749949Y-6139049I85090J0D01*
G01*
X22856631Y-3832850D02*
G75*
G02*
X22686451Y-3832850I-85090J0D01*
G01*
X22686451Y-3832850D02*
G75*
G02*
X22856631Y-3832850I85090J0D01*
G01*
X23296631Y-5474951D02*
G75*
G02*
X23126451Y-5474951I-85090J0D01*
G01*
X23126451Y-5474951D02*
G75*
G02*
X23296631Y-5474951I85090J0D01*
G01*
X23736631Y-7117050D02*
G75*
G02*
X23566451Y-7117050I-85090J0D01*
G01*
X23566451Y-7117050D02*
G75*
G02*
X23736631Y-7117050I85090J0D01*
G01*
X23919149Y-3548149D02*
G75*
G02*
X23748969Y-3548149I-85090J0D01*
G01*
X23748969Y-3548149D02*
G75*
G02*
X23919149Y-3548149I85090J0D01*
G01*
X24359149Y-5190250D02*
G75*
G02*
X24188969Y-5190250I-85090J0D01*
G01*
X24188969Y-5190250D02*
G75*
G02*
X24359149Y-5190250I85090J0D01*
G01*
X24799149Y-6832349D02*
G75*
G02*
X24628969Y-6832349I-85090J0D01*
G01*
X24628969Y-6832349D02*
G75*
G02*
X24799149Y-6832349I85090J0D01*
G01*
D13*
X5817200Y-6803250D02*
X5817200Y-7146150D01*
X5645750Y-6974700D02*
X5988650Y-6974700D01*
X6257200Y-5161150D02*
X6257200Y-5504050D01*
X6085750Y-5332600D02*
X6428650Y-5332600D01*
X6697200Y-3519050D02*
X6697200Y-3861950D01*
X6525750Y-3690500D02*
X6868650Y-3690500D01*
X7866500Y-6109950D02*
X7866500Y-6452850D01*
X7695050Y-6281400D02*
X8037950Y-6281400D01*
X8306400Y-4467950D02*
X8306400Y-4810850D01*
X8134950Y-4639400D02*
X8477850Y-4639400D01*
X8746400Y-2825850D02*
X8746400Y-3168750D01*
X8574950Y-2997300D02*
X8917850Y-2997300D01*
X9708600Y-6189450D02*
X9708600Y-6532350D01*
X9537150Y-6360900D02*
X9880050Y-6360900D01*
X10034500Y-8450850D02*
X10034500Y-8793750D01*
X9863050Y-8622300D02*
X10205950Y-8622300D01*
X10148600Y-4547450D02*
X10148600Y-4890350D01*
X9977150Y-4718900D02*
X10320050Y-4718900D01*
X10588600Y-2905350D02*
X10588600Y-3248250D01*
X10417150Y-3076800D02*
X10760050Y-3076800D01*
X11343800Y-7041750D02*
X11343800Y-7384650D01*
X11172350Y-7213200D02*
X11515250Y-7213200D01*
X11721400Y-9109950D02*
X11721400Y-9452850D01*
X11549950Y-9281400D02*
X11892850Y-9281400D01*
X11783800Y-5399650D02*
X11783800Y-5742550D01*
X11612350Y-5571100D02*
X11955250Y-5571100D01*
X12223800Y-3757550D02*
X12223800Y-4100450D01*
X12052350Y-3929000D02*
X12395250Y-3929000D01*
X13030700Y-7700750D02*
X13030700Y-8043650D01*
X12859250Y-7872200D02*
X13202150Y-7872200D01*
X13460000Y-9575850D02*
X13460000Y-9918750D01*
X13288550Y-9747300D02*
X13631450Y-9747300D01*
X13470700Y-6058750D02*
X13470700Y-6401650D01*
X13299250Y-6230200D02*
X13642150Y-6230200D01*
X13910700Y-4416650D02*
X13910700Y-4759550D01*
X13739250Y-4588100D02*
X14082150Y-4588100D01*
X16089300Y-4416650D02*
X16089300Y-4759550D01*
X15917850Y-4588100D02*
X16260750Y-4588100D01*
X16529300Y-6058750D02*
X16529300Y-6401650D01*
X16357850Y-6230200D02*
X16700750Y-6230200D01*
X16540000Y-9575850D02*
X16540000Y-9918750D01*
X16368550Y-9747300D02*
X16711450Y-9747300D01*
X16969300Y-7700750D02*
X16969300Y-8043650D01*
X16797850Y-7872200D02*
X17140750Y-7872200D01*
X17776200Y-3757550D02*
X17776200Y-4100450D01*
X17604750Y-3929000D02*
X17947650Y-3929000D01*
X18216200Y-5399650D02*
X18216200Y-5742550D01*
X18044750Y-5571100D02*
X18387650Y-5571100D01*
X18278600Y-9109950D02*
X18278600Y-9452850D01*
X18107150Y-9281400D02*
X18450050Y-9281400D01*
X18656200Y-7041750D02*
X18656200Y-7384650D01*
X18484750Y-7213200D02*
X18827650Y-7213200D01*
X19411400Y-2905350D02*
X19411400Y-3248250D01*
X19239950Y-3076800D02*
X19582850Y-3076800D01*
X19851400Y-4547450D02*
X19851400Y-4890350D01*
X19679950Y-4718900D02*
X20022850Y-4718900D01*
X19965500Y-8450850D02*
X19965500Y-8793750D01*
X19794050Y-8622300D02*
X20136950Y-8622300D01*
X20291400Y-6189450D02*
X20291400Y-6532350D01*
X20119950Y-6360900D02*
X20462850Y-6360900D01*
X21253600Y-2825850D02*
X21253600Y-3168750D01*
X21082150Y-2997300D02*
X21425050Y-2997300D01*
X21693600Y-4467950D02*
X21693600Y-4810850D01*
X21522150Y-4639400D02*
X21865050Y-4639400D01*
X22133600Y-6109950D02*
X22133600Y-6452850D01*
X21962150Y-6281400D02*
X22305050Y-6281400D01*
X23302800Y-3519050D02*
X23302800Y-3861950D01*
X23131350Y-3690500D02*
X23474250Y-3690500D01*
X23742800Y-5161150D02*
X23742800Y-5504050D01*
X23571350Y-5332600D02*
X23914250Y-5332600D01*
X24182800Y-6803250D02*
X24182800Y-7146150D01*
X24011350Y-6974700D02*
X24354250Y-6974700D01*
D10*
X4978677Y-11122714D02*
X4978677Y-10922714D01*
X4978677Y-10922714D02*
X5026296Y-10922714D01*
X5026296Y-10922714D02*
X5054867Y-10932238D01*
X5054867Y-10932238D02*
X5073915Y-10951285D01*
X5073915Y-10951285D02*
X5083439Y-10970333D01*
X5083439Y-10970333D02*
X5092963Y-11008428D01*
X5092963Y-11008428D02*
X5092963Y-11037000D01*
X5092963Y-11037000D02*
X5083439Y-11075095D01*
X5083439Y-11075095D02*
X5073915Y-11094142D01*
X5073915Y-11094142D02*
X5054867Y-11113190D01*
X5054867Y-11113190D02*
X5026296Y-11122714D01*
X5026296Y-11122714D02*
X4978677Y-11122714D01*
X5178677Y-11122714D02*
X5178677Y-10989380D01*
X5178677Y-11027476D02*
X5188201Y-11008428D01*
X5188201Y-11008428D02*
X5197724Y-10998904D01*
X5197724Y-10998904D02*
X5216772Y-10989380D01*
X5216772Y-10989380D02*
X5235820Y-10989380D01*
X5302486Y-11122714D02*
X5302486Y-10989380D01*
X5302486Y-10922714D02*
X5292963Y-10932238D01*
X5292963Y-10932238D02*
X5302486Y-10941761D01*
X5302486Y-10941761D02*
X5312010Y-10932238D01*
X5312010Y-10932238D02*
X5302486Y-10922714D01*
X5302486Y-10922714D02*
X5302486Y-10941761D01*
X5426296Y-11122714D02*
X5407248Y-11113190D01*
X5407248Y-11113190D02*
X5397724Y-11094142D01*
X5397724Y-11094142D02*
X5397724Y-10922714D01*
X5531058Y-11122714D02*
X5512010Y-11113190D01*
X5512010Y-11113190D02*
X5502486Y-11094142D01*
X5502486Y-11094142D02*
X5502486Y-10922714D01*
X5759629Y-11122714D02*
X5759629Y-10922714D01*
X5759629Y-10922714D02*
X5826296Y-11065571D01*
X5826296Y-11065571D02*
X5892962Y-10922714D01*
X5892962Y-10922714D02*
X5892962Y-11122714D01*
X6073915Y-11122714D02*
X6073915Y-11017952D01*
X6073915Y-11017952D02*
X6064391Y-10998904D01*
X6064391Y-10998904D02*
X6045343Y-10989380D01*
X6045343Y-10989380D02*
X6007248Y-10989380D01*
X6007248Y-10989380D02*
X5988201Y-10998904D01*
X6073915Y-11113190D02*
X6054867Y-11122714D01*
X6054867Y-11122714D02*
X6007248Y-11122714D01*
X6007248Y-11122714D02*
X5988201Y-11113190D01*
X5988201Y-11113190D02*
X5978677Y-11094142D01*
X5978677Y-11094142D02*
X5978677Y-11075095D01*
X5978677Y-11075095D02*
X5988201Y-11056047D01*
X5988201Y-11056047D02*
X6007248Y-11046523D01*
X6007248Y-11046523D02*
X6054867Y-11046523D01*
X6054867Y-11046523D02*
X6073915Y-11037000D01*
X6169153Y-10989380D02*
X6169153Y-11189380D01*
X6169153Y-10998904D02*
X6188201Y-10989380D01*
X6188201Y-10989380D02*
X6226296Y-10989380D01*
X6226296Y-10989380D02*
X6245343Y-10998904D01*
X6245343Y-10998904D02*
X6254867Y-11008428D01*
X6254867Y-11008428D02*
X6264391Y-11027476D01*
X6264391Y-11027476D02*
X6264391Y-11084619D01*
X6264391Y-11084619D02*
X6254867Y-11103666D01*
X6254867Y-11103666D02*
X6245343Y-11113190D01*
X6245343Y-11113190D02*
X6226296Y-11122714D01*
X6226296Y-11122714D02*
X6188201Y-11122714D01*
X6188201Y-11122714D02*
X6169153Y-11113190D01*
X6350105Y-11103666D02*
X6359629Y-11113190D01*
X6359629Y-11113190D02*
X6350105Y-11122714D01*
X6350105Y-11122714D02*
X6340582Y-11113190D01*
X6340582Y-11113190D02*
X6350105Y-11103666D01*
X6350105Y-11103666D02*
X6350105Y-11122714D01*
X6350105Y-10998904D02*
X6359629Y-11008428D01*
X6359629Y-11008428D02*
X6350105Y-11017952D01*
X6350105Y-11017952D02*
X6340582Y-11008428D01*
X6340582Y-11008428D02*
X6350105Y-10998904D01*
X6350105Y-10998904D02*
X6350105Y-11017952D01*
D11*
X4652900Y-11418730D02*
X4717900Y-11483730D01*
X4717900Y-11418730D02*
X4652900Y-11483730D01*
D10*
X5016772Y-11342714D02*
X5035820Y-11342714D01*
X5035820Y-11342714D02*
X5054867Y-11352238D01*
X5054867Y-11352238D02*
X5064391Y-11361761D01*
X5064391Y-11361761D02*
X5073915Y-11380809D01*
X5073915Y-11380809D02*
X5083439Y-11418904D01*
X5083439Y-11418904D02*
X5083439Y-11466523D01*
X5083439Y-11466523D02*
X5073915Y-11504618D01*
X5073915Y-11504618D02*
X5064391Y-11523666D01*
X5064391Y-11523666D02*
X5054867Y-11533190D01*
X5054867Y-11533190D02*
X5035820Y-11542714D01*
X5035820Y-11542714D02*
X5016772Y-11542714D01*
X5016772Y-11542714D02*
X4997724Y-11533190D01*
X4997724Y-11533190D02*
X4988201Y-11523666D01*
X4988201Y-11523666D02*
X4978677Y-11504618D01*
X4978677Y-11504618D02*
X4969153Y-11466523D01*
X4969153Y-11466523D02*
X4969153Y-11418904D01*
X4969153Y-11418904D02*
X4978677Y-11380809D01*
X4978677Y-11380809D02*
X4988201Y-11361761D01*
X4988201Y-11361761D02*
X4997724Y-11352238D01*
X4997724Y-11352238D02*
X5016772Y-11342714D01*
X5169153Y-11523666D02*
X5178677Y-11533190D01*
X5178677Y-11533190D02*
X5169153Y-11542714D01*
X5169153Y-11542714D02*
X5159629Y-11533190D01*
X5159629Y-11533190D02*
X5169153Y-11523666D01*
X5169153Y-11523666D02*
X5169153Y-11542714D01*
X5350105Y-11342714D02*
X5312010Y-11342714D01*
X5312010Y-11342714D02*
X5292963Y-11352238D01*
X5292963Y-11352238D02*
X5283439Y-11361761D01*
X5283439Y-11361761D02*
X5264391Y-11390333D01*
X5264391Y-11390333D02*
X5254867Y-11428428D01*
X5254867Y-11428428D02*
X5254867Y-11504618D01*
X5254867Y-11504618D02*
X5264391Y-11523666D01*
X5264391Y-11523666D02*
X5273915Y-11533190D01*
X5273915Y-11533190D02*
X5292963Y-11542714D01*
X5292963Y-11542714D02*
X5331058Y-11542714D01*
X5331058Y-11542714D02*
X5350105Y-11533190D01*
X5350105Y-11533190D02*
X5359629Y-11523666D01*
X5359629Y-11523666D02*
X5369153Y-11504618D01*
X5369153Y-11504618D02*
X5369153Y-11456999D01*
X5369153Y-11456999D02*
X5359629Y-11437952D01*
X5359629Y-11437952D02*
X5350105Y-11428428D01*
X5350105Y-11428428D02*
X5331058Y-11418904D01*
X5331058Y-11418904D02*
X5292963Y-11418904D01*
X5292963Y-11418904D02*
X5273915Y-11428428D01*
X5273915Y-11428428D02*
X5264391Y-11437952D01*
X5264391Y-11437952D02*
X5254867Y-11456999D01*
X5550105Y-11342714D02*
X5454867Y-11342714D01*
X5454867Y-11342714D02*
X5445344Y-11437952D01*
X5445344Y-11437952D02*
X5454867Y-11428428D01*
X5454867Y-11428428D02*
X5473915Y-11418904D01*
X5473915Y-11418904D02*
X5521534Y-11418904D01*
X5521534Y-11418904D02*
X5540582Y-11428428D01*
X5540582Y-11428428D02*
X5550105Y-11437952D01*
X5550105Y-11437952D02*
X5559629Y-11456999D01*
X5559629Y-11456999D02*
X5559629Y-11504618D01*
X5559629Y-11504618D02*
X5550105Y-11523666D01*
X5550105Y-11523666D02*
X5540582Y-11533190D01*
X5540582Y-11533190D02*
X5521534Y-11542714D01*
X5521534Y-11542714D02*
X5473915Y-11542714D01*
X5473915Y-11542714D02*
X5454867Y-11533190D01*
X5454867Y-11533190D02*
X5445344Y-11523666D01*
X5683439Y-11342714D02*
X5702486Y-11342714D01*
X5702486Y-11342714D02*
X5721534Y-11352238D01*
X5721534Y-11352238D02*
X5731058Y-11361761D01*
X5731058Y-11361761D02*
X5740582Y-11380809D01*
X5740582Y-11380809D02*
X5750105Y-11418904D01*
X5750105Y-11418904D02*
X5750105Y-11466523D01*
X5750105Y-11466523D02*
X5740582Y-11504618D01*
X5740582Y-11504618D02*
X5731058Y-11523666D01*
X5731058Y-11523666D02*
X5721534Y-11533190D01*
X5721534Y-11533190D02*
X5702486Y-11542714D01*
X5702486Y-11542714D02*
X5683439Y-11542714D01*
X5683439Y-11542714D02*
X5664391Y-11533190D01*
X5664391Y-11533190D02*
X5654867Y-11523666D01*
X5654867Y-11523666D02*
X5645343Y-11504618D01*
X5645343Y-11504618D02*
X5635820Y-11466523D01*
X5635820Y-11466523D02*
X5635820Y-11418904D01*
X5635820Y-11418904D02*
X5645343Y-11380809D01*
X5645343Y-11380809D02*
X5654867Y-11361761D01*
X5654867Y-11361761D02*
X5664391Y-11352238D01*
X5664391Y-11352238D02*
X5683439Y-11342714D01*
X5835820Y-11542714D02*
X5835820Y-11409380D01*
X5835820Y-11428428D02*
X5845343Y-11418904D01*
X5845343Y-11418904D02*
X5864391Y-11409380D01*
X5864391Y-11409380D02*
X5892963Y-11409380D01*
X5892963Y-11409380D02*
X5912010Y-11418904D01*
X5912010Y-11418904D02*
X5921534Y-11437952D01*
X5921534Y-11437952D02*
X5921534Y-11542714D01*
X5921534Y-11437952D02*
X5931058Y-11418904D01*
X5931058Y-11418904D02*
X5950105Y-11409380D01*
X5950105Y-11409380D02*
X5978677Y-11409380D01*
X5978677Y-11409380D02*
X5997724Y-11418904D01*
X5997724Y-11418904D02*
X6007248Y-11437952D01*
X6007248Y-11437952D02*
X6007248Y-11542714D01*
X6102486Y-11542714D02*
X6102486Y-11409380D01*
X6102486Y-11428428D02*
X6112010Y-11418904D01*
X6112010Y-11418904D02*
X6131058Y-11409380D01*
X6131058Y-11409380D02*
X6159629Y-11409380D01*
X6159629Y-11409380D02*
X6178677Y-11418904D01*
X6178677Y-11418904D02*
X6188201Y-11437952D01*
X6188201Y-11437952D02*
X6188201Y-11542714D01*
X6188201Y-11437952D02*
X6197724Y-11418904D01*
X6197724Y-11418904D02*
X6216772Y-11409380D01*
X6216772Y-11409380D02*
X6245343Y-11409380D01*
X6245343Y-11409380D02*
X6264391Y-11418904D01*
X6264391Y-11418904D02*
X6273915Y-11437952D01*
X6273915Y-11437952D02*
X6273915Y-11542714D01*
X6664391Y-11333190D02*
X6492963Y-11590333D01*
X6921534Y-11342714D02*
X6940582Y-11342714D01*
X6940582Y-11342714D02*
X6959629Y-11352238D01*
X6959629Y-11352238D02*
X6969153Y-11361761D01*
X6969153Y-11361761D02*
X6978677Y-11380809D01*
X6978677Y-11380809D02*
X6988201Y-11418904D01*
X6988201Y-11418904D02*
X6988201Y-11466523D01*
X6988201Y-11466523D02*
X6978677Y-11504618D01*
X6978677Y-11504618D02*
X6969153Y-11523666D01*
X6969153Y-11523666D02*
X6959629Y-11533190D01*
X6959629Y-11533190D02*
X6940582Y-11542714D01*
X6940582Y-11542714D02*
X6921534Y-11542714D01*
X6921534Y-11542714D02*
X6902486Y-11533190D01*
X6902486Y-11533190D02*
X6892963Y-11523666D01*
X6892963Y-11523666D02*
X6883439Y-11504618D01*
X6883439Y-11504618D02*
X6873915Y-11466523D01*
X6873915Y-11466523D02*
X6873915Y-11418904D01*
X6873915Y-11418904D02*
X6883439Y-11380809D01*
X6883439Y-11380809D02*
X6892963Y-11361761D01*
X6892963Y-11361761D02*
X6902486Y-11352238D01*
X6902486Y-11352238D02*
X6921534Y-11342714D01*
X7073915Y-11523666D02*
X7083439Y-11533190D01*
X7083439Y-11533190D02*
X7073915Y-11542714D01*
X7073915Y-11542714D02*
X7064391Y-11533190D01*
X7064391Y-11533190D02*
X7073915Y-11523666D01*
X7073915Y-11523666D02*
X7073915Y-11542714D01*
X7207248Y-11342714D02*
X7226296Y-11342714D01*
X7226296Y-11342714D02*
X7245344Y-11352238D01*
X7245344Y-11352238D02*
X7254867Y-11361761D01*
X7254867Y-11361761D02*
X7264391Y-11380809D01*
X7264391Y-11380809D02*
X7273915Y-11418904D01*
X7273915Y-11418904D02*
X7273915Y-11466523D01*
X7273915Y-11466523D02*
X7264391Y-11504618D01*
X7264391Y-11504618D02*
X7254867Y-11523666D01*
X7254867Y-11523666D02*
X7245344Y-11533190D01*
X7245344Y-11533190D02*
X7226296Y-11542714D01*
X7226296Y-11542714D02*
X7207248Y-11542714D01*
X7207248Y-11542714D02*
X7188201Y-11533190D01*
X7188201Y-11533190D02*
X7178677Y-11523666D01*
X7178677Y-11523666D02*
X7169153Y-11504618D01*
X7169153Y-11504618D02*
X7159629Y-11466523D01*
X7159629Y-11466523D02*
X7159629Y-11418904D01*
X7159629Y-11418904D02*
X7169153Y-11380809D01*
X7169153Y-11380809D02*
X7178677Y-11361761D01*
X7178677Y-11361761D02*
X7188201Y-11352238D01*
X7188201Y-11352238D02*
X7207248Y-11342714D01*
X7350106Y-11361761D02*
X7359629Y-11352238D01*
X7359629Y-11352238D02*
X7378677Y-11342714D01*
X7378677Y-11342714D02*
X7426296Y-11342714D01*
X7426296Y-11342714D02*
X7445344Y-11352238D01*
X7445344Y-11352238D02*
X7454867Y-11361761D01*
X7454867Y-11361761D02*
X7464391Y-11380809D01*
X7464391Y-11380809D02*
X7464391Y-11399857D01*
X7464391Y-11399857D02*
X7454867Y-11428428D01*
X7454867Y-11428428D02*
X7340582Y-11542714D01*
X7340582Y-11542714D02*
X7464391Y-11542714D01*
X7645344Y-11342714D02*
X7550106Y-11342714D01*
X7550106Y-11342714D02*
X7540582Y-11437952D01*
X7540582Y-11437952D02*
X7550106Y-11428428D01*
X7550106Y-11428428D02*
X7569153Y-11418904D01*
X7569153Y-11418904D02*
X7616772Y-11418904D01*
X7616772Y-11418904D02*
X7635820Y-11428428D01*
X7635820Y-11428428D02*
X7645344Y-11437952D01*
X7645344Y-11437952D02*
X7654867Y-11456999D01*
X7654867Y-11456999D02*
X7654867Y-11504618D01*
X7654867Y-11504618D02*
X7645344Y-11523666D01*
X7645344Y-11523666D02*
X7635820Y-11533190D01*
X7635820Y-11533190D02*
X7616772Y-11542714D01*
X7616772Y-11542714D02*
X7569153Y-11542714D01*
X7569153Y-11542714D02*
X7550106Y-11533190D01*
X7550106Y-11533190D02*
X7540582Y-11523666D01*
X7826296Y-11342714D02*
X7788201Y-11342714D01*
X7788201Y-11342714D02*
X7769153Y-11352238D01*
X7769153Y-11352238D02*
X7759629Y-11361761D01*
X7759629Y-11361761D02*
X7740582Y-11390333D01*
X7740582Y-11390333D02*
X7731058Y-11428428D01*
X7731058Y-11428428D02*
X7731058Y-11504618D01*
X7731058Y-11504618D02*
X7740582Y-11523666D01*
X7740582Y-11523666D02*
X7750106Y-11533190D01*
X7750106Y-11533190D02*
X7769153Y-11542714D01*
X7769153Y-11542714D02*
X7807248Y-11542714D01*
X7807248Y-11542714D02*
X7826296Y-11533190D01*
X7826296Y-11533190D02*
X7835820Y-11523666D01*
X7835820Y-11523666D02*
X7845344Y-11504618D01*
X7845344Y-11504618D02*
X7845344Y-11456999D01*
X7845344Y-11456999D02*
X7835820Y-11437952D01*
X7835820Y-11437952D02*
X7826296Y-11428428D01*
X7826296Y-11428428D02*
X7807248Y-11418904D01*
X7807248Y-11418904D02*
X7769153Y-11418904D01*
X7769153Y-11418904D02*
X7750106Y-11428428D01*
X7750106Y-11428428D02*
X7740582Y-11437952D01*
X7740582Y-11437952D02*
X7731058Y-11456999D01*
X7921534Y-11342714D02*
X7921534Y-11380809D01*
X7997725Y-11342714D02*
X7997725Y-11380809D01*
X8292963Y-11618904D02*
X8283439Y-11609380D01*
X8283439Y-11609380D02*
X8264391Y-11580809D01*
X8264391Y-11580809D02*
X8254868Y-11561761D01*
X8254868Y-11561761D02*
X8245344Y-11533190D01*
X8245344Y-11533190D02*
X8235820Y-11485571D01*
X8235820Y-11485571D02*
X8235820Y-11447476D01*
X8235820Y-11447476D02*
X8245344Y-11399857D01*
X8245344Y-11399857D02*
X8254868Y-11371285D01*
X8254868Y-11371285D02*
X8264391Y-11352238D01*
X8264391Y-11352238D02*
X8283439Y-11323666D01*
X8283439Y-11323666D02*
X8292963Y-11314142D01*
X8359629Y-11361761D02*
X8369153Y-11352238D01*
X8369153Y-11352238D02*
X8388201Y-11342714D01*
X8388201Y-11342714D02*
X8435820Y-11342714D01*
X8435820Y-11342714D02*
X8454868Y-11352238D01*
X8454868Y-11352238D02*
X8464391Y-11361761D01*
X8464391Y-11361761D02*
X8473915Y-11380809D01*
X8473915Y-11380809D02*
X8473915Y-11399857D01*
X8473915Y-11399857D02*
X8464391Y-11428428D01*
X8464391Y-11428428D02*
X8350106Y-11542714D01*
X8350106Y-11542714D02*
X8473915Y-11542714D01*
X8712011Y-11542714D02*
X8712011Y-11342714D01*
X8797725Y-11542714D02*
X8797725Y-11437952D01*
X8797725Y-11437952D02*
X8788201Y-11418904D01*
X8788201Y-11418904D02*
X8769153Y-11409380D01*
X8769153Y-11409380D02*
X8740582Y-11409380D01*
X8740582Y-11409380D02*
X8721534Y-11418904D01*
X8721534Y-11418904D02*
X8712011Y-11428428D01*
X8921534Y-11542714D02*
X8902487Y-11533190D01*
X8902487Y-11533190D02*
X8892963Y-11523666D01*
X8892963Y-11523666D02*
X8883439Y-11504618D01*
X8883439Y-11504618D02*
X8883439Y-11447476D01*
X8883439Y-11447476D02*
X8892963Y-11428428D01*
X8892963Y-11428428D02*
X8902487Y-11418904D01*
X8902487Y-11418904D02*
X8921534Y-11409380D01*
X8921534Y-11409380D02*
X8950106Y-11409380D01*
X8950106Y-11409380D02*
X8969153Y-11418904D01*
X8969153Y-11418904D02*
X8978677Y-11428428D01*
X8978677Y-11428428D02*
X8988201Y-11447476D01*
X8988201Y-11447476D02*
X8988201Y-11504618D01*
X8988201Y-11504618D02*
X8978677Y-11523666D01*
X8978677Y-11523666D02*
X8969153Y-11533190D01*
X8969153Y-11533190D02*
X8950106Y-11542714D01*
X8950106Y-11542714D02*
X8921534Y-11542714D01*
X9102487Y-11542714D02*
X9083439Y-11533190D01*
X9083439Y-11533190D02*
X9073915Y-11514142D01*
X9073915Y-11514142D02*
X9073915Y-11342714D01*
X9254868Y-11533190D02*
X9235820Y-11542714D01*
X9235820Y-11542714D02*
X9197725Y-11542714D01*
X9197725Y-11542714D02*
X9178677Y-11533190D01*
X9178677Y-11533190D02*
X9169153Y-11514142D01*
X9169153Y-11514142D02*
X9169153Y-11437952D01*
X9169153Y-11437952D02*
X9178677Y-11418904D01*
X9178677Y-11418904D02*
X9197725Y-11409380D01*
X9197725Y-11409380D02*
X9235820Y-11409380D01*
X9235820Y-11409380D02*
X9254868Y-11418904D01*
X9254868Y-11418904D02*
X9264392Y-11437952D01*
X9264392Y-11437952D02*
X9264392Y-11456999D01*
X9264392Y-11456999D02*
X9169153Y-11476047D01*
X9340582Y-11533190D02*
X9359630Y-11542714D01*
X9359630Y-11542714D02*
X9397725Y-11542714D01*
X9397725Y-11542714D02*
X9416773Y-11533190D01*
X9416773Y-11533190D02*
X9426296Y-11514142D01*
X9426296Y-11514142D02*
X9426296Y-11504618D01*
X9426296Y-11504618D02*
X9416773Y-11485571D01*
X9416773Y-11485571D02*
X9397725Y-11476047D01*
X9397725Y-11476047D02*
X9369153Y-11476047D01*
X9369153Y-11476047D02*
X9350106Y-11466523D01*
X9350106Y-11466523D02*
X9340582Y-11447476D01*
X9340582Y-11447476D02*
X9340582Y-11437952D01*
X9340582Y-11437952D02*
X9350106Y-11418904D01*
X9350106Y-11418904D02*
X9369153Y-11409380D01*
X9369153Y-11409380D02*
X9397725Y-11409380D01*
X9397725Y-11409380D02*
X9416773Y-11418904D01*
X9492963Y-11618904D02*
X9502487Y-11609380D01*
X9502487Y-11609380D02*
X9521534Y-11580809D01*
X9521534Y-11580809D02*
X9531058Y-11561761D01*
X9531058Y-11561761D02*
X9540582Y-11533190D01*
X9540582Y-11533190D02*
X9550106Y-11485571D01*
X9550106Y-11485571D02*
X9550106Y-11447476D01*
X9550106Y-11447476D02*
X9540582Y-11399857D01*
X9540582Y-11399857D02*
X9531058Y-11371285D01*
X9531058Y-11371285D02*
X9521534Y-11352238D01*
X9521534Y-11352238D02*
X9502487Y-11323666D01*
X9502487Y-11323666D02*
X9492963Y-11314142D01*
X9854868Y-11618904D02*
X9845344Y-11609380D01*
X9845344Y-11609380D02*
X9826296Y-11580809D01*
X9826296Y-11580809D02*
X9816773Y-11561761D01*
X9816773Y-11561761D02*
X9807249Y-11533190D01*
X9807249Y-11533190D02*
X9797725Y-11485571D01*
X9797725Y-11485571D02*
X9797725Y-11447476D01*
X9797725Y-11447476D02*
X9807249Y-11399857D01*
X9807249Y-11399857D02*
X9816773Y-11371285D01*
X9816773Y-11371285D02*
X9826296Y-11352238D01*
X9826296Y-11352238D02*
X9845344Y-11323666D01*
X9845344Y-11323666D02*
X9854868Y-11314142D01*
X9931058Y-11409380D02*
X9931058Y-11542714D01*
X9931058Y-11428428D02*
X9940582Y-11418904D01*
X9940582Y-11418904D02*
X9959630Y-11409380D01*
X9959630Y-11409380D02*
X9988201Y-11409380D01*
X9988201Y-11409380D02*
X10007249Y-11418904D01*
X10007249Y-11418904D02*
X10016773Y-11437952D01*
X10016773Y-11437952D02*
X10016773Y-11542714D01*
X10140582Y-11542714D02*
X10121534Y-11533190D01*
X10121534Y-11533190D02*
X10112011Y-11523666D01*
X10112011Y-11523666D02*
X10102487Y-11504618D01*
X10102487Y-11504618D02*
X10102487Y-11447476D01*
X10102487Y-11447476D02*
X10112011Y-11428428D01*
X10112011Y-11428428D02*
X10121534Y-11418904D01*
X10121534Y-11418904D02*
X10140582Y-11409380D01*
X10140582Y-11409380D02*
X10169154Y-11409380D01*
X10169154Y-11409380D02*
X10188201Y-11418904D01*
X10188201Y-11418904D02*
X10197725Y-11428428D01*
X10197725Y-11428428D02*
X10207249Y-11447476D01*
X10207249Y-11447476D02*
X10207249Y-11504618D01*
X10207249Y-11504618D02*
X10197725Y-11523666D01*
X10197725Y-11523666D02*
X10188201Y-11533190D01*
X10188201Y-11533190D02*
X10169154Y-11542714D01*
X10169154Y-11542714D02*
X10140582Y-11542714D01*
X10264392Y-11409380D02*
X10340582Y-11409380D01*
X10292963Y-11342714D02*
X10292963Y-11514142D01*
X10292963Y-11514142D02*
X10302487Y-11533190D01*
X10302487Y-11533190D02*
X10321534Y-11542714D01*
X10321534Y-11542714D02*
X10340582Y-11542714D01*
X10559630Y-11409380D02*
X10559630Y-11609380D01*
X10559630Y-11418904D02*
X10578677Y-11409380D01*
X10578677Y-11409380D02*
X10616773Y-11409380D01*
X10616773Y-11409380D02*
X10635820Y-11418904D01*
X10635820Y-11418904D02*
X10645344Y-11428428D01*
X10645344Y-11428428D02*
X10654868Y-11447476D01*
X10654868Y-11447476D02*
X10654868Y-11504618D01*
X10654868Y-11504618D02*
X10645344Y-11523666D01*
X10645344Y-11523666D02*
X10635820Y-11533190D01*
X10635820Y-11533190D02*
X10616773Y-11542714D01*
X10616773Y-11542714D02*
X10578677Y-11542714D01*
X10578677Y-11542714D02*
X10559630Y-11533190D01*
X10769154Y-11542714D02*
X10750106Y-11533190D01*
X10750106Y-11533190D02*
X10740582Y-11514142D01*
X10740582Y-11514142D02*
X10740582Y-11342714D01*
X10931058Y-11542714D02*
X10931058Y-11437952D01*
X10931058Y-11437952D02*
X10921535Y-11418904D01*
X10921535Y-11418904D02*
X10902487Y-11409380D01*
X10902487Y-11409380D02*
X10864392Y-11409380D01*
X10864392Y-11409380D02*
X10845344Y-11418904D01*
X10931058Y-11533190D02*
X10912011Y-11542714D01*
X10912011Y-11542714D02*
X10864392Y-11542714D01*
X10864392Y-11542714D02*
X10845344Y-11533190D01*
X10845344Y-11533190D02*
X10835820Y-11514142D01*
X10835820Y-11514142D02*
X10835820Y-11495095D01*
X10835820Y-11495095D02*
X10845344Y-11476047D01*
X10845344Y-11476047D02*
X10864392Y-11466523D01*
X10864392Y-11466523D02*
X10912011Y-11466523D01*
X10912011Y-11466523D02*
X10931058Y-11456999D01*
X10997725Y-11409380D02*
X11073915Y-11409380D01*
X11026296Y-11342714D02*
X11026296Y-11514142D01*
X11026296Y-11514142D02*
X11035820Y-11533190D01*
X11035820Y-11533190D02*
X11054868Y-11542714D01*
X11054868Y-11542714D02*
X11073915Y-11542714D01*
X11216773Y-11533190D02*
X11197725Y-11542714D01*
X11197725Y-11542714D02*
X11159630Y-11542714D01*
X11159630Y-11542714D02*
X11140582Y-11533190D01*
X11140582Y-11533190D02*
X11131058Y-11514142D01*
X11131058Y-11514142D02*
X11131058Y-11437952D01*
X11131058Y-11437952D02*
X11140582Y-11418904D01*
X11140582Y-11418904D02*
X11159630Y-11409380D01*
X11159630Y-11409380D02*
X11197725Y-11409380D01*
X11197725Y-11409380D02*
X11216773Y-11418904D01*
X11216773Y-11418904D02*
X11226296Y-11437952D01*
X11226296Y-11437952D02*
X11226296Y-11456999D01*
X11226296Y-11456999D02*
X11131058Y-11476047D01*
X11397725Y-11542714D02*
X11397725Y-11342714D01*
X11397725Y-11533190D02*
X11378677Y-11542714D01*
X11378677Y-11542714D02*
X11340582Y-11542714D01*
X11340582Y-11542714D02*
X11321534Y-11533190D01*
X11321534Y-11533190D02*
X11312011Y-11523666D01*
X11312011Y-11523666D02*
X11302487Y-11504618D01*
X11302487Y-11504618D02*
X11302487Y-11447476D01*
X11302487Y-11447476D02*
X11312011Y-11428428D01*
X11312011Y-11428428D02*
X11321534Y-11418904D01*
X11321534Y-11418904D02*
X11340582Y-11409380D01*
X11340582Y-11409380D02*
X11378677Y-11409380D01*
X11378677Y-11409380D02*
X11397725Y-11418904D01*
X11473915Y-11618904D02*
X11483439Y-11609380D01*
X11483439Y-11609380D02*
X11502487Y-11580809D01*
X11502487Y-11580809D02*
X11512011Y-11561761D01*
X11512011Y-11561761D02*
X11521534Y-11533190D01*
X11521534Y-11533190D02*
X11531058Y-11485571D01*
X11531058Y-11485571D02*
X11531058Y-11447476D01*
X11531058Y-11447476D02*
X11521534Y-11399857D01*
X11521534Y-11399857D02*
X11512011Y-11371285D01*
X11512011Y-11371285D02*
X11502487Y-11352238D01*
X11502487Y-11352238D02*
X11483439Y-11323666D01*
X11483439Y-11323666D02*
X11473915Y-11314142D01*
D12*
X4717900Y-11715230D02*
G75*
G02*
X4547720Y-11715230I-85090J0D01*
G01*
X4547720Y-11715230D02*
G75*
G02*
X4717900Y-11715230I85090J0D01*
G01*
D10*
X5083439Y-11806714D02*
X4969153Y-11806714D01*
X5026296Y-11806714D02*
X5026296Y-11606714D01*
X5026296Y-11606714D02*
X5007248Y-11635285D01*
X5007248Y-11635285D02*
X4988201Y-11654333D01*
X4988201Y-11654333D02*
X4969153Y-11663857D01*
X5169153Y-11787666D02*
X5178677Y-11797190D01*
X5178677Y-11797190D02*
X5169153Y-11806714D01*
X5169153Y-11806714D02*
X5159629Y-11797190D01*
X5159629Y-11797190D02*
X5169153Y-11787666D01*
X5169153Y-11787666D02*
X5169153Y-11806714D01*
X5245344Y-11606714D02*
X5378677Y-11606714D01*
X5378677Y-11606714D02*
X5292963Y-11806714D01*
X5492963Y-11606714D02*
X5512010Y-11606714D01*
X5512010Y-11606714D02*
X5531058Y-11616238D01*
X5531058Y-11616238D02*
X5540582Y-11625761D01*
X5540582Y-11625761D02*
X5550105Y-11644809D01*
X5550105Y-11644809D02*
X5559629Y-11682904D01*
X5559629Y-11682904D02*
X5559629Y-11730523D01*
X5559629Y-11730523D02*
X5550105Y-11768618D01*
X5550105Y-11768618D02*
X5540582Y-11787666D01*
X5540582Y-11787666D02*
X5531058Y-11797190D01*
X5531058Y-11797190D02*
X5512010Y-11806714D01*
X5512010Y-11806714D02*
X5492963Y-11806714D01*
X5492963Y-11806714D02*
X5473915Y-11797190D01*
X5473915Y-11797190D02*
X5464391Y-11787666D01*
X5464391Y-11787666D02*
X5454867Y-11768618D01*
X5454867Y-11768618D02*
X5445344Y-11730523D01*
X5445344Y-11730523D02*
X5445344Y-11682904D01*
X5445344Y-11682904D02*
X5454867Y-11644809D01*
X5454867Y-11644809D02*
X5464391Y-11625761D01*
X5464391Y-11625761D02*
X5473915Y-11616238D01*
X5473915Y-11616238D02*
X5492963Y-11606714D01*
X5635820Y-11625761D02*
X5645343Y-11616238D01*
X5645343Y-11616238D02*
X5664391Y-11606714D01*
X5664391Y-11606714D02*
X5712010Y-11606714D01*
X5712010Y-11606714D02*
X5731058Y-11616238D01*
X5731058Y-11616238D02*
X5740582Y-11625761D01*
X5740582Y-11625761D02*
X5750105Y-11644809D01*
X5750105Y-11644809D02*
X5750105Y-11663857D01*
X5750105Y-11663857D02*
X5740582Y-11692428D01*
X5740582Y-11692428D02*
X5626296Y-11806714D01*
X5626296Y-11806714D02*
X5750105Y-11806714D01*
X5835820Y-11806714D02*
X5835820Y-11673380D01*
X5835820Y-11692428D02*
X5845343Y-11682904D01*
X5845343Y-11682904D02*
X5864391Y-11673380D01*
X5864391Y-11673380D02*
X5892963Y-11673380D01*
X5892963Y-11673380D02*
X5912010Y-11682904D01*
X5912010Y-11682904D02*
X5921534Y-11701952D01*
X5921534Y-11701952D02*
X5921534Y-11806714D01*
X5921534Y-11701952D02*
X5931058Y-11682904D01*
X5931058Y-11682904D02*
X5950105Y-11673380D01*
X5950105Y-11673380D02*
X5978677Y-11673380D01*
X5978677Y-11673380D02*
X5997724Y-11682904D01*
X5997724Y-11682904D02*
X6007248Y-11701952D01*
X6007248Y-11701952D02*
X6007248Y-11806714D01*
X6102486Y-11806714D02*
X6102486Y-11673380D01*
X6102486Y-11692428D02*
X6112010Y-11682904D01*
X6112010Y-11682904D02*
X6131058Y-11673380D01*
X6131058Y-11673380D02*
X6159629Y-11673380D01*
X6159629Y-11673380D02*
X6178677Y-11682904D01*
X6178677Y-11682904D02*
X6188201Y-11701952D01*
X6188201Y-11701952D02*
X6188201Y-11806714D01*
X6188201Y-11701952D02*
X6197724Y-11682904D01*
X6197724Y-11682904D02*
X6216772Y-11673380D01*
X6216772Y-11673380D02*
X6245343Y-11673380D01*
X6245343Y-11673380D02*
X6264391Y-11682904D01*
X6264391Y-11682904D02*
X6273915Y-11701952D01*
X6273915Y-11701952D02*
X6273915Y-11806714D01*
X6664391Y-11597190D02*
X6492963Y-11854333D01*
X6921534Y-11606714D02*
X6940582Y-11606714D01*
X6940582Y-11606714D02*
X6959629Y-11616238D01*
X6959629Y-11616238D02*
X6969153Y-11625761D01*
X6969153Y-11625761D02*
X6978677Y-11644809D01*
X6978677Y-11644809D02*
X6988201Y-11682904D01*
X6988201Y-11682904D02*
X6988201Y-11730523D01*
X6988201Y-11730523D02*
X6978677Y-11768618D01*
X6978677Y-11768618D02*
X6969153Y-11787666D01*
X6969153Y-11787666D02*
X6959629Y-11797190D01*
X6959629Y-11797190D02*
X6940582Y-11806714D01*
X6940582Y-11806714D02*
X6921534Y-11806714D01*
X6921534Y-11806714D02*
X6902486Y-11797190D01*
X6902486Y-11797190D02*
X6892963Y-11787666D01*
X6892963Y-11787666D02*
X6883439Y-11768618D01*
X6883439Y-11768618D02*
X6873915Y-11730523D01*
X6873915Y-11730523D02*
X6873915Y-11682904D01*
X6873915Y-11682904D02*
X6883439Y-11644809D01*
X6883439Y-11644809D02*
X6892963Y-11625761D01*
X6892963Y-11625761D02*
X6902486Y-11616238D01*
X6902486Y-11616238D02*
X6921534Y-11606714D01*
X7073915Y-11787666D02*
X7083439Y-11797190D01*
X7083439Y-11797190D02*
X7073915Y-11806714D01*
X7073915Y-11806714D02*
X7064391Y-11797190D01*
X7064391Y-11797190D02*
X7073915Y-11787666D01*
X7073915Y-11787666D02*
X7073915Y-11806714D01*
X7207248Y-11606714D02*
X7226296Y-11606714D01*
X7226296Y-11606714D02*
X7245344Y-11616238D01*
X7245344Y-11616238D02*
X7254867Y-11625761D01*
X7254867Y-11625761D02*
X7264391Y-11644809D01*
X7264391Y-11644809D02*
X7273915Y-11682904D01*
X7273915Y-11682904D02*
X7273915Y-11730523D01*
X7273915Y-11730523D02*
X7264391Y-11768618D01*
X7264391Y-11768618D02*
X7254867Y-11787666D01*
X7254867Y-11787666D02*
X7245344Y-11797190D01*
X7245344Y-11797190D02*
X7226296Y-11806714D01*
X7226296Y-11806714D02*
X7207248Y-11806714D01*
X7207248Y-11806714D02*
X7188201Y-11797190D01*
X7188201Y-11797190D02*
X7178677Y-11787666D01*
X7178677Y-11787666D02*
X7169153Y-11768618D01*
X7169153Y-11768618D02*
X7159629Y-11730523D01*
X7159629Y-11730523D02*
X7159629Y-11682904D01*
X7159629Y-11682904D02*
X7169153Y-11644809D01*
X7169153Y-11644809D02*
X7178677Y-11625761D01*
X7178677Y-11625761D02*
X7188201Y-11616238D01*
X7188201Y-11616238D02*
X7207248Y-11606714D01*
X7445344Y-11606714D02*
X7407248Y-11606714D01*
X7407248Y-11606714D02*
X7388201Y-11616238D01*
X7388201Y-11616238D02*
X7378677Y-11625761D01*
X7378677Y-11625761D02*
X7359629Y-11654333D01*
X7359629Y-11654333D02*
X7350106Y-11692428D01*
X7350106Y-11692428D02*
X7350106Y-11768618D01*
X7350106Y-11768618D02*
X7359629Y-11787666D01*
X7359629Y-11787666D02*
X7369153Y-11797190D01*
X7369153Y-11797190D02*
X7388201Y-11806714D01*
X7388201Y-11806714D02*
X7426296Y-11806714D01*
X7426296Y-11806714D02*
X7445344Y-11797190D01*
X7445344Y-11797190D02*
X7454867Y-11787666D01*
X7454867Y-11787666D02*
X7464391Y-11768618D01*
X7464391Y-11768618D02*
X7464391Y-11720999D01*
X7464391Y-11720999D02*
X7454867Y-11701952D01*
X7454867Y-11701952D02*
X7445344Y-11692428D01*
X7445344Y-11692428D02*
X7426296Y-11682904D01*
X7426296Y-11682904D02*
X7388201Y-11682904D01*
X7388201Y-11682904D02*
X7369153Y-11692428D01*
X7369153Y-11692428D02*
X7359629Y-11701952D01*
X7359629Y-11701952D02*
X7350106Y-11720999D01*
X7531058Y-11606714D02*
X7664391Y-11606714D01*
X7664391Y-11606714D02*
X7578677Y-11806714D01*
X7778677Y-11606714D02*
X7797725Y-11606714D01*
X7797725Y-11606714D02*
X7816772Y-11616238D01*
X7816772Y-11616238D02*
X7826296Y-11625761D01*
X7826296Y-11625761D02*
X7835820Y-11644809D01*
X7835820Y-11644809D02*
X7845344Y-11682904D01*
X7845344Y-11682904D02*
X7845344Y-11730523D01*
X7845344Y-11730523D02*
X7835820Y-11768618D01*
X7835820Y-11768618D02*
X7826296Y-11787666D01*
X7826296Y-11787666D02*
X7816772Y-11797190D01*
X7816772Y-11797190D02*
X7797725Y-11806714D01*
X7797725Y-11806714D02*
X7778677Y-11806714D01*
X7778677Y-11806714D02*
X7759629Y-11797190D01*
X7759629Y-11797190D02*
X7750106Y-11787666D01*
X7750106Y-11787666D02*
X7740582Y-11768618D01*
X7740582Y-11768618D02*
X7731058Y-11730523D01*
X7731058Y-11730523D02*
X7731058Y-11682904D01*
X7731058Y-11682904D02*
X7740582Y-11644809D01*
X7740582Y-11644809D02*
X7750106Y-11625761D01*
X7750106Y-11625761D02*
X7759629Y-11616238D01*
X7759629Y-11616238D02*
X7778677Y-11606714D01*
X7921534Y-11606714D02*
X7921534Y-11644809D01*
X7997725Y-11606714D02*
X7997725Y-11644809D01*
X8292963Y-11882904D02*
X8283439Y-11873380D01*
X8283439Y-11873380D02*
X8264391Y-11844809D01*
X8264391Y-11844809D02*
X8254868Y-11825761D01*
X8254868Y-11825761D02*
X8245344Y-11797190D01*
X8245344Y-11797190D02*
X8235820Y-11749571D01*
X8235820Y-11749571D02*
X8235820Y-11711476D01*
X8235820Y-11711476D02*
X8245344Y-11663857D01*
X8245344Y-11663857D02*
X8254868Y-11635285D01*
X8254868Y-11635285D02*
X8264391Y-11616238D01*
X8264391Y-11616238D02*
X8283439Y-11587666D01*
X8283439Y-11587666D02*
X8292963Y-11578142D01*
X8350106Y-11606714D02*
X8483439Y-11606714D01*
X8483439Y-11606714D02*
X8397725Y-11806714D01*
X8550106Y-11625761D02*
X8559630Y-11616238D01*
X8559630Y-11616238D02*
X8578677Y-11606714D01*
X8578677Y-11606714D02*
X8626296Y-11606714D01*
X8626296Y-11606714D02*
X8645344Y-11616238D01*
X8645344Y-11616238D02*
X8654868Y-11625761D01*
X8654868Y-11625761D02*
X8664391Y-11644809D01*
X8664391Y-11644809D02*
X8664391Y-11663857D01*
X8664391Y-11663857D02*
X8654868Y-11692428D01*
X8654868Y-11692428D02*
X8540582Y-11806714D01*
X8540582Y-11806714D02*
X8664391Y-11806714D01*
X8902487Y-11806714D02*
X8902487Y-11606714D01*
X8988201Y-11806714D02*
X8988201Y-11701952D01*
X8988201Y-11701952D02*
X8978677Y-11682904D01*
X8978677Y-11682904D02*
X8959630Y-11673380D01*
X8959630Y-11673380D02*
X8931058Y-11673380D01*
X8931058Y-11673380D02*
X8912011Y-11682904D01*
X8912011Y-11682904D02*
X8902487Y-11692428D01*
X9112011Y-11806714D02*
X9092963Y-11797190D01*
X9092963Y-11797190D02*
X9083439Y-11787666D01*
X9083439Y-11787666D02*
X9073915Y-11768618D01*
X9073915Y-11768618D02*
X9073915Y-11711476D01*
X9073915Y-11711476D02*
X9083439Y-11692428D01*
X9083439Y-11692428D02*
X9092963Y-11682904D01*
X9092963Y-11682904D02*
X9112011Y-11673380D01*
X9112011Y-11673380D02*
X9140582Y-11673380D01*
X9140582Y-11673380D02*
X9159630Y-11682904D01*
X9159630Y-11682904D02*
X9169153Y-11692428D01*
X9169153Y-11692428D02*
X9178677Y-11711476D01*
X9178677Y-11711476D02*
X9178677Y-11768618D01*
X9178677Y-11768618D02*
X9169153Y-11787666D01*
X9169153Y-11787666D02*
X9159630Y-11797190D01*
X9159630Y-11797190D02*
X9140582Y-11806714D01*
X9140582Y-11806714D02*
X9112011Y-11806714D01*
X9292963Y-11806714D02*
X9273915Y-11797190D01*
X9273915Y-11797190D02*
X9264392Y-11778142D01*
X9264392Y-11778142D02*
X9264392Y-11606714D01*
X9445344Y-11797190D02*
X9426296Y-11806714D01*
X9426296Y-11806714D02*
X9388201Y-11806714D01*
X9388201Y-11806714D02*
X9369153Y-11797190D01*
X9369153Y-11797190D02*
X9359630Y-11778142D01*
X9359630Y-11778142D02*
X9359630Y-11701952D01*
X9359630Y-11701952D02*
X9369153Y-11682904D01*
X9369153Y-11682904D02*
X9388201Y-11673380D01*
X9388201Y-11673380D02*
X9426296Y-11673380D01*
X9426296Y-11673380D02*
X9445344Y-11682904D01*
X9445344Y-11682904D02*
X9454868Y-11701952D01*
X9454868Y-11701952D02*
X9454868Y-11720999D01*
X9454868Y-11720999D02*
X9359630Y-11740047D01*
X9531058Y-11797190D02*
X9550106Y-11806714D01*
X9550106Y-11806714D02*
X9588201Y-11806714D01*
X9588201Y-11806714D02*
X9607249Y-11797190D01*
X9607249Y-11797190D02*
X9616773Y-11778142D01*
X9616773Y-11778142D02*
X9616773Y-11768618D01*
X9616773Y-11768618D02*
X9607249Y-11749571D01*
X9607249Y-11749571D02*
X9588201Y-11740047D01*
X9588201Y-11740047D02*
X9559630Y-11740047D01*
X9559630Y-11740047D02*
X9540582Y-11730523D01*
X9540582Y-11730523D02*
X9531058Y-11711476D01*
X9531058Y-11711476D02*
X9531058Y-11701952D01*
X9531058Y-11701952D02*
X9540582Y-11682904D01*
X9540582Y-11682904D02*
X9559630Y-11673380D01*
X9559630Y-11673380D02*
X9588201Y-11673380D01*
X9588201Y-11673380D02*
X9607249Y-11682904D01*
X9683439Y-11882904D02*
X9692963Y-11873380D01*
X9692963Y-11873380D02*
X9712011Y-11844809D01*
X9712011Y-11844809D02*
X9721534Y-11825761D01*
X9721534Y-11825761D02*
X9731058Y-11797190D01*
X9731058Y-11797190D02*
X9740582Y-11749571D01*
X9740582Y-11749571D02*
X9740582Y-11711476D01*
X9740582Y-11711476D02*
X9731058Y-11663857D01*
X9731058Y-11663857D02*
X9721534Y-11635285D01*
X9721534Y-11635285D02*
X9712011Y-11616238D01*
X9712011Y-11616238D02*
X9692963Y-11587666D01*
X9692963Y-11587666D02*
X9683439Y-11578142D01*
X10045344Y-11882904D02*
X10035820Y-11873380D01*
X10035820Y-11873380D02*
X10016773Y-11844809D01*
X10016773Y-11844809D02*
X10007249Y-11825761D01*
X10007249Y-11825761D02*
X9997725Y-11797190D01*
X9997725Y-11797190D02*
X9988201Y-11749571D01*
X9988201Y-11749571D02*
X9988201Y-11711476D01*
X9988201Y-11711476D02*
X9997725Y-11663857D01*
X9997725Y-11663857D02*
X10007249Y-11635285D01*
X10007249Y-11635285D02*
X10016773Y-11616238D01*
X10016773Y-11616238D02*
X10035820Y-11587666D01*
X10035820Y-11587666D02*
X10045344Y-11578142D01*
X10121534Y-11673380D02*
X10121534Y-11806714D01*
X10121534Y-11692428D02*
X10131058Y-11682904D01*
X10131058Y-11682904D02*
X10150106Y-11673380D01*
X10150106Y-11673380D02*
X10178677Y-11673380D01*
X10178677Y-11673380D02*
X10197725Y-11682904D01*
X10197725Y-11682904D02*
X10207249Y-11701952D01*
X10207249Y-11701952D02*
X10207249Y-11806714D01*
X10331058Y-11806714D02*
X10312011Y-11797190D01*
X10312011Y-11797190D02*
X10302487Y-11787666D01*
X10302487Y-11787666D02*
X10292963Y-11768618D01*
X10292963Y-11768618D02*
X10292963Y-11711476D01*
X10292963Y-11711476D02*
X10302487Y-11692428D01*
X10302487Y-11692428D02*
X10312011Y-11682904D01*
X10312011Y-11682904D02*
X10331058Y-11673380D01*
X10331058Y-11673380D02*
X10359630Y-11673380D01*
X10359630Y-11673380D02*
X10378677Y-11682904D01*
X10378677Y-11682904D02*
X10388201Y-11692428D01*
X10388201Y-11692428D02*
X10397725Y-11711476D01*
X10397725Y-11711476D02*
X10397725Y-11768618D01*
X10397725Y-11768618D02*
X10388201Y-11787666D01*
X10388201Y-11787666D02*
X10378677Y-11797190D01*
X10378677Y-11797190D02*
X10359630Y-11806714D01*
X10359630Y-11806714D02*
X10331058Y-11806714D01*
X10454868Y-11673380D02*
X10531058Y-11673380D01*
X10483439Y-11606714D02*
X10483439Y-11778142D01*
X10483439Y-11778142D02*
X10492963Y-11797190D01*
X10492963Y-11797190D02*
X10512011Y-11806714D01*
X10512011Y-11806714D02*
X10531058Y-11806714D01*
X10750106Y-11673380D02*
X10750106Y-11873380D01*
X10750106Y-11682904D02*
X10769154Y-11673380D01*
X10769154Y-11673380D02*
X10807249Y-11673380D01*
X10807249Y-11673380D02*
X10826296Y-11682904D01*
X10826296Y-11682904D02*
X10835820Y-11692428D01*
X10835820Y-11692428D02*
X10845344Y-11711476D01*
X10845344Y-11711476D02*
X10845344Y-11768618D01*
X10845344Y-11768618D02*
X10835820Y-11787666D01*
X10835820Y-11787666D02*
X10826296Y-11797190D01*
X10826296Y-11797190D02*
X10807249Y-11806714D01*
X10807249Y-11806714D02*
X10769154Y-11806714D01*
X10769154Y-11806714D02*
X10750106Y-11797190D01*
X10959630Y-11806714D02*
X10940582Y-11797190D01*
X10940582Y-11797190D02*
X10931058Y-11778142D01*
X10931058Y-11778142D02*
X10931058Y-11606714D01*
X11121535Y-11806714D02*
X11121535Y-11701952D01*
X11121535Y-11701952D02*
X11112011Y-11682904D01*
X11112011Y-11682904D02*
X11092963Y-11673380D01*
X11092963Y-11673380D02*
X11054868Y-11673380D01*
X11054868Y-11673380D02*
X11035820Y-11682904D01*
X11121535Y-11797190D02*
X11102487Y-11806714D01*
X11102487Y-11806714D02*
X11054868Y-11806714D01*
X11054868Y-11806714D02*
X11035820Y-11797190D01*
X11035820Y-11797190D02*
X11026296Y-11778142D01*
X11026296Y-11778142D02*
X11026296Y-11759095D01*
X11026296Y-11759095D02*
X11035820Y-11740047D01*
X11035820Y-11740047D02*
X11054868Y-11730523D01*
X11054868Y-11730523D02*
X11102487Y-11730523D01*
X11102487Y-11730523D02*
X11121535Y-11720999D01*
X11188201Y-11673380D02*
X11264392Y-11673380D01*
X11216773Y-11606714D02*
X11216773Y-11778142D01*
X11216773Y-11778142D02*
X11226296Y-11797190D01*
X11226296Y-11797190D02*
X11245344Y-11806714D01*
X11245344Y-11806714D02*
X11264392Y-11806714D01*
X11407249Y-11797190D02*
X11388201Y-11806714D01*
X11388201Y-11806714D02*
X11350106Y-11806714D01*
X11350106Y-11806714D02*
X11331058Y-11797190D01*
X11331058Y-11797190D02*
X11321534Y-11778142D01*
X11321534Y-11778142D02*
X11321534Y-11701952D01*
X11321534Y-11701952D02*
X11331058Y-11682904D01*
X11331058Y-11682904D02*
X11350106Y-11673380D01*
X11350106Y-11673380D02*
X11388201Y-11673380D01*
X11388201Y-11673380D02*
X11407249Y-11682904D01*
X11407249Y-11682904D02*
X11416773Y-11701952D01*
X11416773Y-11701952D02*
X11416773Y-11720999D01*
X11416773Y-11720999D02*
X11321534Y-11740047D01*
X11588201Y-11806714D02*
X11588201Y-11606714D01*
X11588201Y-11797190D02*
X11569154Y-11806714D01*
X11569154Y-11806714D02*
X11531058Y-11806714D01*
X11531058Y-11806714D02*
X11512011Y-11797190D01*
X11512011Y-11797190D02*
X11502487Y-11787666D01*
X11502487Y-11787666D02*
X11492963Y-11768618D01*
X11492963Y-11768618D02*
X11492963Y-11711476D01*
X11492963Y-11711476D02*
X11502487Y-11692428D01*
X11502487Y-11692428D02*
X11512011Y-11682904D01*
X11512011Y-11682904D02*
X11531058Y-11673380D01*
X11531058Y-11673380D02*
X11569154Y-11673380D01*
X11569154Y-11673380D02*
X11588201Y-11682904D01*
X11664392Y-11882904D02*
X11673915Y-11873380D01*
X11673915Y-11873380D02*
X11692963Y-11844809D01*
X11692963Y-11844809D02*
X11702487Y-11825761D01*
X11702487Y-11825761D02*
X11712011Y-11797190D01*
X11712011Y-11797190D02*
X11721534Y-11749571D01*
X11721534Y-11749571D02*
X11721534Y-11711476D01*
X11721534Y-11711476D02*
X11712011Y-11663857D01*
X11712011Y-11663857D02*
X11702487Y-11635285D01*
X11702487Y-11635285D02*
X11692963Y-11616238D01*
X11692963Y-11616238D02*
X11673915Y-11587666D01*
X11673915Y-11587666D02*
X11664392Y-11578142D01*
X4617900Y-11905410D02*
X4617900Y-12105410D01*
X4517900Y-12005410D02*
X4717900Y-12005410D01*
X4959629Y-11896894D02*
X5083439Y-11896894D01*
X5083439Y-11896894D02*
X5016772Y-11973084D01*
X5016772Y-11973084D02*
X5045344Y-11973084D01*
X5045344Y-11973084D02*
X5064391Y-11982608D01*
X5064391Y-11982608D02*
X5073915Y-11992132D01*
X5073915Y-11992132D02*
X5083439Y-12011179D01*
X5083439Y-12011179D02*
X5083439Y-12058798D01*
X5083439Y-12058798D02*
X5073915Y-12077846D01*
X5073915Y-12077846D02*
X5064391Y-12087370D01*
X5064391Y-12087370D02*
X5045344Y-12096894D01*
X5045344Y-12096894D02*
X4988201Y-12096894D01*
X4988201Y-12096894D02*
X4969153Y-12087370D01*
X4969153Y-12087370D02*
X4959629Y-12077846D01*
X5169153Y-12077846D02*
X5178677Y-12087370D01*
X5178677Y-12087370D02*
X5169153Y-12096894D01*
X5169153Y-12096894D02*
X5159629Y-12087370D01*
X5159629Y-12087370D02*
X5169153Y-12077846D01*
X5169153Y-12077846D02*
X5169153Y-12096894D01*
X5350105Y-11963560D02*
X5350105Y-12096894D01*
X5302486Y-11887370D02*
X5254867Y-12030227D01*
X5254867Y-12030227D02*
X5378677Y-12030227D01*
X5445344Y-11915941D02*
X5454867Y-11906418D01*
X5454867Y-11906418D02*
X5473915Y-11896894D01*
X5473915Y-11896894D02*
X5521534Y-11896894D01*
X5521534Y-11896894D02*
X5540582Y-11906418D01*
X5540582Y-11906418D02*
X5550105Y-11915941D01*
X5550105Y-11915941D02*
X5559629Y-11934989D01*
X5559629Y-11934989D02*
X5559629Y-11954037D01*
X5559629Y-11954037D02*
X5550105Y-11982608D01*
X5550105Y-11982608D02*
X5435820Y-12096894D01*
X5435820Y-12096894D02*
X5559629Y-12096894D01*
X5654867Y-12096894D02*
X5692962Y-12096894D01*
X5692962Y-12096894D02*
X5712010Y-12087370D01*
X5712010Y-12087370D02*
X5721534Y-12077846D01*
X5721534Y-12077846D02*
X5740582Y-12049275D01*
X5740582Y-12049275D02*
X5750105Y-12011179D01*
X5750105Y-12011179D02*
X5750105Y-11934989D01*
X5750105Y-11934989D02*
X5740582Y-11915941D01*
X5740582Y-11915941D02*
X5731058Y-11906418D01*
X5731058Y-11906418D02*
X5712010Y-11896894D01*
X5712010Y-11896894D02*
X5673915Y-11896894D01*
X5673915Y-11896894D02*
X5654867Y-11906418D01*
X5654867Y-11906418D02*
X5645343Y-11915941D01*
X5645343Y-11915941D02*
X5635820Y-11934989D01*
X5635820Y-11934989D02*
X5635820Y-11982608D01*
X5635820Y-11982608D02*
X5645343Y-12001656D01*
X5645343Y-12001656D02*
X5654867Y-12011179D01*
X5654867Y-12011179D02*
X5673915Y-12020703D01*
X5673915Y-12020703D02*
X5712010Y-12020703D01*
X5712010Y-12020703D02*
X5731058Y-12011179D01*
X5731058Y-12011179D02*
X5740582Y-12001656D01*
X5740582Y-12001656D02*
X5750105Y-11982608D01*
X5835820Y-12096894D02*
X5835820Y-11963560D01*
X5835820Y-11982608D02*
X5845343Y-11973084D01*
X5845343Y-11973084D02*
X5864391Y-11963560D01*
X5864391Y-11963560D02*
X5892963Y-11963560D01*
X5892963Y-11963560D02*
X5912010Y-11973084D01*
X5912010Y-11973084D02*
X5921534Y-11992132D01*
X5921534Y-11992132D02*
X5921534Y-12096894D01*
X5921534Y-11992132D02*
X5931058Y-11973084D01*
X5931058Y-11973084D02*
X5950105Y-11963560D01*
X5950105Y-11963560D02*
X5978677Y-11963560D01*
X5978677Y-11963560D02*
X5997724Y-11973084D01*
X5997724Y-11973084D02*
X6007248Y-11992132D01*
X6007248Y-11992132D02*
X6007248Y-12096894D01*
X6102486Y-12096894D02*
X6102486Y-11963560D01*
X6102486Y-11982608D02*
X6112010Y-11973084D01*
X6112010Y-11973084D02*
X6131058Y-11963560D01*
X6131058Y-11963560D02*
X6159629Y-11963560D01*
X6159629Y-11963560D02*
X6178677Y-11973084D01*
X6178677Y-11973084D02*
X6188201Y-11992132D01*
X6188201Y-11992132D02*
X6188201Y-12096894D01*
X6188201Y-11992132D02*
X6197724Y-11973084D01*
X6197724Y-11973084D02*
X6216772Y-11963560D01*
X6216772Y-11963560D02*
X6245343Y-11963560D01*
X6245343Y-11963560D02*
X6264391Y-11973084D01*
X6264391Y-11973084D02*
X6273915Y-11992132D01*
X6273915Y-11992132D02*
X6273915Y-12096894D01*
X6664391Y-11887370D02*
X6492963Y-12144513D01*
X6921534Y-11896894D02*
X6940582Y-11896894D01*
X6940582Y-11896894D02*
X6959629Y-11906418D01*
X6959629Y-11906418D02*
X6969153Y-11915941D01*
X6969153Y-11915941D02*
X6978677Y-11934989D01*
X6978677Y-11934989D02*
X6988201Y-11973084D01*
X6988201Y-11973084D02*
X6988201Y-12020703D01*
X6988201Y-12020703D02*
X6978677Y-12058798D01*
X6978677Y-12058798D02*
X6969153Y-12077846D01*
X6969153Y-12077846D02*
X6959629Y-12087370D01*
X6959629Y-12087370D02*
X6940582Y-12096894D01*
X6940582Y-12096894D02*
X6921534Y-12096894D01*
X6921534Y-12096894D02*
X6902486Y-12087370D01*
X6902486Y-12087370D02*
X6892963Y-12077846D01*
X6892963Y-12077846D02*
X6883439Y-12058798D01*
X6883439Y-12058798D02*
X6873915Y-12020703D01*
X6873915Y-12020703D02*
X6873915Y-11973084D01*
X6873915Y-11973084D02*
X6883439Y-11934989D01*
X6883439Y-11934989D02*
X6892963Y-11915941D01*
X6892963Y-11915941D02*
X6902486Y-11906418D01*
X6902486Y-11906418D02*
X6921534Y-11896894D01*
X7073915Y-12077846D02*
X7083439Y-12087370D01*
X7083439Y-12087370D02*
X7073915Y-12096894D01*
X7073915Y-12096894D02*
X7064391Y-12087370D01*
X7064391Y-12087370D02*
X7073915Y-12077846D01*
X7073915Y-12077846D02*
X7073915Y-12096894D01*
X7273915Y-12096894D02*
X7159629Y-12096894D01*
X7216772Y-12096894D02*
X7216772Y-11896894D01*
X7216772Y-11896894D02*
X7197725Y-11925465D01*
X7197725Y-11925465D02*
X7178677Y-11944513D01*
X7178677Y-11944513D02*
X7159629Y-11954037D01*
X7340582Y-11896894D02*
X7464391Y-11896894D01*
X7464391Y-11896894D02*
X7397725Y-11973084D01*
X7397725Y-11973084D02*
X7426296Y-11973084D01*
X7426296Y-11973084D02*
X7445344Y-11982608D01*
X7445344Y-11982608D02*
X7454867Y-11992132D01*
X7454867Y-11992132D02*
X7464391Y-12011179D01*
X7464391Y-12011179D02*
X7464391Y-12058798D01*
X7464391Y-12058798D02*
X7454867Y-12077846D01*
X7454867Y-12077846D02*
X7445344Y-12087370D01*
X7445344Y-12087370D02*
X7426296Y-12096894D01*
X7426296Y-12096894D02*
X7369153Y-12096894D01*
X7369153Y-12096894D02*
X7350106Y-12087370D01*
X7350106Y-12087370D02*
X7340582Y-12077846D01*
X7645344Y-11896894D02*
X7550106Y-11896894D01*
X7550106Y-11896894D02*
X7540582Y-11992132D01*
X7540582Y-11992132D02*
X7550106Y-11982608D01*
X7550106Y-11982608D02*
X7569153Y-11973084D01*
X7569153Y-11973084D02*
X7616772Y-11973084D01*
X7616772Y-11973084D02*
X7635820Y-11982608D01*
X7635820Y-11982608D02*
X7645344Y-11992132D01*
X7645344Y-11992132D02*
X7654867Y-12011179D01*
X7654867Y-12011179D02*
X7654867Y-12058798D01*
X7654867Y-12058798D02*
X7645344Y-12077846D01*
X7645344Y-12077846D02*
X7635820Y-12087370D01*
X7635820Y-12087370D02*
X7616772Y-12096894D01*
X7616772Y-12096894D02*
X7569153Y-12096894D01*
X7569153Y-12096894D02*
X7550106Y-12087370D01*
X7550106Y-12087370D02*
X7540582Y-12077846D01*
X7778677Y-11896894D02*
X7797725Y-11896894D01*
X7797725Y-11896894D02*
X7816772Y-11906418D01*
X7816772Y-11906418D02*
X7826296Y-11915941D01*
X7826296Y-11915941D02*
X7835820Y-11934989D01*
X7835820Y-11934989D02*
X7845344Y-11973084D01*
X7845344Y-11973084D02*
X7845344Y-12020703D01*
X7845344Y-12020703D02*
X7835820Y-12058798D01*
X7835820Y-12058798D02*
X7826296Y-12077846D01*
X7826296Y-12077846D02*
X7816772Y-12087370D01*
X7816772Y-12087370D02*
X7797725Y-12096894D01*
X7797725Y-12096894D02*
X7778677Y-12096894D01*
X7778677Y-12096894D02*
X7759629Y-12087370D01*
X7759629Y-12087370D02*
X7750106Y-12077846D01*
X7750106Y-12077846D02*
X7740582Y-12058798D01*
X7740582Y-12058798D02*
X7731058Y-12020703D01*
X7731058Y-12020703D02*
X7731058Y-11973084D01*
X7731058Y-11973084D02*
X7740582Y-11934989D01*
X7740582Y-11934989D02*
X7750106Y-11915941D01*
X7750106Y-11915941D02*
X7759629Y-11906418D01*
X7759629Y-11906418D02*
X7778677Y-11896894D01*
X7921534Y-11896894D02*
X7921534Y-11934989D01*
X7997725Y-11896894D02*
X7997725Y-11934989D01*
X8292963Y-12173084D02*
X8283439Y-12163560D01*
X8283439Y-12163560D02*
X8264391Y-12134989D01*
X8264391Y-12134989D02*
X8254868Y-12115941D01*
X8254868Y-12115941D02*
X8245344Y-12087370D01*
X8245344Y-12087370D02*
X8235820Y-12039751D01*
X8235820Y-12039751D02*
X8235820Y-12001656D01*
X8235820Y-12001656D02*
X8245344Y-11954037D01*
X8245344Y-11954037D02*
X8254868Y-11925465D01*
X8254868Y-11925465D02*
X8264391Y-11906418D01*
X8264391Y-11906418D02*
X8283439Y-11877846D01*
X8283439Y-11877846D02*
X8292963Y-11868322D01*
X8350106Y-11896894D02*
X8473915Y-11896894D01*
X8473915Y-11896894D02*
X8407249Y-11973084D01*
X8407249Y-11973084D02*
X8435820Y-11973084D01*
X8435820Y-11973084D02*
X8454868Y-11982608D01*
X8454868Y-11982608D02*
X8464391Y-11992132D01*
X8464391Y-11992132D02*
X8473915Y-12011179D01*
X8473915Y-12011179D02*
X8473915Y-12058798D01*
X8473915Y-12058798D02*
X8464391Y-12077846D01*
X8464391Y-12077846D02*
X8454868Y-12087370D01*
X8454868Y-12087370D02*
X8435820Y-12096894D01*
X8435820Y-12096894D02*
X8378677Y-12096894D01*
X8378677Y-12096894D02*
X8359629Y-12087370D01*
X8359629Y-12087370D02*
X8350106Y-12077846D01*
X8645344Y-11896894D02*
X8607249Y-11896894D01*
X8607249Y-11896894D02*
X8588201Y-11906418D01*
X8588201Y-11906418D02*
X8578677Y-11915941D01*
X8578677Y-11915941D02*
X8559630Y-11944513D01*
X8559630Y-11944513D02*
X8550106Y-11982608D01*
X8550106Y-11982608D02*
X8550106Y-12058798D01*
X8550106Y-12058798D02*
X8559630Y-12077846D01*
X8559630Y-12077846D02*
X8569153Y-12087370D01*
X8569153Y-12087370D02*
X8588201Y-12096894D01*
X8588201Y-12096894D02*
X8626296Y-12096894D01*
X8626296Y-12096894D02*
X8645344Y-12087370D01*
X8645344Y-12087370D02*
X8654868Y-12077846D01*
X8654868Y-12077846D02*
X8664391Y-12058798D01*
X8664391Y-12058798D02*
X8664391Y-12011179D01*
X8664391Y-12011179D02*
X8654868Y-11992132D01*
X8654868Y-11992132D02*
X8645344Y-11982608D01*
X8645344Y-11982608D02*
X8626296Y-11973084D01*
X8626296Y-11973084D02*
X8588201Y-11973084D01*
X8588201Y-11973084D02*
X8569153Y-11982608D01*
X8569153Y-11982608D02*
X8559630Y-11992132D01*
X8559630Y-11992132D02*
X8550106Y-12011179D01*
X8902487Y-12096894D02*
X8902487Y-11896894D01*
X8988201Y-12096894D02*
X8988201Y-11992132D01*
X8988201Y-11992132D02*
X8978677Y-11973084D01*
X8978677Y-11973084D02*
X8959630Y-11963560D01*
X8959630Y-11963560D02*
X8931058Y-11963560D01*
X8931058Y-11963560D02*
X8912011Y-11973084D01*
X8912011Y-11973084D02*
X8902487Y-11982608D01*
X9112011Y-12096894D02*
X9092963Y-12087370D01*
X9092963Y-12087370D02*
X9083439Y-12077846D01*
X9083439Y-12077846D02*
X9073915Y-12058798D01*
X9073915Y-12058798D02*
X9073915Y-12001656D01*
X9073915Y-12001656D02*
X9083439Y-11982608D01*
X9083439Y-11982608D02*
X9092963Y-11973084D01*
X9092963Y-11973084D02*
X9112011Y-11963560D01*
X9112011Y-11963560D02*
X9140582Y-11963560D01*
X9140582Y-11963560D02*
X9159630Y-11973084D01*
X9159630Y-11973084D02*
X9169153Y-11982608D01*
X9169153Y-11982608D02*
X9178677Y-12001656D01*
X9178677Y-12001656D02*
X9178677Y-12058798D01*
X9178677Y-12058798D02*
X9169153Y-12077846D01*
X9169153Y-12077846D02*
X9159630Y-12087370D01*
X9159630Y-12087370D02*
X9140582Y-12096894D01*
X9140582Y-12096894D02*
X9112011Y-12096894D01*
X9292963Y-12096894D02*
X9273915Y-12087370D01*
X9273915Y-12087370D02*
X9264392Y-12068322D01*
X9264392Y-12068322D02*
X9264392Y-11896894D01*
X9445344Y-12087370D02*
X9426296Y-12096894D01*
X9426296Y-12096894D02*
X9388201Y-12096894D01*
X9388201Y-12096894D02*
X9369153Y-12087370D01*
X9369153Y-12087370D02*
X9359630Y-12068322D01*
X9359630Y-12068322D02*
X9359630Y-11992132D01*
X9359630Y-11992132D02*
X9369153Y-11973084D01*
X9369153Y-11973084D02*
X9388201Y-11963560D01*
X9388201Y-11963560D02*
X9426296Y-11963560D01*
X9426296Y-11963560D02*
X9445344Y-11973084D01*
X9445344Y-11973084D02*
X9454868Y-11992132D01*
X9454868Y-11992132D02*
X9454868Y-12011179D01*
X9454868Y-12011179D02*
X9359630Y-12030227D01*
X9531058Y-12087370D02*
X9550106Y-12096894D01*
X9550106Y-12096894D02*
X9588201Y-12096894D01*
X9588201Y-12096894D02*
X9607249Y-12087370D01*
X9607249Y-12087370D02*
X9616773Y-12068322D01*
X9616773Y-12068322D02*
X9616773Y-12058798D01*
X9616773Y-12058798D02*
X9607249Y-12039751D01*
X9607249Y-12039751D02*
X9588201Y-12030227D01*
X9588201Y-12030227D02*
X9559630Y-12030227D01*
X9559630Y-12030227D02*
X9540582Y-12020703D01*
X9540582Y-12020703D02*
X9531058Y-12001656D01*
X9531058Y-12001656D02*
X9531058Y-11992132D01*
X9531058Y-11992132D02*
X9540582Y-11973084D01*
X9540582Y-11973084D02*
X9559630Y-11963560D01*
X9559630Y-11963560D02*
X9588201Y-11963560D01*
X9588201Y-11963560D02*
X9607249Y-11973084D01*
X9683439Y-12173084D02*
X9692963Y-12163560D01*
X9692963Y-12163560D02*
X9712011Y-12134989D01*
X9712011Y-12134989D02*
X9721534Y-12115941D01*
X9721534Y-12115941D02*
X9731058Y-12087370D01*
X9731058Y-12087370D02*
X9740582Y-12039751D01*
X9740582Y-12039751D02*
X9740582Y-12001656D01*
X9740582Y-12001656D02*
X9731058Y-11954037D01*
X9731058Y-11954037D02*
X9721534Y-11925465D01*
X9721534Y-11925465D02*
X9712011Y-11906418D01*
X9712011Y-11906418D02*
X9692963Y-11877846D01*
X9692963Y-11877846D02*
X9683439Y-11868322D01*
X10045344Y-12173084D02*
X10035820Y-12163560D01*
X10035820Y-12163560D02*
X10016773Y-12134989D01*
X10016773Y-12134989D02*
X10007249Y-12115941D01*
X10007249Y-12115941D02*
X9997725Y-12087370D01*
X9997725Y-12087370D02*
X9988201Y-12039751D01*
X9988201Y-12039751D02*
X9988201Y-12001656D01*
X9988201Y-12001656D02*
X9997725Y-11954037D01*
X9997725Y-11954037D02*
X10007249Y-11925465D01*
X10007249Y-11925465D02*
X10016773Y-11906418D01*
X10016773Y-11906418D02*
X10035820Y-11877846D01*
X10035820Y-11877846D02*
X10045344Y-11868322D01*
X10121534Y-11963560D02*
X10121534Y-12096894D01*
X10121534Y-11982608D02*
X10131058Y-11973084D01*
X10131058Y-11973084D02*
X10150106Y-11963560D01*
X10150106Y-11963560D02*
X10178677Y-11963560D01*
X10178677Y-11963560D02*
X10197725Y-11973084D01*
X10197725Y-11973084D02*
X10207249Y-11992132D01*
X10207249Y-11992132D02*
X10207249Y-12096894D01*
X10331058Y-12096894D02*
X10312011Y-12087370D01*
X10312011Y-12087370D02*
X10302487Y-12077846D01*
X10302487Y-12077846D02*
X10292963Y-12058798D01*
X10292963Y-12058798D02*
X10292963Y-12001656D01*
X10292963Y-12001656D02*
X10302487Y-11982608D01*
X10302487Y-11982608D02*
X10312011Y-11973084D01*
X10312011Y-11973084D02*
X10331058Y-11963560D01*
X10331058Y-11963560D02*
X10359630Y-11963560D01*
X10359630Y-11963560D02*
X10378677Y-11973084D01*
X10378677Y-11973084D02*
X10388201Y-11982608D01*
X10388201Y-11982608D02*
X10397725Y-12001656D01*
X10397725Y-12001656D02*
X10397725Y-12058798D01*
X10397725Y-12058798D02*
X10388201Y-12077846D01*
X10388201Y-12077846D02*
X10378677Y-12087370D01*
X10378677Y-12087370D02*
X10359630Y-12096894D01*
X10359630Y-12096894D02*
X10331058Y-12096894D01*
X10454868Y-11963560D02*
X10531058Y-11963560D01*
X10483439Y-11896894D02*
X10483439Y-12068322D01*
X10483439Y-12068322D02*
X10492963Y-12087370D01*
X10492963Y-12087370D02*
X10512011Y-12096894D01*
X10512011Y-12096894D02*
X10531058Y-12096894D01*
X10750106Y-11963560D02*
X10750106Y-12163560D01*
X10750106Y-11973084D02*
X10769154Y-11963560D01*
X10769154Y-11963560D02*
X10807249Y-11963560D01*
X10807249Y-11963560D02*
X10826296Y-11973084D01*
X10826296Y-11973084D02*
X10835820Y-11982608D01*
X10835820Y-11982608D02*
X10845344Y-12001656D01*
X10845344Y-12001656D02*
X10845344Y-12058798D01*
X10845344Y-12058798D02*
X10835820Y-12077846D01*
X10835820Y-12077846D02*
X10826296Y-12087370D01*
X10826296Y-12087370D02*
X10807249Y-12096894D01*
X10807249Y-12096894D02*
X10769154Y-12096894D01*
X10769154Y-12096894D02*
X10750106Y-12087370D01*
X10959630Y-12096894D02*
X10940582Y-12087370D01*
X10940582Y-12087370D02*
X10931058Y-12068322D01*
X10931058Y-12068322D02*
X10931058Y-11896894D01*
X11121535Y-12096894D02*
X11121535Y-11992132D01*
X11121535Y-11992132D02*
X11112011Y-11973084D01*
X11112011Y-11973084D02*
X11092963Y-11963560D01*
X11092963Y-11963560D02*
X11054868Y-11963560D01*
X11054868Y-11963560D02*
X11035820Y-11973084D01*
X11121535Y-12087370D02*
X11102487Y-12096894D01*
X11102487Y-12096894D02*
X11054868Y-12096894D01*
X11054868Y-12096894D02*
X11035820Y-12087370D01*
X11035820Y-12087370D02*
X11026296Y-12068322D01*
X11026296Y-12068322D02*
X11026296Y-12049275D01*
X11026296Y-12049275D02*
X11035820Y-12030227D01*
X11035820Y-12030227D02*
X11054868Y-12020703D01*
X11054868Y-12020703D02*
X11102487Y-12020703D01*
X11102487Y-12020703D02*
X11121535Y-12011179D01*
X11188201Y-11963560D02*
X11264392Y-11963560D01*
X11216773Y-11896894D02*
X11216773Y-12068322D01*
X11216773Y-12068322D02*
X11226296Y-12087370D01*
X11226296Y-12087370D02*
X11245344Y-12096894D01*
X11245344Y-12096894D02*
X11264392Y-12096894D01*
X11407249Y-12087370D02*
X11388201Y-12096894D01*
X11388201Y-12096894D02*
X11350106Y-12096894D01*
X11350106Y-12096894D02*
X11331058Y-12087370D01*
X11331058Y-12087370D02*
X11321534Y-12068322D01*
X11321534Y-12068322D02*
X11321534Y-11992132D01*
X11321534Y-11992132D02*
X11331058Y-11973084D01*
X11331058Y-11973084D02*
X11350106Y-11963560D01*
X11350106Y-11963560D02*
X11388201Y-11963560D01*
X11388201Y-11963560D02*
X11407249Y-11973084D01*
X11407249Y-11973084D02*
X11416773Y-11992132D01*
X11416773Y-11992132D02*
X11416773Y-12011179D01*
X11416773Y-12011179D02*
X11321534Y-12030227D01*
X11588201Y-12096894D02*
X11588201Y-11896894D01*
X11588201Y-12087370D02*
X11569154Y-12096894D01*
X11569154Y-12096894D02*
X11531058Y-12096894D01*
X11531058Y-12096894D02*
X11512011Y-12087370D01*
X11512011Y-12087370D02*
X11502487Y-12077846D01*
X11502487Y-12077846D02*
X11492963Y-12058798D01*
X11492963Y-12058798D02*
X11492963Y-12001656D01*
X11492963Y-12001656D02*
X11502487Y-11982608D01*
X11502487Y-11982608D02*
X11512011Y-11973084D01*
X11512011Y-11973084D02*
X11531058Y-11963560D01*
X11531058Y-11963560D02*
X11569154Y-11963560D01*
X11569154Y-11963560D02*
X11588201Y-11973084D01*
X11664392Y-12173084D02*
X11673915Y-12163560D01*
X11673915Y-12163560D02*
X11692963Y-12134989D01*
X11692963Y-12134989D02*
X11702487Y-12115941D01*
X11702487Y-12115941D02*
X11712011Y-12087370D01*
X11712011Y-12087370D02*
X11721534Y-12039751D01*
X11721534Y-12039751D02*
X11721534Y-12001656D01*
X11721534Y-12001656D02*
X11712011Y-11954037D01*
X11712011Y-11954037D02*
X11702487Y-11925465D01*
X11702487Y-11925465D02*
X11692963Y-11906418D01*
X11692963Y-11906418D02*
X11673915Y-11877846D01*
X11673915Y-11877846D02*
X11664392Y-11868322D01*
M02*
