G04 #@! TF.GenerationSoftware,KiCad,Pcbnew,8.0.6+1*
G04 #@! TF.CreationDate,2024-11-03T11:26:52+01:00*
G04 #@! TF.ProjectId,keymini,6b65796d-696e-4692-9e6b-696361645f70,rev?*
G04 #@! TF.SameCoordinates,Original*
G04 #@! TF.FileFunction,Copper,L1,Top*
G04 #@! TF.FilePolarity,Positive*
%FSLAX46Y46*%
G04 Gerber Fmt 4.6, Leading zero omitted, Abs format (unit mm)*
G04 Created by KiCad (PCBNEW 8.0.6+1) date 2024-11-03 11:26:52*
%MOMM*%
%LPD*%
G01*
G04 APERTURE LIST*
G04 Aperture macros list*
%AMRoundRect*
0 Rectangle with rounded corners*
0 $1 Rounding radius*
0 $2 $3 $4 $5 $6 $7 $8 $9 X,Y pos of 4 corners*
0 Add a 4 corners polygon primitive as box body*
4,1,4,$2,$3,$4,$5,$6,$7,$8,$9,$2,$3,0*
0 Add four circle primitives for the rounded corners*
1,1,$1+$1,$2,$3*
1,1,$1+$1,$4,$5*
1,1,$1+$1,$6,$7*
1,1,$1+$1,$8,$9*
0 Add four rect primitives between the rounded corners*
20,1,$1+$1,$2,$3,$4,$5,0*
20,1,$1+$1,$4,$5,$6,$7,0*
20,1,$1+$1,$6,$7,$8,$9,0*
20,1,$1+$1,$8,$9,$2,$3,0*%
G04 Aperture macros list end*
G04 #@! TA.AperFunction,SMDPad,CuDef*
%ADD10RoundRect,0.250000X0.250000X0.475000X-0.250000X0.475000X-0.250000X-0.475000X0.250000X-0.475000X0*%
G04 #@! TD*
G04 #@! TA.AperFunction,ComponentPad*
%ADD11C,2.032000*%
G04 #@! TD*
G04 #@! TA.AperFunction,SMDPad,CuDef*
%ADD12RoundRect,0.112500X-0.210228X-0.060138X0.151994X-0.157195X0.210228X0.060138X-0.151994X0.157195X0*%
G04 #@! TD*
G04 #@! TA.AperFunction,SMDPad,CuDef*
%ADD13RoundRect,0.112500X-0.151994X-0.157195X0.210228X-0.060138X0.151994X0.157195X-0.210228X0.060138X0*%
G04 #@! TD*
G04 #@! TA.AperFunction,SMDPad,CuDef*
%ADD14RoundRect,0.250000X-0.250000X-0.475000X0.250000X-0.475000X0.250000X0.475000X-0.250000X0.475000X0*%
G04 #@! TD*
G04 #@! TA.AperFunction,SMDPad,CuDef*
%ADD15RoundRect,0.250000X0.450000X-0.262500X0.450000X0.262500X-0.450000X0.262500X-0.450000X-0.262500X0*%
G04 #@! TD*
G04 #@! TA.AperFunction,SMDPad,CuDef*
%ADD16RoundRect,0.075000X0.075000X-0.662500X0.075000X0.662500X-0.075000X0.662500X-0.075000X-0.662500X0*%
G04 #@! TD*
G04 #@! TA.AperFunction,SMDPad,CuDef*
%ADD17RoundRect,0.075000X0.662500X-0.075000X0.662500X0.075000X-0.662500X0.075000X-0.662500X-0.075000X0*%
G04 #@! TD*
G04 #@! TA.AperFunction,SMDPad,CuDef*
%ADD18RoundRect,0.250000X-0.450000X0.262500X-0.450000X-0.262500X0.450000X-0.262500X0.450000X0.262500X0*%
G04 #@! TD*
G04 #@! TA.AperFunction,SMDPad,CuDef*
%ADD19RoundRect,0.250000X-0.262500X-0.450000X0.262500X-0.450000X0.262500X0.450000X-0.262500X0.450000X0*%
G04 #@! TD*
G04 #@! TA.AperFunction,SMDPad,CuDef*
%ADD20R,0.600000X1.450000*%
G04 #@! TD*
G04 #@! TA.AperFunction,SMDPad,CuDef*
%ADD21R,0.300000X1.450000*%
G04 #@! TD*
G04 #@! TA.AperFunction,ComponentPad*
%ADD22O,1.000000X2.100000*%
G04 #@! TD*
G04 #@! TA.AperFunction,ComponentPad*
%ADD23O,1.000000X1.600000*%
G04 #@! TD*
G04 #@! TA.AperFunction,SMDPad,CuDef*
%ADD24R,1.000000X2.500000*%
G04 #@! TD*
G04 #@! TA.AperFunction,SMDPad,CuDef*
%ADD25RoundRect,0.150000X0.150000X-0.512500X0.150000X0.512500X-0.150000X0.512500X-0.150000X-0.512500X0*%
G04 #@! TD*
G04 #@! TA.AperFunction,ViaPad*
%ADD26C,0.600000*%
G04 #@! TD*
G04 #@! TA.AperFunction,Conductor*
%ADD27C,0.200000*%
G04 #@! TD*
G04 APERTURE END LIST*
D10*
G04 #@! TO.P,C2,1*
G04 #@! TO.N,+3.3V*
X150950000Y-72000000D03*
G04 #@! TO.P,C2,2*
G04 #@! TO.N,GND*
X149050000Y-72000000D03*
G04 #@! TD*
D11*
G04 #@! TO.P,SW1J1,1,1*
G04 #@! TO.N,Net-(D1J1-A)*
X234555032Y-42603962D03*
G04 #@! TO.P,SW1J1,2,2*
G04 #@! TO.N,COLJ*
X229181883Y-41869613D03*
G04 #@! TD*
D12*
G04 #@! TO.P,D2A1,1,K*
G04 #@! TO.N,ROW2*
X62773778Y-48514240D03*
G04 #@! TO.P,D2A1,2,A*
G04 #@! TO.N,Net-(D2A1-A)*
X64802222Y-49057760D03*
G04 #@! TD*
G04 #@! TO.P,D4D1,1,K*
G04 #@! TO.N,ROW4*
X117415778Y-88002240D03*
G04 #@! TO.P,D4D1,2,A*
G04 #@! TO.N,Net-(D4D1-A)*
X119444222Y-88545760D03*
G04 #@! TD*
D11*
G04 #@! TO.P,SW4F1,1,1*
G04 #@! TO.N,Net-(D4F1-A)*
X166927032Y-103171962D03*
G04 #@! TO.P,SW4F1,2,2*
G04 #@! TO.N,COLF*
X161553883Y-102437613D03*
G04 #@! TD*
G04 #@! TO.P,SW2I1,1,1*
G04 #@! TO.N,Net-(D2I1-A)*
X218463032Y-52092962D03*
G04 #@! TO.P,SW2I1,2,2*
G04 #@! TO.N,COLI*
X213089883Y-51358613D03*
G04 #@! TD*
G04 #@! TO.P,SW3I1,1,1*
G04 #@! TO.N,Net-(D3I1-A)*
X222863032Y-68512962D03*
G04 #@! TO.P,SW3I1,2,2*
G04 #@! TO.N,COLI*
X217489883Y-67778613D03*
G04 #@! TD*
G04 #@! TO.P,SW1G1,1,1*
G04 #@! TO.N,Net-(D1G1-A)*
X179289032Y-44988962D03*
G04 #@! TO.P,SW1G1,2,2*
G04 #@! TO.N,COLG*
X173915883Y-44254613D03*
G04 #@! TD*
D13*
G04 #@! TO.P,D2H1,1,K*
G04 #@! TO.N,ROW2*
X196282778Y-42920760D03*
G04 #@! TO.P,D2H1,2,A*
G04 #@! TO.N,Net-(D2H1-A)*
X198311222Y-42377240D03*
G04 #@! TD*
D11*
G04 #@! TO.P,SW4E1,1,1*
G04 #@! TO.N,Net-(D4E1-A)*
X133072968Y-103171962D03*
G04 #@! TO.P,SW4E1,2,2*
G04 #@! TO.N,COLE*
X128786858Y-99849423D03*
G04 #@! TD*
D13*
G04 #@! TO.P,D3H1,1,K*
G04 #@! TO.N,ROW3*
X200682778Y-59341760D03*
G04 #@! TO.P,D3H1,2,A*
G04 #@! TO.N,Net-(D3H1-A)*
X202711222Y-58798240D03*
G04 #@! TD*
D12*
G04 #@! TO.P,D4E1,1,K*
G04 #@! TO.N,ROW4*
X134802778Y-92661240D03*
G04 #@! TO.P,D4E1,2,A*
G04 #@! TO.N,Net-(D4E1-A)*
X136831222Y-93204760D03*
G04 #@! TD*
D11*
G04 #@! TO.P,SW3G1,1,1*
G04 #@! TO.N,Net-(D3G1-A)*
X188089032Y-77830962D03*
G04 #@! TO.P,SW3G1,2,2*
G04 #@! TO.N,COLG*
X182715883Y-77096613D03*
G04 #@! TD*
G04 #@! TO.P,SW3C1,1,1*
G04 #@! TO.N,Net-(D3C1-A)*
X95558968Y-69307962D03*
G04 #@! TO.P,SW3C1,2,2*
G04 #@! TO.N,COLC*
X91272858Y-65985423D03*
G04 #@! TD*
D10*
G04 #@! TO.P,C4,1*
G04 #@! TO.N,+3.3V*
X156950000Y-87000000D03*
G04 #@! TO.P,C4,2*
G04 #@! TO.N,GND*
X155050000Y-87000000D03*
G04 #@! TD*
D14*
G04 #@! TO.P,C1,1*
G04 #@! TO.N,GND*
X149050000Y-64000000D03*
G04 #@! TO.P,C1,2*
G04 #@! TO.N,+5V*
X150950000Y-64000000D03*
G04 #@! TD*
D13*
G04 #@! TO.P,D4G1,1,K*
G04 #@! TO.N,ROW4*
X180555778Y-88545760D03*
G04 #@! TO.P,D4G1,2,A*
G04 #@! TO.N,Net-(D4G1-A)*
X182584222Y-88002240D03*
G04 #@! TD*
D14*
G04 #@! TO.P,C3,1*
G04 #@! TO.N,+3.3V*
X155050000Y-75000000D03*
G04 #@! TO.P,C3,2*
G04 #@! TO.N,GND*
X156950000Y-75000000D03*
G04 #@! TD*
D13*
G04 #@! TO.P,D2G1,1,K*
G04 #@! TO.N,ROW2*
X179931778Y-51442760D03*
G04 #@! TO.P,D2G1,2,A*
G04 #@! TO.N,Net-(D2G1-A)*
X181960222Y-50899240D03*
G04 #@! TD*
G04 #@! TO.P,D1I1,1,K*
G04 #@! TO.N,ROW1*
X210304778Y-25704760D03*
G04 #@! TO.P,D1I1,2,A*
G04 #@! TO.N,Net-(D1I1-A)*
X212333222Y-25161240D03*
G04 #@! TD*
D11*
G04 #@! TO.P,SW4D1,1,1*
G04 #@! TO.N,Net-(D4D1-A)*
X115686968Y-98512962D03*
G04 #@! TO.P,SW4D1,2,2*
G04 #@! TO.N,COLD*
X111400858Y-95190423D03*
G04 #@! TD*
G04 #@! TO.P,SW4C1,1,1*
G04 #@! TO.N,Net-(D4C1-A)*
X98817968Y-91921962D03*
G04 #@! TO.P,SW4C1,2,2*
G04 #@! TO.N,COLC*
X94531858Y-88599423D03*
G04 #@! TD*
D12*
G04 #@! TO.P,D2B1,1,K*
G04 #@! TO.N,ROW2*
X83266778Y-41582240D03*
G04 #@! TO.P,D2B1,2,A*
G04 #@! TO.N,Net-(D2B1-A)*
X85295222Y-42125760D03*
G04 #@! TD*
D15*
G04 #@! TO.P,R2,1*
G04 #@! TO.N,GND*
X148000000Y-59912500D03*
G04 #@! TO.P,R2,2*
G04 #@! TO.N,Net-(J1-CC2)*
X148000000Y-58087500D03*
G04 #@! TD*
D16*
G04 #@! TO.P,U1,1,VBAT*
G04 #@! TO.N,+3.3V*
X147250000Y-85162500D03*
G04 #@! TO.P,U1,2,PC13*
G04 #@! TO.N,unconnected-(U1-PC13-Pad2)*
X147750000Y-85162500D03*
G04 #@! TO.P,U1,3,PC14*
G04 #@! TO.N,unconnected-(U1-PC14-Pad3)*
X148250000Y-85162500D03*
G04 #@! TO.P,U1,4,PC15*
G04 #@! TO.N,unconnected-(U1-PC15-Pad4)*
X148750000Y-85162500D03*
G04 #@! TO.P,U1,5,PF0*
G04 #@! TO.N,unconnected-(U1-PF0-Pad5)*
X149250000Y-85162500D03*
G04 #@! TO.P,U1,6,PF1*
G04 #@! TO.N,unconnected-(U1-PF1-Pad6)*
X149750000Y-85162500D03*
G04 #@! TO.P,U1,7,NRST*
G04 #@! TO.N,unconnected-(U1-NRST-Pad7)*
X150250000Y-85162500D03*
G04 #@! TO.P,U1,8,VSSA*
G04 #@! TO.N,GND*
X150750000Y-85162500D03*
G04 #@! TO.P,U1,9,VDDA*
G04 #@! TO.N,+3.3V*
X151250000Y-85162500D03*
G04 #@! TO.P,U1,10,PA0*
G04 #@! TO.N,unconnected-(U1-PA0-Pad10)*
X151750000Y-85162500D03*
G04 #@! TO.P,U1,11,PA1*
G04 #@! TO.N,unconnected-(U1-PA1-Pad11)*
X152250000Y-85162500D03*
G04 #@! TO.P,U1,12,PA2*
G04 #@! TO.N,unconnected-(U1-PA2-Pad12)*
X152750000Y-85162500D03*
D17*
G04 #@! TO.P,U1,13,PA3*
G04 #@! TO.N,COLA*
X154162500Y-83750000D03*
G04 #@! TO.P,U1,14,PA4*
G04 #@! TO.N,COLB*
X154162500Y-83250000D03*
G04 #@! TO.P,U1,15,PA5*
G04 #@! TO.N,COLC*
X154162500Y-82750000D03*
G04 #@! TO.P,U1,16,PA6*
G04 #@! TO.N,COLD*
X154162500Y-82250000D03*
G04 #@! TO.P,U1,17,PA7*
G04 #@! TO.N,COLE*
X154162500Y-81750000D03*
G04 #@! TO.P,U1,18,PB0*
G04 #@! TO.N,COLF*
X154162500Y-81250000D03*
G04 #@! TO.P,U1,19,PB1*
G04 #@! TO.N,COLG*
X154162500Y-80750000D03*
G04 #@! TO.P,U1,20,PB2*
G04 #@! TO.N,COLH*
X154162500Y-80250000D03*
G04 #@! TO.P,U1,21,PB10*
G04 #@! TO.N,COLI*
X154162500Y-79750000D03*
G04 #@! TO.P,U1,22,PB11*
G04 #@! TO.N,COLJ*
X154162500Y-79250000D03*
G04 #@! TO.P,U1,23,VSS*
G04 #@! TO.N,GND*
X154162500Y-78750000D03*
G04 #@! TO.P,U1,24,VDD*
G04 #@! TO.N,+3.3V*
X154162500Y-78250000D03*
D16*
G04 #@! TO.P,U1,25,PB12*
G04 #@! TO.N,unconnected-(U1-PB12-Pad25)*
X152750000Y-76837500D03*
G04 #@! TO.P,U1,26,PB13*
G04 #@! TO.N,unconnected-(U1-PB13-Pad26)*
X152250000Y-76837500D03*
G04 #@! TO.P,U1,27,PB14*
G04 #@! TO.N,unconnected-(U1-PB14-Pad27)*
X151750000Y-76837500D03*
G04 #@! TO.P,U1,28,PB15*
G04 #@! TO.N,unconnected-(U1-PB15-Pad28)*
X151250000Y-76837500D03*
G04 #@! TO.P,U1,29,PA8*
G04 #@! TO.N,unconnected-(U1-PA8-Pad29)*
X150750000Y-76837500D03*
G04 #@! TO.P,U1,30,PA9*
G04 #@! TO.N,unconnected-(U1-PA9-Pad30)*
X150250000Y-76837500D03*
G04 #@! TO.P,U1,31,PA10*
G04 #@! TO.N,unconnected-(U1-PA10-Pad31)*
X149750000Y-76837500D03*
G04 #@! TO.P,U1,32,PA11*
G04 #@! TO.N,D-*
X149250000Y-76837500D03*
G04 #@! TO.P,U1,33,PA12*
G04 #@! TO.N,D+*
X148750000Y-76837500D03*
G04 #@! TO.P,U1,34,PA13*
G04 #@! TO.N,SWDIO*
X148250000Y-76837500D03*
G04 #@! TO.P,U1,35,VSS*
G04 #@! TO.N,GND*
X147750000Y-76837500D03*
G04 #@! TO.P,U1,36,VDDIO2*
G04 #@! TO.N,+3.3V*
X147250000Y-76837500D03*
D17*
G04 #@! TO.P,U1,37,PA14*
G04 #@! TO.N,SWDCLK*
X145837500Y-78250000D03*
G04 #@! TO.P,U1,38,PA15*
G04 #@! TO.N,unconnected-(U1-PA15-Pad38)*
X145837500Y-78750000D03*
G04 #@! TO.P,U1,39,PB3*
G04 #@! TO.N,ROW1*
X145837500Y-79250000D03*
G04 #@! TO.P,U1,40,PB4*
G04 #@! TO.N,ROW2*
X145837500Y-79750000D03*
G04 #@! TO.P,U1,41,PB5*
G04 #@! TO.N,ROW3*
X145837500Y-80250000D03*
G04 #@! TO.P,U1,42,PB6*
G04 #@! TO.N,ROW4*
X145837500Y-80750000D03*
G04 #@! TO.P,U1,43,PB7*
G04 #@! TO.N,unconnected-(U1-PB7-Pad43)*
X145837500Y-81250000D03*
G04 #@! TO.P,U1,44,BOOT0*
G04 #@! TO.N,Net-(U1-BOOT0)*
X145837500Y-81750000D03*
G04 #@! TO.P,U1,45,PB8*
G04 #@! TO.N,unconnected-(U1-PB8-Pad45)*
X145837500Y-82250000D03*
G04 #@! TO.P,U1,46,PB9*
G04 #@! TO.N,unconnected-(U1-PB9-Pad46)*
X145837500Y-82750000D03*
G04 #@! TO.P,U1,47,VSS*
G04 #@! TO.N,GND*
X145837500Y-83250000D03*
G04 #@! TO.P,U1,48,VDD*
G04 #@! TO.N,+3.3V*
X145837500Y-83750000D03*
G04 #@! TD*
D11*
G04 #@! TO.P,SW2F1,1,1*
G04 #@! TO.N,Net-(D2F1-A)*
X166820032Y-68000962D03*
G04 #@! TO.P,SW2F1,2,2*
G04 #@! TO.N,COLF*
X161446883Y-67266613D03*
G04 #@! TD*
G04 #@! TO.P,SW4G1,1,1*
G04 #@! TO.N,Net-(D4G1-A)*
X184313032Y-98512962D03*
G04 #@! TO.P,SW4G1,2,2*
G04 #@! TO.N,COLG*
X178939883Y-97778613D03*
G04 #@! TD*
D13*
G04 #@! TO.P,D2F1,1,K*
G04 #@! TO.N,ROW2*
X163062778Y-58033760D03*
G04 #@! TO.P,D2F1,2,A*
G04 #@! TO.N,Net-(D2F1-A)*
X165091222Y-57490240D03*
G04 #@! TD*
D11*
G04 #@! TO.P,SW2G1,1,1*
G04 #@! TO.N,Net-(D2G1-A)*
X183689032Y-61409962D03*
G04 #@! TO.P,SW2G1,2,2*
G04 #@! TO.N,COLG*
X178315883Y-60675613D03*
G04 #@! TD*
D12*
G04 #@! TO.P,D3C1,1,K*
G04 #@! TO.N,ROW3*
X97288778Y-58798240D03*
G04 #@! TO.P,D3C1,2,A*
G04 #@! TO.N,Net-(D3C1-A)*
X99317222Y-59341760D03*
G04 #@! TD*
G04 #@! TO.P,D3B1,1,K*
G04 #@! TO.N,ROW3*
X78866778Y-58003240D03*
G04 #@! TO.P,D3B1,2,A*
G04 #@! TO.N,Net-(D3B1-A)*
X80895222Y-58546760D03*
G04 #@! TD*
G04 #@! TO.P,D1A1,1,K*
G04 #@! TO.N,ROW1*
X67173778Y-32093240D03*
G04 #@! TO.P,D1A1,2,A*
G04 #@! TO.N,Net-(D1A1-A)*
X69202222Y-32636760D03*
G04 #@! TD*
D11*
G04 #@! TO.P,SW1H1,1,1*
G04 #@! TO.N,Net-(D1H1-A)*
X195641032Y-36466962D03*
G04 #@! TO.P,SW1H1,2,2*
G04 #@! TO.N,COLH*
X190267883Y-35732613D03*
G04 #@! TD*
G04 #@! TO.P,SW3A1,1,1*
G04 #@! TO.N,Net-(D3A1-A)*
X56644968Y-75445962D03*
G04 #@! TO.P,SW3A1,2,2*
G04 #@! TO.N,COLA*
X52358858Y-72123423D03*
G04 #@! TD*
G04 #@! TO.P,SW3F1,1,1*
G04 #@! TO.N,Net-(D3F1-A)*
X171220032Y-84420962D03*
G04 #@! TO.P,SW3F1,2,2*
G04 #@! TO.N,COLF*
X165846883Y-83686613D03*
G04 #@! TD*
D12*
G04 #@! TO.P,D4C1,1,K*
G04 #@! TO.N,ROW4*
X100546778Y-81411240D03*
G04 #@! TO.P,D4C1,2,A*
G04 #@! TO.N,Net-(D4C1-A)*
X102575222Y-81954760D03*
G04 #@! TD*
D11*
G04 #@! TO.P,SW2E1,1,1*
G04 #@! TO.N,Net-(D2E1-A)*
X133179968Y-68000962D03*
G04 #@! TO.P,SW2E1,2,2*
G04 #@! TO.N,COLE*
X128893858Y-64678423D03*
G04 #@! TD*
D18*
G04 #@! TO.P,R1,1*
G04 #@! TO.N,Net-(J1-CC1)*
X152000000Y-58087500D03*
G04 #@! TO.P,R1,2*
G04 #@! TO.N,GND*
X152000000Y-59912500D03*
G04 #@! TD*
D19*
G04 #@! TO.P,R3,1*
G04 #@! TO.N,Net-(U1-BOOT0)*
X149087500Y-90000000D03*
G04 #@! TO.P,R3,2*
G04 #@! TO.N,GND*
X150912500Y-90000000D03*
G04 #@! TD*
D12*
G04 #@! TO.P,D1B1,1,K*
G04 #@! TO.N,ROW1*
X87666778Y-25161240D03*
G04 #@! TO.P,D1B1,2,A*
G04 #@! TO.N,Net-(D1B1-A)*
X89695222Y-25704760D03*
G04 #@! TD*
G04 #@! TO.P,D1C1,1,K*
G04 #@! TO.N,ROW1*
X106088778Y-25956240D03*
G04 #@! TO.P,D1C1,2,A*
G04 #@! TO.N,Net-(D1C1-A)*
X108117222Y-26499760D03*
G04 #@! TD*
D11*
G04 #@! TO.P,SW3D1,1,1*
G04 #@! TO.N,Net-(D3D1-A)*
X111910968Y-77830962D03*
G04 #@! TO.P,SW3D1,2,2*
G04 #@! TO.N,COLD*
X107624858Y-74508423D03*
G04 #@! TD*
G04 #@! TO.P,SW3J1,1,1*
G04 #@! TO.N,Net-(D3J1-A)*
X243355032Y-75445962D03*
G04 #@! TO.P,SW3J1,2,2*
G04 #@! TO.N,COLJ*
X237981883Y-74711613D03*
G04 #@! TD*
G04 #@! TO.P,SW3B1,1,1*
G04 #@! TO.N,Net-(D3B1-A)*
X77137968Y-68512962D03*
G04 #@! TO.P,SW3B1,2,2*
G04 #@! TO.N,COLB*
X72851858Y-65190423D03*
G04 #@! TD*
G04 #@! TO.P,SW1F1,1,1*
G04 #@! TO.N,Net-(D1F1-A)*
X162420032Y-51579962D03*
G04 #@! TO.P,SW1F1,2,2*
G04 #@! TO.N,COLF*
X157046883Y-50845613D03*
G04 #@! TD*
G04 #@! TO.P,SW2D1,1,1*
G04 #@! TO.N,Net-(D2D1-A)*
X116310968Y-61409962D03*
G04 #@! TO.P,SW2D1,2,2*
G04 #@! TO.N,COLD*
X112024858Y-58087423D03*
G04 #@! TD*
D14*
G04 #@! TO.P,C6,1*
G04 #@! TO.N,+3.3V*
X143050000Y-75000000D03*
G04 #@! TO.P,C6,2*
G04 #@! TO.N,GND*
X144950000Y-75000000D03*
G04 #@! TD*
D11*
G04 #@! TO.P,SW4H1,1,1*
G04 #@! TO.N,Net-(D4H1-A)*
X201182032Y-91921962D03*
G04 #@! TO.P,SW4H1,2,2*
G04 #@! TO.N,COLH*
X195808883Y-91187613D03*
G04 #@! TD*
D13*
G04 #@! TO.P,D1J1,1,K*
G04 #@! TO.N,ROW1*
X230797778Y-32636760D03*
G04 #@! TO.P,D1J1,2,A*
G04 #@! TO.N,Net-(D1J1-A)*
X232826222Y-32093240D03*
G04 #@! TD*
D12*
G04 #@! TO.P,D3E1,1,K*
G04 #@! TO.N,ROW3*
X130508778Y-73911240D03*
G04 #@! TO.P,D3E1,2,A*
G04 #@! TO.N,Net-(D3E1-A)*
X132537222Y-74454760D03*
G04 #@! TD*
G04 #@! TO.P,D3D1,1,K*
G04 #@! TO.N,ROW3*
X113639778Y-67320240D03*
G04 #@! TO.P,D3D1,2,A*
G04 #@! TO.N,Net-(D3D1-A)*
X115668222Y-67863760D03*
G04 #@! TD*
G04 #@! TO.P,D2E1,1,K*
G04 #@! TO.N,ROW2*
X134908778Y-57490240D03*
G04 #@! TO.P,D2E1,2,A*
G04 #@! TO.N,Net-(D2E1-A)*
X136937222Y-58033760D03*
G04 #@! TD*
G04 #@! TO.P,D1E1,1,K*
G04 #@! TO.N,ROW1*
X139308778Y-41069240D03*
G04 #@! TO.P,D1E1,2,A*
G04 #@! TO.N,Net-(D1E1-A)*
X141337222Y-41612760D03*
G04 #@! TD*
D13*
G04 #@! TO.P,D2I1,1,K*
G04 #@! TO.N,ROW2*
X214704778Y-42125760D03*
G04 #@! TO.P,D2I1,2,A*
G04 #@! TO.N,Net-(D2I1-A)*
X216733222Y-41582240D03*
G04 #@! TD*
G04 #@! TO.P,D1F1,1,K*
G04 #@! TO.N,ROW1*
X158662778Y-41612760D03*
G04 #@! TO.P,D1F1,2,A*
G04 #@! TO.N,Net-(D1F1-A)*
X160691222Y-41069240D03*
G04 #@! TD*
D11*
G04 #@! TO.P,SW2B1,1,1*
G04 #@! TO.N,Net-(D2B1-A)*
X81536968Y-52092962D03*
G04 #@! TO.P,SW2B1,2,2*
G04 #@! TO.N,COLB*
X77250858Y-48770423D03*
G04 #@! TD*
D13*
G04 #@! TO.P,D1H1,1,K*
G04 #@! TO.N,ROW1*
X191882778Y-26499760D03*
G04 #@! TO.P,D1H1,2,A*
G04 #@! TO.N,Net-(D1H1-A)*
X193911222Y-25956240D03*
G04 #@! TD*
D11*
G04 #@! TO.P,SW1E1,1,1*
G04 #@! TO.N,Net-(D1E1-A)*
X137579968Y-51579962D03*
G04 #@! TO.P,SW1E1,2,2*
G04 #@! TO.N,COLE*
X133293858Y-48257423D03*
G04 #@! TD*
D13*
G04 #@! TO.P,D3I1,1,K*
G04 #@! TO.N,ROW3*
X219104778Y-58546760D03*
G04 #@! TO.P,D3I1,2,A*
G04 #@! TO.N,Net-(D3I1-A)*
X221133222Y-58003240D03*
G04 #@! TD*
G04 #@! TO.P,D3J1,1,K*
G04 #@! TO.N,ROW3*
X239597778Y-65478760D03*
G04 #@! TO.P,D3J1,2,A*
G04 #@! TO.N,Net-(D3J1-A)*
X241626222Y-64935240D03*
G04 #@! TD*
D10*
G04 #@! TO.P,C5,1*
G04 #@! TO.N,+3.3V*
X144950000Y-87000000D03*
G04 #@! TO.P,C5,2*
G04 #@! TO.N,GND*
X143050000Y-87000000D03*
G04 #@! TD*
D12*
G04 #@! TO.P,D2C1,1,K*
G04 #@! TO.N,ROW2*
X101688778Y-42377240D03*
G04 #@! TO.P,D2C1,2,A*
G04 #@! TO.N,Net-(D2C1-A)*
X103717222Y-42920760D03*
G04 #@! TD*
D20*
G04 #@! TO.P,J1,A1,GND*
G04 #@! TO.N,GND*
X153250000Y-37720000D03*
G04 #@! TO.P,J1,A4,VBUS*
G04 #@! TO.N,+5V*
X152450000Y-37720000D03*
D21*
G04 #@! TO.P,J1,A5,CC1*
G04 #@! TO.N,Net-(J1-CC1)*
X151250000Y-37720000D03*
G04 #@! TO.P,J1,A6,D+*
G04 #@! TO.N,D+*
X150250000Y-37720000D03*
G04 #@! TO.P,J1,A7,D-*
G04 #@! TO.N,D-*
X149750000Y-37720000D03*
G04 #@! TO.P,J1,A8,SBU1*
G04 #@! TO.N,unconnected-(J1-SBU1-PadA8)*
X148750000Y-37720000D03*
D20*
G04 #@! TO.P,J1,A9,VBUS*
G04 #@! TO.N,+5V*
X147550000Y-37720000D03*
G04 #@! TO.P,J1,A12,GND*
G04 #@! TO.N,GND*
X146750000Y-37720000D03*
G04 #@! TO.P,J1,B1,GND*
X146750000Y-37720000D03*
G04 #@! TO.P,J1,B4,VBUS*
G04 #@! TO.N,+5V*
X147550000Y-37720000D03*
D21*
G04 #@! TO.P,J1,B5,CC2*
G04 #@! TO.N,Net-(J1-CC2)*
X148250000Y-37720000D03*
G04 #@! TO.P,J1,B6,D+*
G04 #@! TO.N,D+*
X149250000Y-37720000D03*
G04 #@! TO.P,J1,B7,D-*
G04 #@! TO.N,D-*
X150750000Y-37720000D03*
G04 #@! TO.P,J1,B8,SBU2*
G04 #@! TO.N,unconnected-(J1-SBU2-PadB8)*
X151750000Y-37720000D03*
D20*
G04 #@! TO.P,J1,B9,VBUS*
G04 #@! TO.N,+5V*
X152450000Y-37720000D03*
G04 #@! TO.P,J1,B12,GND*
G04 #@! TO.N,GND*
X153250000Y-37720000D03*
D22*
G04 #@! TO.P,J1,S1,SHIELD*
X154320000Y-36805000D03*
D23*
X154320000Y-32625000D03*
D22*
X145680000Y-36805000D03*
D23*
X145680000Y-32625000D03*
G04 #@! TD*
D13*
G04 #@! TO.P,D3F1,1,K*
G04 #@! TO.N,ROW3*
X167462778Y-74454760D03*
G04 #@! TO.P,D3F1,2,A*
G04 #@! TO.N,Net-(D3F1-A)*
X169491222Y-73911240D03*
G04 #@! TD*
D24*
G04 #@! TO.P,J2,1,Pin_1*
G04 #@! TO.N,+3.3V*
X153810000Y-104475000D03*
G04 #@! TO.P,J2,2,Pin_2*
G04 #@! TO.N,SWDIO*
X151270000Y-104475000D03*
G04 #@! TO.P,J2,3,Pin_3*
G04 #@! TO.N,SWDCLK*
X148730000Y-104475000D03*
G04 #@! TO.P,J2,4,Pin_4*
G04 #@! TO.N,GND*
X146190000Y-104475000D03*
G04 #@! TD*
D11*
G04 #@! TO.P,SW3H1,1,1*
G04 #@! TO.N,Net-(D3H1-A)*
X204441032Y-69307962D03*
G04 #@! TO.P,SW3H1,2,2*
G04 #@! TO.N,COLH*
X199067883Y-68573613D03*
G04 #@! TD*
G04 #@! TO.P,SW2J1,1,1*
G04 #@! TO.N,Net-(D2J1-A)*
X238955032Y-59024962D03*
G04 #@! TO.P,SW2J1,2,2*
G04 #@! TO.N,COLJ*
X233581883Y-58290613D03*
G04 #@! TD*
D12*
G04 #@! TO.P,D2D1,1,K*
G04 #@! TO.N,ROW2*
X118039778Y-50899240D03*
G04 #@! TO.P,D2D1,2,A*
G04 #@! TO.N,Net-(D2D1-A)*
X120068222Y-51442760D03*
G04 #@! TD*
D13*
G04 #@! TO.P,D3G1,1,K*
G04 #@! TO.N,ROW3*
X184331778Y-67863760D03*
G04 #@! TO.P,D3G1,2,A*
G04 #@! TO.N,Net-(D3G1-A)*
X186360222Y-67320240D03*
G04 #@! TD*
D11*
G04 #@! TO.P,SW1B1,1,1*
G04 #@! TO.N,Net-(D1B1-A)*
X85936968Y-35671962D03*
G04 #@! TO.P,SW1B1,2,2*
G04 #@! TO.N,COLB*
X81650858Y-32349423D03*
G04 #@! TD*
G04 #@! TO.P,SW1D1,1,1*
G04 #@! TO.N,Net-(D1D1-A)*
X120710968Y-44988962D03*
G04 #@! TO.P,SW1D1,2,2*
G04 #@! TO.N,COLD*
X116424858Y-41666423D03*
G04 #@! TD*
D25*
G04 #@! TO.P,U2,1,GND*
G04 #@! TO.N,GND*
X149050000Y-69137500D03*
G04 #@! TO.P,U2,2,VO*
G04 #@! TO.N,+3.3V*
X150950000Y-69137500D03*
G04 #@! TO.P,U2,3,VI*
G04 #@! TO.N,+5V*
X150000000Y-66862500D03*
G04 #@! TD*
D11*
G04 #@! TO.P,SW2A1,1,1*
G04 #@! TO.N,Net-(D2A1-A)*
X61044968Y-59024962D03*
G04 #@! TO.P,SW2A1,2,2*
G04 #@! TO.N,COLA*
X56758858Y-55702423D03*
G04 #@! TD*
G04 #@! TO.P,SW1A1,1,1*
G04 #@! TO.N,Net-(D1A1-A)*
X65444968Y-42603962D03*
G04 #@! TO.P,SW1A1,2,2*
G04 #@! TO.N,COLA*
X61158858Y-39281423D03*
G04 #@! TD*
D12*
G04 #@! TO.P,D3A1,1,K*
G04 #@! TO.N,ROW3*
X58373778Y-64935240D03*
G04 #@! TO.P,D3A1,2,A*
G04 #@! TO.N,Net-(D3A1-A)*
X60402222Y-65478760D03*
G04 #@! TD*
D13*
G04 #@! TO.P,D4H1,1,K*
G04 #@! TO.N,ROW4*
X197424778Y-81954760D03*
G04 #@! TO.P,D4H1,2,A*
G04 #@! TO.N,Net-(D4H1-A)*
X199453222Y-81411240D03*
G04 #@! TD*
D11*
G04 #@! TO.P,SW3E1,1,1*
G04 #@! TO.N,Net-(D3E1-A)*
X128779968Y-84420962D03*
G04 #@! TO.P,SW3E1,2,2*
G04 #@! TO.N,COLE*
X124493858Y-81098423D03*
G04 #@! TD*
D13*
G04 #@! TO.P,D2J1,1,K*
G04 #@! TO.N,ROW2*
X235197778Y-49057760D03*
G04 #@! TO.P,D2J1,2,A*
G04 #@! TO.N,Net-(D2J1-A)*
X237226222Y-48514240D03*
G04 #@! TD*
D12*
G04 #@! TO.P,D1D1,1,K*
G04 #@! TO.N,ROW1*
X122439778Y-34479240D03*
G04 #@! TO.P,D1D1,2,A*
G04 #@! TO.N,Net-(D1D1-A)*
X124468222Y-35022760D03*
G04 #@! TD*
D13*
G04 #@! TO.P,D4F1,1,K*
G04 #@! TO.N,ROW4*
X163168778Y-93204760D03*
G04 #@! TO.P,D4F1,2,A*
G04 #@! TO.N,Net-(D4F1-A)*
X165197222Y-92661240D03*
G04 #@! TD*
D11*
G04 #@! TO.P,SW2C1,1,1*
G04 #@! TO.N,Net-(D2C1-A)*
X99958968Y-52887962D03*
G04 #@! TO.P,SW2C1,2,2*
G04 #@! TO.N,COLC*
X95672858Y-49565423D03*
G04 #@! TD*
G04 #@! TO.P,SW1C1,1,1*
G04 #@! TO.N,Net-(D1C1-A)*
X104358968Y-36466962D03*
G04 #@! TO.P,SW1C1,2,2*
G04 #@! TO.N,COLC*
X100072858Y-33144423D03*
G04 #@! TD*
G04 #@! TO.P,SW2H1,1,1*
G04 #@! TO.N,Net-(D2H1-A)*
X200041032Y-52887962D03*
G04 #@! TO.P,SW2H1,2,2*
G04 #@! TO.N,COLH*
X194667883Y-52153613D03*
G04 #@! TD*
D13*
G04 #@! TO.P,D1G1,1,K*
G04 #@! TO.N,ROW1*
X175531778Y-35022760D03*
G04 #@! TO.P,D1G1,2,A*
G04 #@! TO.N,Net-(D1G1-A)*
X177560222Y-34479240D03*
G04 #@! TD*
D11*
G04 #@! TO.P,SW1I1,1,1*
G04 #@! TO.N,Net-(D1I1-A)*
X214063032Y-35671962D03*
G04 #@! TO.P,SW1I1,2,2*
G04 #@! TO.N,COLI*
X208689883Y-34937613D03*
G04 #@! TD*
D26*
G04 #@! TO.N,GND*
X148000000Y-73500000D03*
X145000000Y-72000000D03*
X153000000Y-61000000D03*
X147000000Y-61750000D03*
X152000000Y-90000000D03*
X146000000Y-94500000D03*
X144000000Y-88500000D03*
X157500000Y-73000000D03*
G04 #@! TO.N,+3.3V*
X152975000Y-90975000D03*
X153000000Y-94500000D03*
G04 #@! TO.N,ROW1*
X141500000Y-77500000D03*
X143000000Y-77500000D03*
G04 #@! TO.N,ROW2*
X140500000Y-79000000D03*
X143000000Y-79000000D03*
G04 #@! TO.N,ROW3*
X139500000Y-80500000D03*
X143000000Y-80500000D03*
G04 #@! TO.N,ROW4*
X143000000Y-92500000D03*
X143000000Y-82000000D03*
G04 #@! TO.N,Net-(U1-BOOT0)*
X147500000Y-82500000D03*
X147500000Y-88000000D03*
G04 #@! TO.N,COLA*
X151500000Y-83500000D03*
G04 #@! TO.N,COLB*
X151000000Y-82500000D03*
G04 #@! TO.N,COLC*
X150500000Y-81500000D03*
G04 #@! TO.N,COLD*
X150000000Y-80500000D03*
G04 #@! TO.N,COLE*
X149500000Y-79500000D03*
G04 #@! TO.N,COLF*
X157662778Y-85250000D03*
G04 #@! TO.N,COLG*
X157500000Y-81500000D03*
G04 #@! TO.N,COLH*
X157500000Y-80500000D03*
G04 #@! TO.N,COLI*
X157481389Y-79481389D03*
G04 #@! TO.N,COLJ*
X157500000Y-78500000D03*
G04 #@! TO.N,SWDCLK*
X148500000Y-83500000D03*
X148500000Y-94500000D03*
G04 #@! TO.N,SWDIO*
X150000000Y-94500000D03*
X150000000Y-83500000D03*
G04 #@! TD*
D27*
G04 #@! TO.N,+5V*
X148245000Y-36100000D02*
X151755000Y-36100000D01*
X147550000Y-36795000D02*
X148245000Y-36100000D01*
X152450000Y-37720000D02*
X152450000Y-54950000D01*
X152450000Y-36795000D02*
X152450000Y-37720000D01*
X151755000Y-36100000D02*
X152450000Y-36795000D01*
X152450000Y-54950000D02*
X154000000Y-56500000D01*
X154000000Y-56500000D02*
X154000000Y-60950000D01*
X150950000Y-65912500D02*
X150000000Y-66862500D01*
X154000000Y-60950000D02*
X150950000Y-64000000D01*
X147550000Y-37720000D02*
X147550000Y-36795000D01*
X150950000Y-64000000D02*
X150950000Y-65912500D01*
G04 #@! TO.N,GND*
X152000000Y-90000000D02*
X150912500Y-90000000D01*
X147750000Y-76837500D02*
X147750000Y-76067590D01*
X147750000Y-76067590D02*
X146682410Y-75000000D01*
X156950000Y-73550000D02*
X156950000Y-75000000D01*
X154162500Y-78750000D02*
X154932410Y-78750000D01*
X145680000Y-36555000D02*
X146635000Y-35600000D01*
X153365000Y-35600000D02*
X154320000Y-36555000D01*
X144000000Y-88500000D02*
X144000000Y-87950000D01*
X149050000Y-69137500D02*
X149050000Y-72000000D01*
X153250000Y-55184314D02*
X154400000Y-56334314D01*
X145680000Y-36805000D02*
X145680000Y-36555000D01*
X145000000Y-74950000D02*
X144950000Y-75000000D01*
X157500000Y-73000000D02*
X156950000Y-73550000D01*
X146750000Y-37720000D02*
X146750000Y-61500000D01*
X147000000Y-61750000D02*
X148000000Y-60750000D01*
X153250000Y-37720000D02*
X153250000Y-55184314D01*
X144000000Y-87950000D02*
X143050000Y-87000000D01*
X149050000Y-64000000D02*
X149050000Y-69137500D01*
X145837500Y-83250000D02*
X145067590Y-83250000D01*
X155050000Y-87000000D02*
X153025000Y-89025000D01*
X154320000Y-36555000D02*
X154320000Y-36805000D01*
X145680000Y-32625000D02*
X145680000Y-36805000D01*
X146190000Y-104475000D02*
X146190000Y-94690000D01*
X148000000Y-73050000D02*
X149050000Y-72000000D01*
X145067590Y-83250000D02*
X143050000Y-85267590D01*
X153000000Y-61000000D02*
X153000000Y-60912500D01*
X146190000Y-94690000D02*
X146000000Y-94500000D01*
X145680000Y-36805000D02*
X145835000Y-36805000D01*
X153025000Y-89025000D02*
X152050000Y-90000000D01*
X148000000Y-60750000D02*
X148000000Y-59912500D01*
X143050000Y-85267590D02*
X143050000Y-87000000D01*
X151751904Y-87000000D02*
X155050000Y-87000000D01*
X148000000Y-73500000D02*
X148000000Y-73050000D01*
X149050000Y-64000000D02*
X149050000Y-62862500D01*
X153000000Y-60912500D02*
X152000000Y-59912500D01*
X146682410Y-75000000D02*
X144950000Y-75000000D01*
X149050000Y-62862500D02*
X152000000Y-59912500D01*
X145000000Y-72000000D02*
X145000000Y-74950000D01*
X153250000Y-37720000D02*
X153405000Y-37720000D01*
X154932410Y-78750000D02*
X156950000Y-76732410D01*
X156950000Y-76732410D02*
X156950000Y-75000000D01*
X154400000Y-63787500D02*
X149050000Y-69137500D01*
X154320000Y-36805000D02*
X154320000Y-32625000D01*
X152050000Y-90000000D02*
X152000000Y-90000000D01*
X146750000Y-61500000D02*
X147000000Y-61750000D01*
X150750000Y-85162500D02*
X150750000Y-85998096D01*
X153405000Y-37720000D02*
X154320000Y-36805000D01*
X146635000Y-35600000D02*
X153365000Y-35600000D01*
X145835000Y-36805000D02*
X146750000Y-37720000D01*
X154400000Y-56334314D02*
X154400000Y-63787500D01*
X150750000Y-85998096D02*
X151751904Y-87000000D01*
G04 #@! TO.N,+3.3V*
X144950000Y-88662500D02*
X144950000Y-87000000D01*
X158262778Y-72762778D02*
X158262778Y-85687222D01*
X155925000Y-85975000D02*
X156950000Y-87000000D01*
X145837500Y-83750000D02*
X144950000Y-84637500D01*
X151250000Y-85932410D02*
X151517590Y-86200000D01*
X154162500Y-78250000D02*
X155050000Y-77362500D01*
X144950000Y-87725000D02*
X148225000Y-91000000D01*
X155050000Y-72950000D02*
X156000000Y-72000000D01*
X148225000Y-91000000D02*
X152950000Y-91000000D01*
X144950000Y-87000000D02*
X144950000Y-87725000D01*
X147250000Y-86250000D02*
X147250000Y-85162500D01*
X153800000Y-86200000D02*
X154025000Y-85975000D01*
X157500000Y-72000000D02*
X158262778Y-72762778D01*
X144950000Y-84637500D02*
X144950000Y-87000000D01*
X155050000Y-75000000D02*
X155050000Y-72950000D01*
X158262778Y-85687222D02*
X156950000Y-87000000D01*
X151250000Y-85162500D02*
X151250000Y-85932410D01*
X143050000Y-75000000D02*
X142250000Y-75800000D01*
X150950000Y-72000000D02*
X153950000Y-75000000D01*
X144887500Y-76837500D02*
X143050000Y-75000000D01*
X152975000Y-90975000D02*
X155975000Y-87975000D01*
X146500000Y-87000000D02*
X147250000Y-86250000D01*
X143000000Y-89500000D02*
X144112500Y-89500000D01*
X147250000Y-76837500D02*
X144887500Y-76837500D01*
X153950000Y-75000000D02*
X155050000Y-75000000D01*
X144950000Y-87000000D02*
X146500000Y-87000000D01*
X156000000Y-72000000D02*
X157500000Y-72000000D01*
X155050000Y-77362500D02*
X155050000Y-75000000D01*
X151517590Y-86200000D02*
X153800000Y-86200000D01*
X142250000Y-88750000D02*
X143000000Y-89500000D01*
X155975000Y-87975000D02*
X156950000Y-87000000D01*
X152950000Y-91000000D02*
X152975000Y-90975000D01*
X153810000Y-104475000D02*
X153810000Y-95310000D01*
X144112500Y-89500000D02*
X144950000Y-88662500D01*
X150950000Y-69137500D02*
X150950000Y-72000000D01*
X142250000Y-75800000D02*
X142250000Y-88750000D01*
X154025000Y-85975000D02*
X155925000Y-85975000D01*
X153810000Y-95310000D02*
X153000000Y-94500000D01*
G04 #@! TO.N,Net-(D1A1-A)*
X69202222Y-38846708D02*
X65444968Y-42603962D01*
X69202222Y-32636760D02*
X69202222Y-38846708D01*
G04 #@! TO.N,ROW1*
X106088778Y-25956240D02*
X106272490Y-25772528D01*
X222751340Y-24590322D02*
X230797778Y-32636760D01*
X74105778Y-25161240D02*
X87666778Y-25161240D01*
X141961173Y-41381252D02*
X141961173Y-73038827D01*
X139492490Y-40885528D02*
X141465449Y-40885528D01*
X122439778Y-34479240D02*
X122623490Y-34295528D01*
X192997216Y-25385322D02*
X209985340Y-25385322D01*
X122623490Y-34295528D02*
X132535066Y-34295528D01*
X139308778Y-41069240D02*
X139492490Y-40885528D01*
X175531778Y-35022760D02*
X184054778Y-26499760D01*
X87850490Y-24977528D02*
X105110066Y-24977528D01*
X87666778Y-25161240D02*
X87850490Y-24977528D01*
X105110066Y-24977528D02*
X106088778Y-25956240D01*
X141500000Y-88868628D02*
X144636132Y-92004760D01*
X158662778Y-41612760D02*
X165252778Y-35022760D01*
X209985340Y-25385322D02*
X210304778Y-25704760D01*
X211419216Y-24590322D02*
X222751340Y-24590322D01*
X141961173Y-73038827D02*
X141500000Y-73500000D01*
X145837500Y-79250000D02*
X144750000Y-79250000D01*
X113733066Y-25772528D02*
X122439778Y-34479240D01*
X106272490Y-25772528D02*
X113733066Y-25772528D01*
X165252778Y-35022760D02*
X175531778Y-35022760D01*
X67173778Y-32093240D02*
X74105778Y-25161240D01*
X141465449Y-40885528D02*
X141961173Y-41381252D01*
X132535066Y-34295528D02*
X139308778Y-41069240D01*
X141500000Y-73500000D02*
X141500000Y-77500000D01*
X158662778Y-86796966D02*
X158662778Y-41612760D01*
X144636132Y-92004760D02*
X153454984Y-92004760D01*
X141500000Y-77500000D02*
X141500000Y-88868628D01*
X210304778Y-25704760D02*
X211419216Y-24590322D01*
X153454984Y-92004760D02*
X158662778Y-86796966D01*
X184054778Y-26499760D02*
X191882778Y-26499760D01*
X144750000Y-79250000D02*
X143000000Y-77500000D01*
X191882778Y-26499760D02*
X192997216Y-25385322D01*
G04 #@! TO.N,Net-(D1B1-A)*
X89695222Y-31913708D02*
X85936968Y-35671962D01*
X89695222Y-25704760D02*
X89695222Y-31913708D01*
G04 #@! TO.N,Net-(D1C1-A)*
X108117222Y-32708708D02*
X104358968Y-36466962D01*
X108117222Y-26499760D02*
X108117222Y-32708708D01*
G04 #@! TO.N,Net-(D1D1-A)*
X124468222Y-41231708D02*
X120710968Y-44988962D01*
X124468222Y-35022760D02*
X124468222Y-41231708D01*
G04 #@! TO.N,Net-(D1E1-A)*
X141337222Y-41612760D02*
X141337222Y-47822708D01*
X141337222Y-47822708D02*
X137579968Y-51579962D01*
G04 #@! TO.N,Net-(D1F1-A)*
X160691222Y-41069240D02*
X162957500Y-43335518D01*
X162957500Y-51042494D02*
X162420032Y-51579962D01*
X162957500Y-43335518D02*
X162957500Y-51042494D01*
G04 #@! TO.N,Net-(D1G1-A)*
X179826500Y-36745518D02*
X179826500Y-44451494D01*
X177560222Y-34479240D02*
X179826500Y-36745518D01*
X179826500Y-44451494D02*
X179289032Y-44988962D01*
G04 #@! TO.N,Net-(D1H1-A)*
X193911222Y-25956240D02*
X196178500Y-28223518D01*
X196178500Y-35929494D02*
X195641032Y-36466962D01*
X196178500Y-28223518D02*
X196178500Y-35929494D01*
G04 #@! TO.N,Net-(D1I1-A)*
X214600500Y-35134494D02*
X214063032Y-35671962D01*
X214600500Y-27428518D02*
X214600500Y-35134494D01*
X212333222Y-25161240D02*
X214600500Y-27428518D01*
G04 #@! TO.N,Net-(D1J1-A)*
X235092500Y-34359518D02*
X235092500Y-42066494D01*
X232826222Y-32093240D02*
X235092500Y-34359518D01*
X235092500Y-42066494D02*
X234555032Y-42603962D01*
G04 #@! TO.N,ROW2*
X163062778Y-82962651D02*
X163062778Y-58033760D01*
X215819216Y-41011322D02*
X223511322Y-41011322D01*
X83450490Y-41398528D02*
X100710066Y-41398528D01*
X153620669Y-92404760D02*
X163062778Y-82962651D01*
X145837500Y-79750000D02*
X143750000Y-79750000D01*
X101688778Y-42377240D02*
X101872490Y-42193528D01*
X140500000Y-88434314D02*
X144470446Y-92404760D01*
X197397216Y-41806322D02*
X214385340Y-41806322D01*
X214385340Y-41806322D02*
X214704778Y-42125760D01*
X128290380Y-50871842D02*
X134908778Y-57490240D01*
X214704778Y-42125760D02*
X215819216Y-41011322D01*
X140500000Y-79000000D02*
X140500000Y-88434314D01*
X69705778Y-41582240D02*
X83266778Y-41582240D01*
X179931778Y-51442760D02*
X188453778Y-42920760D01*
X231557760Y-49057760D02*
X235197778Y-49057760D01*
X109334066Y-42193528D02*
X118039778Y-50899240D01*
X135092490Y-57306528D02*
X137065449Y-57306528D01*
X163062778Y-58033760D02*
X169653778Y-51442760D01*
X223511322Y-41011322D02*
X231557760Y-49057760D01*
X196282778Y-42920760D02*
X197397216Y-41806322D01*
X62773778Y-48514240D02*
X69705778Y-41582240D01*
X101872490Y-42193528D02*
X109334066Y-42193528D01*
X138000000Y-76500000D02*
X140500000Y-79000000D01*
X137065449Y-57306528D02*
X138000000Y-58241079D01*
X169653778Y-51442760D02*
X179931778Y-51442760D01*
X188453778Y-42920760D02*
X196282778Y-42920760D01*
X143750000Y-79750000D02*
X143000000Y-79000000D01*
X118067176Y-50871842D02*
X128290380Y-50871842D01*
X138000000Y-58241079D02*
X138000000Y-76500000D01*
X134908778Y-57490240D02*
X135092490Y-57306528D01*
X144470446Y-92404760D02*
X153620669Y-92404760D01*
X118039778Y-50899240D02*
X118067176Y-50871842D01*
X83266778Y-41582240D02*
X83450490Y-41398528D01*
X100710066Y-41398528D02*
X101688778Y-42377240D01*
G04 #@! TO.N,Net-(D2A1-A)*
X64802222Y-55267708D02*
X61044968Y-59024962D01*
X64802222Y-49057760D02*
X64802222Y-55267708D01*
G04 #@! TO.N,Net-(D2B1-A)*
X85295222Y-42125760D02*
X85295222Y-48334708D01*
X85295222Y-48334708D02*
X81536968Y-52092962D01*
G04 #@! TO.N,Net-(D2C1-A)*
X103717222Y-49129708D02*
X99958968Y-52887962D01*
X103717222Y-42920760D02*
X103717222Y-49129708D01*
G04 #@! TO.N,Net-(D2D1-A)*
X120068222Y-51442760D02*
X120068222Y-57652708D01*
X120068222Y-57652708D02*
X116310968Y-61409962D01*
G04 #@! TO.N,Net-(D2E1-A)*
X136937222Y-64243708D02*
X133179968Y-68000962D01*
X136937222Y-58033760D02*
X136937222Y-64243708D01*
G04 #@! TO.N,Net-(D2F1-A)*
X165091222Y-57490240D02*
X167357500Y-59756518D01*
X167357500Y-67463494D02*
X166820032Y-68000962D01*
X167357500Y-59756518D02*
X167357500Y-67463494D01*
G04 #@! TO.N,Net-(D2G1-A)*
X184226500Y-60872494D02*
X183689032Y-61409962D01*
X184226500Y-53165518D02*
X184226500Y-60872494D01*
X181960222Y-50899240D02*
X184226500Y-53165518D01*
G04 #@! TO.N,Net-(D2H1-A)*
X198311222Y-42377240D02*
X200578500Y-44644518D01*
X200578500Y-52350494D02*
X200041032Y-52887962D01*
X200578500Y-44644518D02*
X200578500Y-52350494D01*
G04 #@! TO.N,Net-(D2I1-A)*
X216733222Y-41582240D02*
X219000500Y-43849518D01*
X219000500Y-51555494D02*
X218463032Y-52092962D01*
X219000500Y-43849518D02*
X219000500Y-51555494D01*
G04 #@! TO.N,Net-(D2J1-A)*
X237226222Y-48514240D02*
X239500000Y-50788018D01*
X239500000Y-50788018D02*
X239500000Y-58479994D01*
X239500000Y-58479994D02*
X238955032Y-59024962D01*
G04 #@! TO.N,Net-(D3A1-A)*
X60402222Y-71688708D02*
X56644968Y-75445962D01*
X60402222Y-65478760D02*
X60402222Y-71688708D01*
G04 #@! TO.N,ROW3*
X144304760Y-92804760D02*
X153786354Y-92804760D01*
X218785340Y-58227322D02*
X219104778Y-58546760D01*
X123734066Y-67136528D02*
X130508778Y-73911240D01*
X227432322Y-57432322D02*
X235478760Y-65478760D01*
X113639778Y-67320240D02*
X113823490Y-67136528D01*
X184331778Y-67863760D02*
X192853778Y-59341760D01*
X96466380Y-57975842D02*
X97288778Y-58798240D01*
X146607410Y-80250000D02*
X143250000Y-80250000D01*
X167462778Y-74454760D02*
X174053778Y-67863760D01*
X200682778Y-59341760D02*
X201797216Y-58227322D01*
X219104778Y-58546760D02*
X220219216Y-57432322D01*
X130508778Y-73911240D02*
X130692490Y-73727528D01*
X134227528Y-73727528D02*
X139500000Y-79000000D01*
X65305778Y-58003240D02*
X78866778Y-58003240D01*
X201797216Y-58227322D02*
X218785340Y-58227322D01*
X139500000Y-80500000D02*
X139500000Y-88000000D01*
X58373778Y-64935240D02*
X65305778Y-58003240D01*
X113823490Y-67136528D02*
X123734066Y-67136528D01*
X79496760Y-58003240D02*
X79524158Y-57975842D01*
X130692490Y-73727528D02*
X134227528Y-73727528D01*
X143250000Y-80250000D02*
X143000000Y-80500000D01*
X174053778Y-67863760D02*
X184331778Y-67863760D01*
X220219216Y-57432322D02*
X227432322Y-57432322D01*
X79524158Y-57975842D02*
X96466380Y-57975842D01*
X153786354Y-92804760D02*
X167462778Y-79128336D01*
X139500000Y-88000000D02*
X144304760Y-92804760D01*
X139500000Y-79000000D02*
X139500000Y-80500000D01*
X192853778Y-59341760D02*
X200682778Y-59341760D01*
X78866778Y-58003240D02*
X79496760Y-58003240D01*
X97288778Y-58798240D02*
X97472490Y-58614528D01*
X97472490Y-58614528D02*
X104934066Y-58614528D01*
X167462778Y-79128336D02*
X167462778Y-74454760D01*
X145837500Y-80250000D02*
X146607410Y-80250000D01*
X235478760Y-65478760D02*
X239597778Y-65478760D01*
X104934066Y-58614528D02*
X113639778Y-67320240D01*
G04 #@! TO.N,Net-(D3B1-A)*
X80895222Y-58546760D02*
X80895222Y-64755708D01*
X80895222Y-64755708D02*
X77137968Y-68512962D01*
G04 #@! TO.N,Net-(D3C1-A)*
X99317222Y-65549708D02*
X95558968Y-69307962D01*
X99317222Y-59341760D02*
X99317222Y-65549708D01*
G04 #@! TO.N,Net-(D3D1-A)*
X115668222Y-67863760D02*
X115668222Y-74073708D01*
X115668222Y-74073708D02*
X111910968Y-77830962D01*
G04 #@! TO.N,Net-(D3E1-A)*
X132537222Y-80663708D02*
X128779968Y-84420962D01*
X132537222Y-74454760D02*
X132537222Y-80663708D01*
G04 #@! TO.N,Net-(D3F1-A)*
X171757500Y-76177518D02*
X171757500Y-83883494D01*
X171757500Y-83883494D02*
X171220032Y-84420962D01*
X169491222Y-73911240D02*
X171757500Y-76177518D01*
G04 #@! TO.N,Net-(D3G1-A)*
X188626500Y-69586518D02*
X188626500Y-77293494D01*
X186360222Y-67320240D02*
X188626500Y-69586518D01*
X188626500Y-77293494D02*
X188089032Y-77830962D01*
G04 #@! TO.N,Net-(D3H1-A)*
X202711222Y-58798240D02*
X204978500Y-61065518D01*
X204978500Y-68770494D02*
X204441032Y-69307962D01*
X204978500Y-61065518D02*
X204978500Y-68770494D01*
G04 #@! TO.N,Net-(D3I1-A)*
X221133222Y-58003240D02*
X223500000Y-60370018D01*
X223500000Y-67875994D02*
X222863032Y-68512962D01*
X223500000Y-60370018D02*
X223500000Y-67875994D01*
G04 #@! TO.N,Net-(D3J1-A)*
X243892500Y-74908494D02*
X243355032Y-75445962D01*
X243892500Y-67201518D02*
X243892500Y-74908494D01*
X241626222Y-64935240D02*
X243892500Y-67201518D01*
G04 #@! TO.N,ROW4*
X100546778Y-81411240D02*
X100730490Y-81227528D01*
X129960066Y-87818528D02*
X134802778Y-92661240D01*
X144250000Y-80750000D02*
X143000000Y-82000000D01*
X117415778Y-88002240D02*
X117599490Y-87818528D01*
X163168778Y-93204760D02*
X167827778Y-88545760D01*
X134802778Y-92661240D02*
X134964018Y-92500000D01*
X145837500Y-80750000D02*
X144250000Y-80750000D01*
X143704760Y-93204760D02*
X163168778Y-93204760D01*
X187146778Y-81954760D02*
X197424778Y-81954760D01*
X100730490Y-81227528D02*
X110641066Y-81227528D01*
X110641066Y-81227528D02*
X117415778Y-88002240D01*
X143000000Y-92500000D02*
X143704760Y-93204760D01*
X180555778Y-88545760D02*
X187146778Y-81954760D01*
X167827778Y-88545760D02*
X180555778Y-88545760D01*
X117599490Y-87818528D02*
X129960066Y-87818528D01*
X134964018Y-92500000D02*
X143000000Y-92500000D01*
G04 #@! TO.N,Net-(D4C1-A)*
X102575222Y-81954760D02*
X102575222Y-88164708D01*
X102575222Y-88164708D02*
X98817968Y-91921962D01*
G04 #@! TO.N,Net-(D4D1-A)*
X119444222Y-88545760D02*
X119444222Y-94755708D01*
X119444222Y-94755708D02*
X115686968Y-98512962D01*
G04 #@! TO.N,Net-(D4E1-A)*
X136831222Y-93204760D02*
X136831222Y-99413708D01*
X136831222Y-99413708D02*
X133072968Y-103171962D01*
G04 #@! TO.N,Net-(D4F1-A)*
X165197222Y-92661240D02*
X167464500Y-94928518D01*
X167464500Y-94928518D02*
X167464500Y-102634494D01*
X167464500Y-102634494D02*
X166927032Y-103171962D01*
G04 #@! TO.N,Net-(D4G1-A)*
X184850500Y-90268518D02*
X184850500Y-97975494D01*
X184850500Y-97975494D02*
X184313032Y-98512962D01*
X182584222Y-88002240D02*
X184850500Y-90268518D01*
G04 #@! TO.N,Net-(D4H1-A)*
X201719500Y-91384494D02*
X201182032Y-91921962D01*
X201719500Y-83677518D02*
X201719500Y-91384494D01*
X199453222Y-81411240D02*
X201719500Y-83677518D01*
G04 #@! TO.N,D-*
X150750000Y-38695000D02*
X149750000Y-39695000D01*
X147400000Y-63600000D02*
X149750000Y-61250000D01*
X149750000Y-37720000D02*
X149750000Y-40000000D01*
X149750000Y-39695000D02*
X149750000Y-40000000D01*
X149250000Y-76837500D02*
X149250000Y-75684314D01*
X150750000Y-37720000D02*
X150750000Y-38695000D01*
X147400000Y-73834314D02*
X147400000Y-63600000D01*
X149250000Y-75684314D02*
X147400000Y-73834314D01*
X149750000Y-61250000D02*
X149750000Y-40000000D01*
G04 #@! TO.N,Net-(J1-CC1)*
X151250000Y-37720000D02*
X151250000Y-57337500D01*
X151250000Y-57337500D02*
X152000000Y-58087500D01*
G04 #@! TO.N,D+*
X147000000Y-74000000D02*
X147000000Y-63434314D01*
X150005000Y-36500000D02*
X150250000Y-36745000D01*
X147000000Y-63434314D02*
X149250000Y-61184314D01*
X149250000Y-37720000D02*
X149250000Y-36750000D01*
X149500000Y-36500000D02*
X150005000Y-36500000D01*
X149250000Y-36750000D02*
X149500000Y-36500000D01*
X148750000Y-75750000D02*
X147000000Y-74000000D01*
X148750000Y-76837500D02*
X148750000Y-75750000D01*
X149250000Y-61184314D02*
X149250000Y-37720000D01*
X150250000Y-36745000D02*
X150250000Y-37720000D01*
G04 #@! TO.N,Net-(J1-CC2)*
X148250000Y-37720000D02*
X148250000Y-57837500D01*
X148250000Y-57837500D02*
X148000000Y-58087500D01*
G04 #@! TO.N,Net-(U1-BOOT0)*
X146750000Y-81750000D02*
X147500000Y-82500000D01*
X149087500Y-89587500D02*
X149087500Y-90000000D01*
X145837500Y-81750000D02*
X146750000Y-81750000D01*
X147500000Y-88000000D02*
X149087500Y-89587500D01*
G04 #@! TO.N,COLA*
X151750000Y-83750000D02*
X151500000Y-83500000D01*
X154162500Y-83750000D02*
X151750000Y-83750000D01*
G04 #@! TO.N,COLB*
X151348529Y-82500000D02*
X151000000Y-82500000D01*
X154162500Y-83250000D02*
X152098529Y-83250000D01*
X152098529Y-83250000D02*
X151348529Y-82500000D01*
G04 #@! TO.N,COLC*
X152164215Y-82750000D02*
X150914215Y-81500000D01*
X150914215Y-81500000D02*
X150500000Y-81500000D01*
X154162500Y-82750000D02*
X152164215Y-82750000D01*
G04 #@! TO.N,COLD*
X152229901Y-82250000D02*
X150479901Y-80500000D01*
X154162500Y-82250000D02*
X152229901Y-82250000D01*
X150479901Y-80500000D02*
X150000000Y-80500000D01*
G04 #@! TO.N,COLE*
X152295587Y-81750000D02*
X150045587Y-79500000D01*
X154162500Y-81750000D02*
X152295587Y-81750000D01*
X150045587Y-79500000D02*
X149500000Y-79500000D01*
G04 #@! TO.N,COLF*
X155226164Y-81250000D02*
X154162500Y-81250000D01*
X157662778Y-85250000D02*
X157662778Y-83686614D01*
X157662778Y-83686614D02*
X155226164Y-81250000D01*
G04 #@! TO.N,COLG*
X156750000Y-80750000D02*
X154162500Y-80750000D01*
X157500000Y-81500000D02*
X156750000Y-80750000D01*
G04 #@! TO.N,COLH*
X157250000Y-80250000D02*
X154162500Y-80250000D01*
X157500000Y-80500000D02*
X157250000Y-80250000D01*
G04 #@! TO.N,COLI*
X157481389Y-79481389D02*
X157212778Y-79750000D01*
X157212778Y-79750000D02*
X154162500Y-79750000D01*
G04 #@! TO.N,COLJ*
X157500000Y-78500000D02*
X156750000Y-79250000D01*
X156750000Y-79250000D02*
X154162500Y-79250000D01*
G04 #@! TO.N,SWDCLK*
X147500000Y-79142590D02*
X147500000Y-81651471D01*
X145837500Y-78250000D02*
X146607410Y-78250000D01*
X148730000Y-94730000D02*
X148730000Y-104475000D01*
X148500000Y-82651471D02*
X148500000Y-83500000D01*
X147500000Y-81651471D02*
X148500000Y-82651471D01*
X148500000Y-94500000D02*
X148730000Y-94730000D01*
X146607410Y-78250000D02*
X147500000Y-79142590D01*
G04 #@! TO.N,SWDIO*
X150000000Y-94500000D02*
X151270000Y-95770000D01*
X151270000Y-95770000D02*
X151270000Y-104475000D01*
X148250000Y-81750000D02*
X150000000Y-83500000D01*
X148250000Y-76837500D02*
X148250000Y-81750000D01*
G04 #@! TD*
M02*
