G04 #@! TF.GenerationSoftware,KiCad,Pcbnew,8.0.6+1*
G04 #@! TF.CreationDate,2024-11-04T17:59:47+01:00*
G04 #@! TF.ProjectId,keymini,6b65796d-696e-4692-9e6b-696361645f70,rev?*
G04 #@! TF.SameCoordinates,Original*
G04 #@! TF.FileFunction,Paste,Top*
G04 #@! TF.FilePolarity,Positive*
%FSLAX46Y46*%
G04 Gerber Fmt 4.6, Leading zero omitted, Abs format (unit mm)*
G04 Created by KiCad (PCBNEW 8.0.6+1) date 2024-11-04 17:59:47*
%MOMM*%
%LPD*%
G01*
G04 APERTURE LIST*
G04 Aperture macros list*
%AMRoundRect*
0 Rectangle with rounded corners*
0 $1 Rounding radius*
0 $2 $3 $4 $5 $6 $7 $8 $9 X,Y pos of 4 corners*
0 Add a 4 corners polygon primitive as box body*
4,1,4,$2,$3,$4,$5,$6,$7,$8,$9,$2,$3,0*
0 Add four circle primitives for the rounded corners*
1,1,$1+$1,$2,$3*
1,1,$1+$1,$4,$5*
1,1,$1+$1,$6,$7*
1,1,$1+$1,$8,$9*
0 Add four rect primitives between the rounded corners*
20,1,$1+$1,$2,$3,$4,$5,0*
20,1,$1+$1,$4,$5,$6,$7,0*
20,1,$1+$1,$6,$7,$8,$9,0*
20,1,$1+$1,$8,$9,$2,$3,0*%
G04 Aperture macros list end*
%ADD10RoundRect,0.250000X0.250000X0.475000X-0.250000X0.475000X-0.250000X-0.475000X0.250000X-0.475000X0*%
%ADD11RoundRect,0.112500X-0.210228X-0.060138X0.151994X-0.157195X0.210228X0.060138X-0.151994X0.157195X0*%
%ADD12RoundRect,0.112500X-0.151994X-0.157195X0.210228X-0.060138X0.151994X0.157195X-0.210228X0.060138X0*%
%ADD13RoundRect,0.250000X-0.250000X-0.475000X0.250000X-0.475000X0.250000X0.475000X-0.250000X0.475000X0*%
%ADD14RoundRect,0.250000X0.450000X-0.262500X0.450000X0.262500X-0.450000X0.262500X-0.450000X-0.262500X0*%
%ADD15RoundRect,0.075000X0.075000X-0.662500X0.075000X0.662500X-0.075000X0.662500X-0.075000X-0.662500X0*%
%ADD16RoundRect,0.075000X0.662500X-0.075000X0.662500X0.075000X-0.662500X0.075000X-0.662500X-0.075000X0*%
%ADD17RoundRect,0.250000X-0.450000X0.262500X-0.450000X-0.262500X0.450000X-0.262500X0.450000X0.262500X0*%
%ADD18RoundRect,0.250000X-0.262500X-0.450000X0.262500X-0.450000X0.262500X0.450000X-0.262500X0.450000X0*%
%ADD19R,0.600000X1.450000*%
%ADD20R,0.300000X1.450000*%
%ADD21R,1.000000X2.500000*%
%ADD22RoundRect,0.150000X0.150000X-0.512500X0.150000X0.512500X-0.150000X0.512500X-0.150000X-0.512500X0*%
G04 APERTURE END LIST*
D10*
G04 #@! TO.C,C2*
X150950000Y-72000000D03*
X149050000Y-72000000D03*
G04 #@! TD*
D11*
G04 #@! TO.C,D2A1*
X62773778Y-48514240D03*
X64802222Y-49057760D03*
G04 #@! TD*
G04 #@! TO.C,D4D1*
X117415778Y-88002240D03*
X119444222Y-88545760D03*
G04 #@! TD*
D12*
G04 #@! TO.C,D2H1*
X196282778Y-42920760D03*
X198311222Y-42377240D03*
G04 #@! TD*
G04 #@! TO.C,D3H1*
X200682778Y-59341760D03*
X202711222Y-58798240D03*
G04 #@! TD*
D11*
G04 #@! TO.C,D4E1*
X134802778Y-92661240D03*
X136831222Y-93204760D03*
G04 #@! TD*
D10*
G04 #@! TO.C,C4*
X156950000Y-87000000D03*
X155050000Y-87000000D03*
G04 #@! TD*
D13*
G04 #@! TO.C,C1*
X149050000Y-64000000D03*
X150950000Y-64000000D03*
G04 #@! TD*
D12*
G04 #@! TO.C,D4G1*
X180555778Y-88545760D03*
X182584222Y-88002240D03*
G04 #@! TD*
D13*
G04 #@! TO.C,C3*
X155050000Y-75000000D03*
X156950000Y-75000000D03*
G04 #@! TD*
D12*
G04 #@! TO.C,D2G1*
X179931778Y-51442760D03*
X181960222Y-50899240D03*
G04 #@! TD*
G04 #@! TO.C,D1I1*
X210304778Y-25704760D03*
X212333222Y-25161240D03*
G04 #@! TD*
D11*
G04 #@! TO.C,D2B1*
X83266778Y-41582240D03*
X85295222Y-42125760D03*
G04 #@! TD*
D14*
G04 #@! TO.C,R2*
X148000000Y-59912500D03*
X148000000Y-58087500D03*
G04 #@! TD*
D15*
G04 #@! TO.C,U1*
X147250000Y-85162500D03*
X147750000Y-85162500D03*
X148250000Y-85162500D03*
X148750000Y-85162500D03*
X149250000Y-85162500D03*
X149750000Y-85162500D03*
X150250000Y-85162500D03*
X150750000Y-85162500D03*
X151250000Y-85162500D03*
X151750000Y-85162500D03*
X152250000Y-85162500D03*
X152750000Y-85162500D03*
D16*
X154162500Y-83750000D03*
X154162500Y-83250000D03*
X154162500Y-82750000D03*
X154162500Y-82250000D03*
X154162500Y-81750000D03*
X154162500Y-81250000D03*
X154162500Y-80750000D03*
X154162500Y-80250000D03*
X154162500Y-79750000D03*
X154162500Y-79250000D03*
X154162500Y-78750000D03*
X154162500Y-78250000D03*
D15*
X152750000Y-76837500D03*
X152250000Y-76837500D03*
X151750000Y-76837500D03*
X151250000Y-76837500D03*
X150750000Y-76837500D03*
X150250000Y-76837500D03*
X149750000Y-76837500D03*
X149250000Y-76837500D03*
X148750000Y-76837500D03*
X148250000Y-76837500D03*
X147750000Y-76837500D03*
X147250000Y-76837500D03*
D16*
X145837500Y-78250000D03*
X145837500Y-78750000D03*
X145837500Y-79250000D03*
X145837500Y-79750000D03*
X145837500Y-80250000D03*
X145837500Y-80750000D03*
X145837500Y-81250000D03*
X145837500Y-81750000D03*
X145837500Y-82250000D03*
X145837500Y-82750000D03*
X145837500Y-83250000D03*
X145837500Y-83750000D03*
G04 #@! TD*
D12*
G04 #@! TO.C,D2F1*
X163062778Y-58033760D03*
X165091222Y-57490240D03*
G04 #@! TD*
D11*
G04 #@! TO.C,D3C1*
X97288778Y-58798240D03*
X99317222Y-59341760D03*
G04 #@! TD*
G04 #@! TO.C,D3B1*
X78866778Y-58003240D03*
X80895222Y-58546760D03*
G04 #@! TD*
G04 #@! TO.C,D1A1*
X67173778Y-32093240D03*
X69202222Y-32636760D03*
G04 #@! TD*
G04 #@! TO.C,D4C1*
X100546778Y-81411240D03*
X102575222Y-81954760D03*
G04 #@! TD*
D17*
G04 #@! TO.C,R1*
X152000000Y-58087500D03*
X152000000Y-59912500D03*
G04 #@! TD*
D18*
G04 #@! TO.C,R3*
X149087500Y-90000000D03*
X150912500Y-90000000D03*
G04 #@! TD*
D11*
G04 #@! TO.C,D1B1*
X87666778Y-25161240D03*
X89695222Y-25704760D03*
G04 #@! TD*
G04 #@! TO.C,D1C1*
X106088778Y-25956240D03*
X108117222Y-26499760D03*
G04 #@! TD*
D13*
G04 #@! TO.C,C6*
X143050000Y-75000000D03*
X144950000Y-75000000D03*
G04 #@! TD*
D12*
G04 #@! TO.C,D1J1*
X230797778Y-32636760D03*
X232826222Y-32093240D03*
G04 #@! TD*
D11*
G04 #@! TO.C,D3E1*
X130508778Y-73911240D03*
X132537222Y-74454760D03*
G04 #@! TD*
G04 #@! TO.C,D3D1*
X113639778Y-67320240D03*
X115668222Y-67863760D03*
G04 #@! TD*
G04 #@! TO.C,D2E1*
X134908778Y-57490240D03*
X136937222Y-58033760D03*
G04 #@! TD*
G04 #@! TO.C,D1E1*
X139308778Y-41069240D03*
X141337222Y-41612760D03*
G04 #@! TD*
D12*
G04 #@! TO.C,D2I1*
X214704778Y-42125760D03*
X216733222Y-41582240D03*
G04 #@! TD*
G04 #@! TO.C,D1F1*
X158662778Y-41612760D03*
X160691222Y-41069240D03*
G04 #@! TD*
G04 #@! TO.C,D1H1*
X191882778Y-26499760D03*
X193911222Y-25956240D03*
G04 #@! TD*
G04 #@! TO.C,D3I1*
X219104778Y-58546760D03*
X221133222Y-58003240D03*
G04 #@! TD*
G04 #@! TO.C,D3J1*
X239597778Y-65478760D03*
X241626222Y-64935240D03*
G04 #@! TD*
D10*
G04 #@! TO.C,C5*
X144950000Y-87000000D03*
X143050000Y-87000000D03*
G04 #@! TD*
D11*
G04 #@! TO.C,D2C1*
X101688778Y-42377240D03*
X103717222Y-42920760D03*
G04 #@! TD*
D19*
G04 #@! TO.C,J1*
X153250000Y-37720000D03*
X152450000Y-37720000D03*
D20*
X151250000Y-37720000D03*
X150250000Y-37720000D03*
X149750000Y-37720000D03*
X148750000Y-37720000D03*
D19*
X147550000Y-37720000D03*
X146750000Y-37720000D03*
X146750000Y-37720000D03*
X147550000Y-37720000D03*
D20*
X148250000Y-37720000D03*
X149250000Y-37720000D03*
X150750000Y-37720000D03*
X151750000Y-37720000D03*
D19*
X152450000Y-37720000D03*
X153250000Y-37720000D03*
G04 #@! TD*
D12*
G04 #@! TO.C,D3F1*
X167462778Y-74454760D03*
X169491222Y-73911240D03*
G04 #@! TD*
D21*
G04 #@! TO.C,J2*
X153810000Y-104475000D03*
X151270000Y-104475000D03*
X148730000Y-104475000D03*
X146190000Y-104475000D03*
G04 #@! TD*
D11*
G04 #@! TO.C,D2D1*
X118039778Y-50899240D03*
X120068222Y-51442760D03*
G04 #@! TD*
D12*
G04 #@! TO.C,D3G1*
X184331778Y-67863760D03*
X186360222Y-67320240D03*
G04 #@! TD*
D22*
G04 #@! TO.C,U2*
X149050000Y-69137500D03*
X150950000Y-69137500D03*
X150000000Y-66862500D03*
G04 #@! TD*
D11*
G04 #@! TO.C,D3A1*
X58373778Y-64935240D03*
X60402222Y-65478760D03*
G04 #@! TD*
D12*
G04 #@! TO.C,D4H1*
X197424778Y-81954760D03*
X199453222Y-81411240D03*
G04 #@! TD*
G04 #@! TO.C,D2J1*
X235197778Y-49057760D03*
X237226222Y-48514240D03*
G04 #@! TD*
D11*
G04 #@! TO.C,D1D1*
X122439778Y-34479240D03*
X124468222Y-35022760D03*
G04 #@! TD*
D12*
G04 #@! TO.C,D4F1*
X163168778Y-93204760D03*
X165197222Y-92661240D03*
G04 #@! TD*
G04 #@! TO.C,D1G1*
X175531778Y-35022760D03*
X177560222Y-34479240D03*
G04 #@! TD*
M02*
