G04 #@! TF.GenerationSoftware,KiCad,Pcbnew,8.0.6+1*
G04 #@! TF.CreationDate,2024-11-04T17:59:47+01:00*
G04 #@! TF.ProjectId,keymini,6b65796d-696e-4692-9e6b-696361645f70,rev?*
G04 #@! TF.SameCoordinates,Original*
G04 #@! TF.FileFunction,Soldermask,Top*
G04 #@! TF.FilePolarity,Negative*
%FSLAX46Y46*%
G04 Gerber Fmt 4.6, Leading zero omitted, Abs format (unit mm)*
G04 Created by KiCad (PCBNEW 8.0.6+1) date 2024-11-04 17:59:47*
%MOMM*%
%LPD*%
G01*
G04 APERTURE LIST*
G04 Aperture macros list*
%AMRoundRect*
0 Rectangle with rounded corners*
0 $1 Rounding radius*
0 $2 $3 $4 $5 $6 $7 $8 $9 X,Y pos of 4 corners*
0 Add a 4 corners polygon primitive as box body*
4,1,4,$2,$3,$4,$5,$6,$7,$8,$9,$2,$3,0*
0 Add four circle primitives for the rounded corners*
1,1,$1+$1,$2,$3*
1,1,$1+$1,$4,$5*
1,1,$1+$1,$6,$7*
1,1,$1+$1,$8,$9*
0 Add four rect primitives between the rounded corners*
20,1,$1+$1,$2,$3,$4,$5,0*
20,1,$1+$1,$4,$5,$6,$7,0*
20,1,$1+$1,$6,$7,$8,$9,0*
20,1,$1+$1,$8,$9,$2,$3,0*%
G04 Aperture macros list end*
%ADD10RoundRect,0.250000X0.250000X0.475000X-0.250000X0.475000X-0.250000X-0.475000X0.250000X-0.475000X0*%
%ADD11C,1.701800*%
%ADD12C,3.429000*%
%ADD13C,2.032000*%
%ADD14RoundRect,0.112500X-0.210228X-0.060138X0.151994X-0.157195X0.210228X0.060138X-0.151994X0.157195X0*%
%ADD15RoundRect,0.112500X-0.151994X-0.157195X0.210228X-0.060138X0.151994X0.157195X-0.210228X0.060138X0*%
%ADD16RoundRect,0.250000X-0.250000X-0.475000X0.250000X-0.475000X0.250000X0.475000X-0.250000X0.475000X0*%
%ADD17RoundRect,0.250000X0.450000X-0.262500X0.450000X0.262500X-0.450000X0.262500X-0.450000X-0.262500X0*%
%ADD18RoundRect,0.075000X0.075000X-0.662500X0.075000X0.662500X-0.075000X0.662500X-0.075000X-0.662500X0*%
%ADD19RoundRect,0.075000X0.662500X-0.075000X0.662500X0.075000X-0.662500X0.075000X-0.662500X-0.075000X0*%
%ADD20RoundRect,0.250000X-0.450000X0.262500X-0.450000X-0.262500X0.450000X-0.262500X0.450000X0.262500X0*%
%ADD21RoundRect,0.250000X-0.262500X-0.450000X0.262500X-0.450000X0.262500X0.450000X-0.262500X0.450000X0*%
%ADD22C,0.650000*%
%ADD23R,0.600000X1.450000*%
%ADD24R,0.300000X1.450000*%
%ADD25O,1.000000X2.100000*%
%ADD26O,1.000000X1.600000*%
%ADD27R,1.000000X2.500000*%
%ADD28RoundRect,0.150000X0.150000X-0.512500X0.150000X0.512500X-0.150000X0.512500X-0.150000X-0.512500X0*%
G04 APERTURE END LIST*
D10*
G04 #@! TO.C,C2*
X150950000Y-72000000D03*
X149050000Y-72000000D03*
G04 #@! TD*
D11*
G04 #@! TO.C,SW1J1*
X227715408Y-38328505D03*
D12*
X233028000Y-36905000D03*
D11*
X238340592Y-35481495D03*
D13*
X234555032Y-42603962D03*
X229181883Y-41869613D03*
G04 #@! TD*
D14*
G04 #@! TO.C,D2A1*
X62773778Y-48514240D03*
X64802222Y-49057760D03*
G04 #@! TD*
G04 #@! TO.C,D4D1*
X117415778Y-88002240D03*
X119444222Y-88545760D03*
G04 #@! TD*
D11*
G04 #@! TO.C,SW4F1*
X160087408Y-98896505D03*
D12*
X165400000Y-97473000D03*
D11*
X170712592Y-96049495D03*
D13*
X166927032Y-103171962D03*
X161553883Y-102437613D03*
G04 #@! TD*
D11*
G04 #@! TO.C,SW2I1*
X211623408Y-47817505D03*
D12*
X216936000Y-46394000D03*
D11*
X222248592Y-44970495D03*
D13*
X218463032Y-52092962D03*
X213089883Y-51358613D03*
G04 #@! TD*
D11*
G04 #@! TO.C,SW3I1*
X216022408Y-64237505D03*
D12*
X221335000Y-62814000D03*
D11*
X226647592Y-61390495D03*
D13*
X222862032Y-68512962D03*
X217488883Y-67778613D03*
G04 #@! TD*
D11*
G04 #@! TO.C,SW1G1*
X172449408Y-40713505D03*
D12*
X177762000Y-39290000D03*
D11*
X183074592Y-37866495D03*
D13*
X179289032Y-44988962D03*
X173915883Y-44254613D03*
G04 #@! TD*
D15*
G04 #@! TO.C,D2H1*
X196282778Y-42920760D03*
X198311222Y-42377240D03*
G04 #@! TD*
D11*
G04 #@! TO.C,SW4E1*
X129287408Y-96049495D03*
D12*
X134600000Y-97473000D03*
D11*
X139912592Y-98896505D03*
D13*
X133072968Y-103171962D03*
X128786858Y-99849423D03*
G04 #@! TD*
D15*
G04 #@! TO.C,D3H1*
X200682778Y-59341760D03*
X202711222Y-58798240D03*
G04 #@! TD*
D14*
G04 #@! TO.C,D4E1*
X134802778Y-92661240D03*
X136831222Y-93204760D03*
G04 #@! TD*
D11*
G04 #@! TO.C,SW3G1*
X181249408Y-73555505D03*
D12*
X186562000Y-72132000D03*
D11*
X191874592Y-70708495D03*
D13*
X188089032Y-77830962D03*
X182715883Y-77096613D03*
G04 #@! TD*
D11*
G04 #@! TO.C,SW3C1*
X91773408Y-62185495D03*
D12*
X97086000Y-63609000D03*
D11*
X102398592Y-65032505D03*
D13*
X95558968Y-69307962D03*
X91272858Y-65985423D03*
G04 #@! TD*
D10*
G04 #@! TO.C,C4*
X156950000Y-87000000D03*
X155050000Y-87000000D03*
G04 #@! TD*
D16*
G04 #@! TO.C,C1*
X149050000Y-64000000D03*
X150950000Y-64000000D03*
G04 #@! TD*
D15*
G04 #@! TO.C,D4G1*
X180555778Y-88545760D03*
X182584222Y-88002240D03*
G04 #@! TD*
D16*
G04 #@! TO.C,C3*
X155050000Y-75000000D03*
X156950000Y-75000000D03*
G04 #@! TD*
D15*
G04 #@! TO.C,D2G1*
X179931778Y-51442760D03*
X181960222Y-50899240D03*
G04 #@! TD*
G04 #@! TO.C,D1I1*
X210304778Y-25704760D03*
X212333222Y-25161240D03*
G04 #@! TD*
D11*
G04 #@! TO.C,SW4D1*
X111901408Y-91390495D03*
D12*
X117214000Y-92814000D03*
D11*
X122526592Y-94237505D03*
D13*
X115686968Y-98512962D03*
X111400858Y-95190423D03*
G04 #@! TD*
D11*
G04 #@! TO.C,SW4C1*
X95032408Y-84799495D03*
D12*
X100345000Y-86223000D03*
D11*
X105657592Y-87646505D03*
D13*
X98817968Y-91921962D03*
X94531858Y-88599423D03*
G04 #@! TD*
D14*
G04 #@! TO.C,D2B1*
X83266778Y-41582240D03*
X85295222Y-42125760D03*
G04 #@! TD*
D17*
G04 #@! TO.C,R2*
X148000000Y-59912500D03*
X148000000Y-58087500D03*
G04 #@! TD*
D18*
G04 #@! TO.C,U1*
X147250000Y-85162500D03*
X147750000Y-85162500D03*
X148250000Y-85162500D03*
X148750000Y-85162500D03*
X149250000Y-85162500D03*
X149750000Y-85162500D03*
X150250000Y-85162500D03*
X150750000Y-85162500D03*
X151250000Y-85162500D03*
X151750000Y-85162500D03*
X152250000Y-85162500D03*
X152750000Y-85162500D03*
D19*
X154162500Y-83750000D03*
X154162500Y-83250000D03*
X154162500Y-82750000D03*
X154162500Y-82250000D03*
X154162500Y-81750000D03*
X154162500Y-81250000D03*
X154162500Y-80750000D03*
X154162500Y-80250000D03*
X154162500Y-79750000D03*
X154162500Y-79250000D03*
X154162500Y-78750000D03*
X154162500Y-78250000D03*
D18*
X152750000Y-76837500D03*
X152250000Y-76837500D03*
X151750000Y-76837500D03*
X151250000Y-76837500D03*
X150750000Y-76837500D03*
X150250000Y-76837500D03*
X149750000Y-76837500D03*
X149250000Y-76837500D03*
X148750000Y-76837500D03*
X148250000Y-76837500D03*
X147750000Y-76837500D03*
X147250000Y-76837500D03*
D19*
X145837500Y-78250000D03*
X145837500Y-78750000D03*
X145837500Y-79250000D03*
X145837500Y-79750000D03*
X145837500Y-80250000D03*
X145837500Y-80750000D03*
X145837500Y-81250000D03*
X145837500Y-81750000D03*
X145837500Y-82250000D03*
X145837500Y-82750000D03*
X145837500Y-83250000D03*
X145837500Y-83750000D03*
G04 #@! TD*
D11*
G04 #@! TO.C,SW2F1*
X159980408Y-63725505D03*
D12*
X165293000Y-62302000D03*
D11*
X170605592Y-60878495D03*
D13*
X166820032Y-68000962D03*
X161446883Y-67266613D03*
G04 #@! TD*
D11*
G04 #@! TO.C,SW4G1*
X177473408Y-94237505D03*
D12*
X182786000Y-92814000D03*
D11*
X188098592Y-91390495D03*
D13*
X184313032Y-98512962D03*
X178939883Y-97778613D03*
G04 #@! TD*
D15*
G04 #@! TO.C,D2F1*
X163062778Y-58033760D03*
X165091222Y-57490240D03*
G04 #@! TD*
D11*
G04 #@! TO.C,SW2G1*
X176849408Y-57134505D03*
D12*
X182162000Y-55711000D03*
D11*
X187474592Y-54287495D03*
D13*
X183689032Y-61409962D03*
X178315883Y-60675613D03*
G04 #@! TD*
D14*
G04 #@! TO.C,D3C1*
X97288778Y-58798240D03*
X99317222Y-59341760D03*
G04 #@! TD*
G04 #@! TO.C,D3B1*
X78866778Y-58003240D03*
X80895222Y-58546760D03*
G04 #@! TD*
G04 #@! TO.C,D1A1*
X67173778Y-32093240D03*
X69202222Y-32636760D03*
G04 #@! TD*
D11*
G04 #@! TO.C,SW1H1*
X188801408Y-32191505D03*
D12*
X194114000Y-30768000D03*
D11*
X199426592Y-29344495D03*
D13*
X195641032Y-36466962D03*
X190267883Y-35732613D03*
G04 #@! TD*
D11*
G04 #@! TO.C,SW3A1*
X52859408Y-68323495D03*
D12*
X58172000Y-69747000D03*
D11*
X63484592Y-71170505D03*
D13*
X56644968Y-75445962D03*
X52358858Y-72123423D03*
G04 #@! TD*
D11*
G04 #@! TO.C,SW3F1*
X164380408Y-80145505D03*
D12*
X169693000Y-78722000D03*
D11*
X175005592Y-77298495D03*
D13*
X171220032Y-84420962D03*
X165846883Y-83686613D03*
G04 #@! TD*
D14*
G04 #@! TO.C,D4C1*
X100546778Y-81411240D03*
X102575222Y-81954760D03*
G04 #@! TD*
D11*
G04 #@! TO.C,SW2E1*
X129394408Y-60878495D03*
D12*
X134707000Y-62302000D03*
D11*
X140019592Y-63725505D03*
D13*
X133179968Y-68000962D03*
X128893858Y-64678423D03*
G04 #@! TD*
D20*
G04 #@! TO.C,R1*
X152000000Y-58087500D03*
X152000000Y-59912500D03*
G04 #@! TD*
D21*
G04 #@! TO.C,R3*
X149087500Y-90000000D03*
X150912500Y-90000000D03*
G04 #@! TD*
D14*
G04 #@! TO.C,D1B1*
X87666778Y-25161240D03*
X89695222Y-25704760D03*
G04 #@! TD*
G04 #@! TO.C,D1C1*
X106088778Y-25956240D03*
X108117222Y-26499760D03*
G04 #@! TD*
D11*
G04 #@! TO.C,SW3D1*
X108125408Y-70708495D03*
D12*
X113438000Y-72132000D03*
D11*
X118750592Y-73555505D03*
D13*
X111910968Y-77830962D03*
X107624858Y-74508423D03*
G04 #@! TD*
D11*
G04 #@! TO.C,SW3J1*
X236515408Y-71170505D03*
D12*
X241828000Y-69747000D03*
D11*
X247140592Y-68323495D03*
D13*
X243355032Y-75445962D03*
X237981883Y-74711613D03*
G04 #@! TD*
D11*
G04 #@! TO.C,SW3B1*
X73352408Y-61390495D03*
D12*
X78665000Y-62814000D03*
D11*
X83977592Y-64237505D03*
D13*
X77137968Y-68512962D03*
X72851858Y-65190423D03*
G04 #@! TD*
D11*
G04 #@! TO.C,SW1F1*
X155580408Y-47304505D03*
D12*
X160893000Y-45881000D03*
D11*
X166205592Y-44457495D03*
D13*
X162420032Y-51579962D03*
X157046883Y-50845613D03*
G04 #@! TD*
D11*
G04 #@! TO.C,SW2D1*
X112525408Y-54287495D03*
D12*
X117838000Y-55711000D03*
D11*
X123150592Y-57134505D03*
D13*
X116310968Y-61409962D03*
X112024858Y-58087423D03*
G04 #@! TD*
D16*
G04 #@! TO.C,C6*
X143050000Y-75000000D03*
X144950000Y-75000000D03*
G04 #@! TD*
D11*
G04 #@! TO.C,SW4H1*
X194342408Y-87646505D03*
D12*
X199655000Y-86223000D03*
D11*
X204967592Y-84799495D03*
D13*
X201182032Y-91921962D03*
X195808883Y-91187613D03*
G04 #@! TD*
D15*
G04 #@! TO.C,D1J1*
X230797778Y-32636760D03*
X232826222Y-32093240D03*
G04 #@! TD*
D14*
G04 #@! TO.C,D3E1*
X130508778Y-73911240D03*
X132537222Y-74454760D03*
G04 #@! TD*
G04 #@! TO.C,D3D1*
X113639778Y-67320240D03*
X115668222Y-67863760D03*
G04 #@! TD*
G04 #@! TO.C,D2E1*
X134908778Y-57490240D03*
X136937222Y-58033760D03*
G04 #@! TD*
G04 #@! TO.C,D1E1*
X139308778Y-41069240D03*
X141337222Y-41612760D03*
G04 #@! TD*
D15*
G04 #@! TO.C,D2I1*
X214704778Y-42125760D03*
X216733222Y-41582240D03*
G04 #@! TD*
G04 #@! TO.C,D1F1*
X158662778Y-41612760D03*
X160691222Y-41069240D03*
G04 #@! TD*
D11*
G04 #@! TO.C,SW2B1*
X77751408Y-44970495D03*
D12*
X83064000Y-46394000D03*
D11*
X88376592Y-47817505D03*
D13*
X81536968Y-52092962D03*
X77250858Y-48770423D03*
G04 #@! TD*
D15*
G04 #@! TO.C,D1H1*
X191882778Y-26499760D03*
X193911222Y-25956240D03*
G04 #@! TD*
D11*
G04 #@! TO.C,SW1E1*
X133794408Y-44457495D03*
D12*
X139107000Y-45881000D03*
D11*
X144419592Y-47304505D03*
D13*
X137579968Y-51579962D03*
X133293858Y-48257423D03*
G04 #@! TD*
D15*
G04 #@! TO.C,D3I1*
X219104778Y-58546760D03*
X221133222Y-58003240D03*
G04 #@! TD*
G04 #@! TO.C,D3J1*
X239597778Y-65478760D03*
X241626222Y-64935240D03*
G04 #@! TD*
D10*
G04 #@! TO.C,C5*
X144950000Y-87000000D03*
X143050000Y-87000000D03*
G04 #@! TD*
D14*
G04 #@! TO.C,D2C1*
X101688778Y-42377240D03*
X103717222Y-42920760D03*
G04 #@! TD*
D22*
G04 #@! TO.C,J1*
X152890000Y-36275000D03*
X147110000Y-36275000D03*
D23*
X153250000Y-37720000D03*
X152450000Y-37720000D03*
D24*
X151250000Y-37720000D03*
X150250000Y-37720000D03*
X149750000Y-37720000D03*
X148750000Y-37720000D03*
D23*
X147550000Y-37720000D03*
X146750000Y-37720000D03*
X146750000Y-37720000D03*
X147550000Y-37720000D03*
D24*
X148250000Y-37720000D03*
X149250000Y-37720000D03*
X150750000Y-37720000D03*
X151750000Y-37720000D03*
D23*
X152450000Y-37720000D03*
X153250000Y-37720000D03*
D25*
X154320000Y-36805000D03*
D26*
X154320000Y-32625000D03*
D25*
X145680000Y-36805000D03*
D26*
X145680000Y-32625000D03*
G04 #@! TD*
D15*
G04 #@! TO.C,D3F1*
X167462778Y-74454760D03*
X169491222Y-73911240D03*
G04 #@! TD*
D27*
G04 #@! TO.C,J2*
X153810000Y-104475000D03*
X151270000Y-104475000D03*
X148730000Y-104475000D03*
X146190000Y-104475000D03*
G04 #@! TD*
D11*
G04 #@! TO.C,SW3H1*
X197601408Y-65032505D03*
D12*
X202914000Y-63609000D03*
D11*
X208226592Y-62185495D03*
D13*
X204441032Y-69307962D03*
X199067883Y-68573613D03*
G04 #@! TD*
D11*
G04 #@! TO.C,SW2J1*
X232115408Y-54749505D03*
D12*
X237428000Y-53326000D03*
D11*
X242740592Y-51902495D03*
D13*
X238955032Y-59024962D03*
X233581883Y-58290613D03*
G04 #@! TD*
D14*
G04 #@! TO.C,D2D1*
X118039778Y-50899240D03*
X120068222Y-51442760D03*
G04 #@! TD*
D15*
G04 #@! TO.C,D3G1*
X184331778Y-67863760D03*
X186360222Y-67320240D03*
G04 #@! TD*
D11*
G04 #@! TO.C,SW1B1*
X82151408Y-28549495D03*
D12*
X87464000Y-29973000D03*
D11*
X92776592Y-31396505D03*
D13*
X85936968Y-35671962D03*
X81650858Y-32349423D03*
G04 #@! TD*
D11*
G04 #@! TO.C,SW1D1*
X116925408Y-37866495D03*
D12*
X122238000Y-39290000D03*
D11*
X127550592Y-40713505D03*
D13*
X120710968Y-44988962D03*
X116424858Y-41666423D03*
G04 #@! TD*
D28*
G04 #@! TO.C,U2*
X149050000Y-69137500D03*
X150950000Y-69137500D03*
X150000000Y-66862500D03*
G04 #@! TD*
D11*
G04 #@! TO.C,SW2A1*
X57259408Y-51902495D03*
D12*
X62572000Y-53326000D03*
D11*
X67884592Y-54749505D03*
D13*
X61044968Y-59024962D03*
X56758858Y-55702423D03*
G04 #@! TD*
D11*
G04 #@! TO.C,SW1A1*
X61659408Y-35481495D03*
D12*
X66972000Y-36905000D03*
D11*
X72284592Y-38328505D03*
D13*
X65444968Y-42603962D03*
X61158858Y-39281423D03*
G04 #@! TD*
D14*
G04 #@! TO.C,D3A1*
X58373778Y-64935240D03*
X60402222Y-65478760D03*
G04 #@! TD*
D15*
G04 #@! TO.C,D4H1*
X197424778Y-81954760D03*
X199453222Y-81411240D03*
G04 #@! TD*
D11*
G04 #@! TO.C,SW3E1*
X124994408Y-77298495D03*
D12*
X130307000Y-78722000D03*
D11*
X135619592Y-80145505D03*
D13*
X128779968Y-84420962D03*
X124493858Y-81098423D03*
G04 #@! TD*
D15*
G04 #@! TO.C,D2J1*
X235197778Y-49057760D03*
X237226222Y-48514240D03*
G04 #@! TD*
D14*
G04 #@! TO.C,D1D1*
X122439778Y-34479240D03*
X124468222Y-35022760D03*
G04 #@! TD*
D15*
G04 #@! TO.C,D4F1*
X163168778Y-93204760D03*
X165197222Y-92661240D03*
G04 #@! TD*
D11*
G04 #@! TO.C,SW2C1*
X96173408Y-45765495D03*
D12*
X101486000Y-47189000D03*
D11*
X106798592Y-48612505D03*
D13*
X99958968Y-52887962D03*
X95672858Y-49565423D03*
G04 #@! TD*
D11*
G04 #@! TO.C,SW1C1*
X100573408Y-29344495D03*
D12*
X105886000Y-30768000D03*
D11*
X111198592Y-32191505D03*
D13*
X104358968Y-36466962D03*
X100072858Y-33144423D03*
G04 #@! TD*
D11*
G04 #@! TO.C,SW2H1*
X193201408Y-48612505D03*
D12*
X198514000Y-47189000D03*
D11*
X203826592Y-45765495D03*
D13*
X200041032Y-52887962D03*
X194667883Y-52153613D03*
G04 #@! TD*
D15*
G04 #@! TO.C,D1G1*
X175531778Y-35022760D03*
X177560222Y-34479240D03*
G04 #@! TD*
D11*
G04 #@! TO.C,SW1I1*
X207223408Y-31396505D03*
D12*
X212536000Y-29973000D03*
D11*
X217848592Y-28549495D03*
D13*
X214063032Y-35671962D03*
X208689883Y-34937613D03*
G04 #@! TD*
M02*
