  0
SECTION
  2
BLOCKS
  0
ENDSEC
  0
SECTION
  2
ENTITIES
  0
LINE
  8
0
 10
43.6797
 20
-58.6948
 11
102.721
 21
-35.6277
  0
LINE
  8
0
 10
102.721
 20
-35.6277
 11
89.5215
 21
13.6344
  0
LINE
  8
0
 10
89.5215
 20
13.6344
 11
69.029
 21
20.5668
  0
LINE
  8
0
 10
69.029
 20
20.5668
 11
50.6071
 21
19.7718
  0
LINE
  8
0
 10
50.6071
 20
19.7718
 11
33.2204
 21
15.113
  0
LINE
  8
0
 10
33.2204
 20
15.113
 11
21.9813
 21
10
  0
LINE
  8
0
 10
21.9813
 20
10
 11
4.59999
 21
10
  0
LINE
  8
0
 10
4.59999
 20
10
 11
4.59999
 21
2.5
  0
LINE
  8
0
 10
4.59999
 20
2.5
 11
-4.59999
 21
2.5
  0
LINE
  8
0
 10
-4.59999
 20
2.5
 11
-4.59999
 21
10
  0
LINE
  8
0
 10
-4.59999
 20
10
 11
-21.9813
 21
10
  0
LINE
  8
0
 10
-21.9813
 20
10
 11
-33.2204
 21
15.113
  0
LINE
  8
0
 10
-33.2204
 20
15.113
 11
-50.6071
 21
19.7718
  0
LINE
  8
0
 10
-50.6071
 20
19.7718
 11
-69.029
 21
20.5668
  0
LINE
  8
0
 10
-69.029
 20
20.5668
 11
-89.5215
 21
13.6344
  0
LINE
  8
0
 10
-89.5215
 20
13.6344
 11
-102.721
 21
-35.6277
  0
LINE
  8
0
 10
-102.721
 20
-35.6277
 11
-43.6797
 21
-58.6948
  0
LINE
  8
0
 10
-43.6797
 20
-58.6948
 11
-8.90636
 21
-68.0123
  0
LINE
  8
0
 10
-8.90636
 20
-68.0123
 11
8.90636
 21
-68.0123
  0
LINE
  8
0
 10
8.90636
 20
-68.0123
 11
43.6797
 21
-58.6948
  0
LINE
  8
0
 10
-71.1089
 20
5.07733
 11
-67.4854
 21
18.6003
  0
LINE
  8
0
 10
-67.4854
 20
18.6003
 11
-53.9624
 21
14.9768
  0
LINE
  8
0
 10
-53.9624
 20
14.9768
 11
-57.5859
 21
1.45386
  0
LINE
  8
0
 10
-57.5859
 20
1.45386
 11
-71.1089
 21
5.07733
  0
LINE
  8
0
 10
53.9624
 20
14.9768
 11
67.4854
 21
18.6003
  0
LINE
  8
0
 10
67.4854
 20
18.6003
 11
71.1089
 21
5.07733
  0
LINE
  8
0
 10
71.1089
 20
5.07733
 11
57.5859
 21
1.45386
  0
LINE
  8
0
 10
57.5859
 20
1.45386
 11
53.9624
 21
14.9768
  0
LINE
  8
0
 10
-52.6869
 20
4.28229
 11
-49.0634
 21
17.8053
  0
LINE
  8
0
 10
-49.0634
 20
17.8053
 11
-35.5405
 21
14.1818
  0
LINE
  8
0
 10
-35.5405
 20
14.1818
 11
-39.164
 21
0.658813
  0
LINE
  8
0
 10
-39.164
 20
0.658813
 11
-52.6869
 21
4.28229
  0
LINE
  8
0
 10
35.5405
 20
14.1818
 11
49.0634
 21
17.8053
  0
LINE
  8
0
 10
49.0634
 20
17.8053
 11
52.6869
 21
4.28229
  0
LINE
  8
0
 10
52.6869
 20
4.28229
 11
39.164
 21
0.658813
  0
LINE
  8
0
 10
39.164
 20
0.658813
 11
35.5405
 21
14.1818
  0
LINE
  8
0
 10
-91.6013
 20
-1.85503
 11
-87.9779
 21
11.6679
  0
LINE
  8
0
 10
-87.9779
 20
11.6679
 11
-74.4549
 21
8.04445
  0
LINE
  8
0
 10
-74.4549
 20
8.04445
 11
-78.0784
 21
-5.47849
  0
LINE
  8
0
 10
-78.0784
 20
-5.47849
 11
-91.6013
 21
-1.85503
  0
LINE
  8
0
 10
74.4549
 20
8.04445
 11
87.9779
 21
11.6679
  0
LINE
  8
0
 10
87.9779
 20
11.6679
 11
91.6013
 21
-1.85503
  0
LINE
  8
0
 10
91.6013
 20
-1.85503
 11
78.0784
 21
-5.47849
  0
LINE
  8
0
 10
78.0784
 20
-5.47849
 11
74.4549
 21
8.04445
  0
LINE
  8
0
 10
-36.3355
 20
-4.24014
 11
-32.7121
 21
9.28281
  0
LINE
  8
0
 10
-32.7121
 20
9.28281
 11
-19.1891
 21
5.65933
  0
LINE
  8
0
 10
-19.1891
 20
5.65933
 11
-22.8126
 21
-7.86362
  0
LINE
  8
0
 10
-22.8126
 20
-7.86362
 11
-36.3355
 21
-4.24014
  0
LINE
  8
0
 10
19.1891
 20
5.65933
 11
32.7121
 21
9.28281
  0
LINE
  8
0
 10
32.7121
 20
9.28281
 11
36.3355
 21
-4.24014
  0
LINE
  8
0
 10
36.3355
 20
-4.24014
 11
22.8126
 21
-7.86362
  0
LINE
  8
0
 10
22.8126
 20
-7.86362
 11
19.1891
 21
5.65933
  0
LINE
  8
0
 10
2.32007
 20
-0.931244
 11
15.843
 21
2.69221
  0
LINE
  8
0
 10
15.843
 20
2.69221
 11
19.4665
 21
-10.8307
  0
LINE
  8
0
 10
19.4665
 20
-10.8307
 11
5.94354
 21
-14.4542
  0
LINE
  8
0
 10
5.94354
 20
-14.4542
 11
2.32007
 21
-0.931244
  0
LINE
  8
0
 10
-19.4665
 20
-10.8307
 11
-15.843
 21
2.69221
  0
LINE
  8
0
 10
-15.843
 20
2.69221
 11
-2.32007
 21
-0.931244
  0
LINE
  8
0
 10
-2.32007
 20
-0.931244
 11
-5.94354
 21
-14.4542
  0
LINE
  8
0
 10
-5.94354
 20
-14.4542
 11
-19.4665
 21
-10.8307
  0
LINE
  8
0
 10
-75.5088
 20
-11.3434
 11
-71.8853
 21
2.17955
  0
LINE
  8
0
 10
-71.8853
 20
2.17955
 11
-58.3624
 21
-1.44391
  0
LINE
  8
0
 10
-58.3624
 20
-1.44391
 11
-61.9858
 21
-14.9669
  0
LINE
  8
0
 10
-61.9858
 20
-14.9669
 11
-75.5088
 21
-11.3434
  0
LINE
  8
0
 10
58.3624
 20
-1.44391
 11
71.8853
 21
2.17955
  0
LINE
  8
0
 10
71.8853
 20
2.17955
 11
75.5088
 21
-11.3434
  0
LINE
  8
0
 10
75.5088
 20
-11.3434
 11
61.9858
 21
-14.9669
  0
LINE
  8
0
 10
61.9858
 20
-14.9669
 11
58.3624
 21
-1.44391
  0
LINE
  8
0
 10
-57.0868
 20
-12.1384
 11
-53.4634
 21
1.38451
  0
LINE
  8
0
 10
-53.4634
 20
1.38451
 11
-39.9404
 21
-2.23894
  0
LINE
  8
0
 10
-39.9404
 20
-2.23894
 11
-43.5639
 21
-15.7619
  0
LINE
  8
0
 10
-43.5639
 20
-15.7619
 11
-57.0868
 21
-12.1384
  0
LINE
  8
0
 10
39.9404
 20
-2.23894
 11
53.4634
 21
1.38451
  0
LINE
  8
0
 10
53.4634
 20
1.38451
 11
57.0868
 21
-12.1384
  0
LINE
  8
0
 10
57.0868
 20
-12.1384
 11
43.5639
 21
-15.7619
  0
LINE
  8
0
 10
43.5639
 20
-15.7619
 11
39.9404
 21
-2.23894
  0
LINE
  8
0
 10
78.8548
 20
-8.37627
 11
92.3778
 21
-4.75281
  0
LINE
  8
0
 10
92.3778
 20
-4.75281
 11
96.0013
 21
-18.2758
  0
LINE
  8
0
 10
96.0013
 20
-18.2758
 11
82.4783
 21
-21.8992
  0
LINE
  8
0
 10
82.4783
 20
-21.8992
 11
78.8548
 21
-8.37627
  0
LINE
  8
0
 10
-96.0013
 20
-18.2758
 11
-92.3778
 21
-4.75281
  0
LINE
  8
0
 10
-92.3778
 20
-4.75281
 11
-78.8548
 21
-8.37627
  0
LINE
  8
0
 10
-78.8548
 20
-8.37627
 11
-82.4783
 21
-21.8992
  0
LINE
  8
0
 10
-82.4783
 20
-21.8992
 11
-96.0013
 21
-18.2758
  0
LINE
  8
0
 10
23.589
 20
-10.7614
 11
37.112
 21
-7.13792
  0
LINE
  8
0
 10
37.112
 20
-7.13792
 11
40.7355
 21
-20.6609
  0
LINE
  8
0
 10
40.7355
 20
-20.6609
 11
27.2125
 21
-24.2843
  0
LINE
  8
0
 10
27.2125
 20
-24.2843
 11
23.589
 21
-10.7614
  0
LINE
  8
0
 10
-40.7355
 20
-20.6609
 11
-37.112
 21
-7.13792
  0
LINE
  8
0
 10
-37.112
 20
-7.13792
 11
-23.589
 21
-10.7614
  0
LINE
  8
0
 10
-23.589
 20
-10.7614
 11
-27.2125
 21
-24.2843
  0
LINE
  8
0
 10
-27.2125
 20
-24.2843
 11
-40.7355
 21
-20.6609
  0
LINE
  8
0
 10
6.72
 20
-17.352
 11
20.243
 21
-13.7285
  0
LINE
  8
0
 10
20.243
 20
-13.7285
 11
23.8664
 21
-27.2515
  0
LINE
  8
0
 10
23.8664
 20
-27.2515
 11
10.3435
 21
-30.8749
  0
LINE
  8
0
 10
10.3435
 20
-30.8749
 11
6.72
 21
-17.352
  0
LINE
  8
0
 10
-23.8664
 20
-27.2515
 11
-20.243
 21
-13.7285
  0
LINE
  8
0
 10
-20.243
 20
-13.7285
 11
-6.72
 21
-17.352
  0
LINE
  8
0
 10
-6.72
 20
-17.352
 11
-10.3435
 21
-30.8749
  0
LINE
  8
0
 10
-10.3435
 20
-30.8749
 11
-23.8664
 21
-27.2515
  0
LINE
  8
0
 10
-79.9087
 20
-27.7641
 11
-76.2852
 21
-14.2412
  0
LINE
  8
0
 10
-76.2852
 20
-14.2412
 11
-62.7623
 21
-17.8646
  0
LINE
  8
0
 10
-62.7623
 20
-17.8646
 11
-66.3857
 21
-31.3876
  0
LINE
  8
0
 10
-66.3857
 20
-31.3876
 11
-79.9087
 21
-27.7641
  0
LINE
  8
0
 10
62.7623
 20
-17.8646
 11
76.2852
 21
-14.2412
  0
LINE
  8
0
 10
76.2852
 20
-14.2412
 11
79.9087
 21
-27.7641
  0
LINE
  8
0
 10
79.9087
 20
-27.7641
 11
66.3857
 21
-31.3876
  0
LINE
  8
0
 10
66.3857
 20
-31.3876
 11
62.7623
 21
-17.8646
  0
LINE
  8
0
 10
44.3403
 20
-18.6597
 11
57.8633
 21
-15.0362
  0
LINE
  8
0
 10
57.8633
 20
-15.0362
 11
61.4868
 21
-28.5592
  0
LINE
  8
0
 10
61.4868
 20
-28.5592
 11
47.9638
 21
-32.1826
  0
LINE
  8
0
 10
47.9638
 20
-32.1826
 11
44.3403
 21
-18.6597
  0
LINE
  8
0
 10
-61.4868
 20
-28.5592
 11
-57.8633
 21
-15.0362
  0
LINE
  8
0
 10
-57.8633
 20
-15.0362
 11
-44.3403
 21
-18.6597
  0
LINE
  8
0
 10
-44.3403
 20
-18.6597
 11
-47.9638
 21
-32.1826
  0
LINE
  8
0
 10
-47.9638
 20
-32.1826
 11
-61.4868
 21
-28.5592
  0
LINE
  8
0
 10
83.2548
 20
-24.797
 11
96.7777
 21
-21.1735
  0
LINE
  8
0
 10
96.7777
 20
-21.1735
 11
100.401
 21
-34.6965
  0
LINE
  8
0
 10
100.401
 20
-34.6965
 11
86.8782
 21
-38.32
  0
LINE
  8
0
 10
86.8782
 20
-38.32
 11
83.2548
 21
-24.797
  0
LINE
  8
0
 10
-100.401
 20
-34.6965
 11
-96.7777
 21
-21.1735
  0
LINE
  8
0
 10
-96.7777
 20
-21.1735
 11
-83.2548
 21
-24.797
  0
LINE
  8
0
 10
-83.2548
 20
-24.797
 11
-86.8782
 21
-38.32
  0
LINE
  8
0
 10
-86.8782
 20
-38.32
 11
-100.401
 21
-34.6965
  0
LINE
  8
0
 10
-45.1354
 20
-37.0816
 11
-41.5119
 21
-23.5587
  0
LINE
  8
0
 10
-41.5119
 20
-23.5587
 11
-27.989
 21
-27.1821
  0
LINE
  8
0
 10
-27.989
 20
-27.1821
 11
-31.6124
 21
-40.7051
  0
LINE
  8
0
 10
-31.6124
 20
-40.7051
 11
-45.1354
 21
-37.0816
  0
LINE
  8
0
 10
27.989
 20
-27.1821
 11
41.5119
 21
-23.5587
  0
LINE
  8
0
 10
41.5119
 20
-23.5587
 11
45.1354
 21
-37.0816
  0
LINE
  8
0
 10
45.1354
 20
-37.0816
 11
31.6124
 21
-40.7051
  0
LINE
  8
0
 10
31.6124
 20
-40.7051
 11
27.989
 21
-27.1821
  0
LINE
  8
0
 10
-28.2663
 20
-43.6722
 11
-24.6429
 21
-30.1493
  0
LINE
  8
0
 10
-24.6429
 20
-30.1493
 11
-11.1199
 21
-33.7727
  0
LINE
  8
0
 10
-11.1199
 20
-33.7727
 11
-14.7434
 21
-47.2957
  0
LINE
  8
0
 10
-14.7434
 20
-47.2957
 11
-28.2663
 21
-43.6722
  0
LINE
  8
0
 10
11.1199
 20
-33.7727
 11
24.6429
 21
-30.1493
  0
LINE
  8
0
 10
24.6429
 20
-30.1493
 11
28.2663
 21
-43.6722
  0
LINE
  8
0
 10
28.2663
 20
-43.6722
 11
14.7434
 21
-47.2957
  0
LINE
  8
0
 10
14.7434
 20
-47.2957
 11
11.1199
 21
-33.7727
  0
LINE
  8
0
 10
-58.2286
 20
-51.173
 11
-54.6052
 21
-37.65
  0
LINE
  8
0
 10
-54.6052
 20
-37.65
 11
-41.0822
 21
-41.2735
  0
LINE
  8
0
 10
-41.0822
 20
-41.2735
 11
-44.7057
 21
-54.7965
  0
LINE
  8
0
 10
-44.7057
 20
-54.7965
 11
-58.2286
 21
-51.173
  0
LINE
  8
0
 10
41.0822
 20
-41.2735
 11
54.6052
 21
-37.65
  0
LINE
  8
0
 10
54.6052
 20
-37.65
 11
58.2286
 21
-51.173
  0
LINE
  8
0
 10
58.2286
 20
-51.173
 11
44.7057
 21
-54.7965
  0
LINE
  8
0
 10
44.7057
 20
-54.7965
 11
41.0822
 21
-41.2735
  0
LINE
  8
0
 10
24.2132
 20
-47.8641
 11
37.7361
 21
-44.2406
  0
LINE
  8
0
 10
37.7361
 20
-44.2406
 11
41.3596
 21
-57.7636
  0
LINE
  8
0
 10
41.3596
 20
-57.7636
 11
27.8366
 21
-61.3871
  0
LINE
  8
0
 10
27.8366
 20
-61.3871
 11
24.2132
 21
-47.8641
  0
LINE
  8
0
 10
-41.3596
 20
-57.7636
 11
-37.7361
 21
-44.2406
  0
LINE
  8
0
 10
-37.7361
 20
-44.2406
 11
-24.2132
 21
-47.8641
  0
LINE
  8
0
 10
-24.2132
 20
-47.8641
 11
-27.8366
 21
-61.3871
  0
LINE
  8
0
 10
-27.8366
 20
-61.3871
 11
-41.3596
 21
-57.7636
  0
LINE
  8
0
 10
6.82651
 20
-52.5228
 11
20.3495
 21
-48.8994
  0
LINE
  8
0
 10
20.3495
 20
-48.8994
 11
23.9729
 21
-62.4223
  0
LINE
  8
0
 10
23.9729
 20
-62.4223
 11
10.45
 21
-66.0458
  0
LINE
  8
0
 10
10.45
 20
-66.0458
 11
6.82651
 21
-52.5228
  0
LINE
  8
0
 10
-23.9729
 20
-62.4223
 11
-20.3495
 21
-48.8994
  0
LINE
  8
0
 10
-20.3495
 20
-48.8994
 11
-6.82651
 21
-52.5228
  0
LINE
  8
0
 10
-6.82651
 20
-52.5228
 11
-10.45
 21
-66.0458
  0
LINE
  8
0
 10
-10.45
 20
-66.0458
 11
-23.9729
 21
-62.4223
  0
ENDSEC
  0
SECTION
  2
OBJECTS
  0
DICTIONARY
  0
ENDSEC
  0
EOF
