<?xml version="1.0" standalone="no"?>
<!DOCTYPE svg PUBLIC "-//W3C//DTD SVG 1.1//EN" "http://www.w3.org/Graphics/SVG/1.1/DTD/svg11.dtd">
<svg width="206mm" height="90mm" viewBox="-103 -21 206 90" xmlns="http://www.w3.org/2000/svg" version="1.1">
<title>OpenSCAD Model</title>
<path d="
M 43.6797,58.6948 L 102.721,35.6277 L 89.5215,-13.6344 L 69.029,-20.5668 L 50.6071,-19.7718 L 33.2204,-15.113
 L 21.9813,-10 L 4.59999,-10 L 4.59999,-2.5 L -4.59999,-2.5 L -4.59999,-10 L -21.9813,-10
 L -33.2204,-15.113 L -50.6071,-19.7718 L -69.029,-20.5668 L -89.5215,-13.6344 L -102.721,35.6277 L -43.6797,58.6948
 L -8.90636,68.0123 L 8.90636,68.0123 z
M -71.1089,-5.07733 L -67.4854,-18.6003 L -53.9624,-14.9768 L -57.5859,-1.45386 z
M 53.9624,-14.9768 L 67.4854,-18.6003 L 71.1089,-5.07733 L 57.5859,-1.45386 z
M -52.6869,-4.28229 L -49.0634,-17.8053 L -35.5405,-14.1818 L -39.164,-0.658813 z
M 35.5405,-14.1818 L 49.0634,-17.8053 L 52.6869,-4.28229 L 39.164,-0.658813 z
M -91.6013,1.85503 L -87.9779,-11.6679 L -74.4549,-8.04445 L -78.0784,5.47849 z
M 74.4549,-8.04445 L 87.9779,-11.6679 L 91.6013,1.85503 L 78.0784,5.47849 z
M -36.3355,4.24014 L -32.7121,-9.28281 L -19.1891,-5.65933 L -22.8126,7.86362 z
M 19.1891,-5.65933 L 32.7121,-9.28281 L 36.3355,4.24014 L 22.8126,7.86362 z
M 2.32007,0.931244 L 15.843,-2.69221 L 19.4665,10.8307 L 5.94354,14.4542 z
M -19.4665,10.8307 L -15.843,-2.69221 L -2.32007,0.931244 L -5.94354,14.4542 z
M -75.5088,11.3434 L -71.8853,-2.17955 L -58.3624,1.44391 L -61.9858,14.9669 z
M 58.3624,1.44391 L 71.8853,-2.17955 L 75.5088,11.3434 L 61.9858,14.9669 z
M -57.0868,12.1384 L -53.4634,-1.38451 L -39.9404,2.23894 L -43.5639,15.7619 z
M 39.9404,2.23894 L 53.4634,-1.38451 L 57.0868,12.1384 L 43.5639,15.7619 z
M 78.8548,8.37627 L 92.3778,4.75281 L 96.0013,18.2758 L 82.4783,21.8992 z
M -96.0013,18.2758 L -92.3778,4.75281 L -78.8548,8.37627 L -82.4783,21.8992 z
M 23.589,10.7614 L 37.112,7.13792 L 40.7355,20.6609 L 27.2125,24.2843 z
M -40.7355,20.6609 L -37.112,7.13792 L -23.589,10.7614 L -27.2125,24.2843 z
M 6.72,17.352 L 20.243,13.7285 L 23.8664,27.2515 L 10.3435,30.8749 z
M -23.8664,27.2515 L -20.243,13.7285 L -6.72,17.352 L -10.3435,30.8749 z
M -79.9087,27.7641 L -76.2852,14.2412 L -62.7623,17.8646 L -66.3857,31.3876 z
M 62.7623,17.8646 L 76.2852,14.2412 L 79.9087,27.7641 L 66.3857,31.3876 z
M 44.3403,18.6597 L 57.8633,15.0362 L 61.4868,28.5592 L 47.9638,32.1826 z
M -61.4868,28.5592 L -57.8633,15.0362 L -44.3403,18.6597 L -47.9638,32.1826 z
M 83.2548,24.797 L 96.7777,21.1735 L 100.401,34.6965 L 86.8782,38.32 z
M -100.401,34.6965 L -96.7777,21.1735 L -83.2548,24.797 L -86.8782,38.32 z
M -45.1354,37.0816 L -41.5119,23.5587 L -27.989,27.1821 L -31.6124,40.7051 z
M 27.989,27.1821 L 41.5119,23.5587 L 45.1354,37.0816 L 31.6124,40.7051 z
M -28.2663,43.6722 L -24.6429,30.1493 L -11.1199,33.7727 L -14.7434,47.2957 z
M 11.1199,33.7727 L 24.6429,30.1493 L 28.2663,43.6722 L 14.7434,47.2957 z
M -58.2286,51.173 L -54.6052,37.65 L -41.0822,41.2735 L -44.7057,54.7965 z
M 41.0822,41.2735 L 54.6052,37.65 L 58.2286,51.173 L 44.7057,54.7965 z
M 24.2132,47.8641 L 37.7361,44.2406 L 41.3596,57.7636 L 27.8366,61.3871 z
M -41.3596,57.7636 L -37.7361,44.2406 L -24.2132,47.8641 L -27.8366,61.3871 z
M 6.82651,52.5228 L 20.3495,48.8994 L 23.9729,62.4223 L 10.45,66.0458 z
M -23.9729,62.4223 L -20.3495,48.8994 L -6.82651,52.5228 L -10.45,66.0458 z
" stroke="black" fill="lightgray" stroke-width="0.5"/>
</svg>
