M48
; DRILL file {KiCad 8.0.6+1} date 2024-12-07T22:08:25+0100
; FORMAT={-:-/ absolute / metric / decimal}
; #@! TF.CreationDate,2024-12-07T22:08:25+01:00
; #@! TF.GenerationSoftware,Kicad,Pcbnew,8.0.6+1
; #@! TF.FileFunction,NonPlated,1,2,NPTH
FMAT,2
METRIC
; #@! TA.AperFunction,NonPlated,NPTH,ComponentDrill
T1C0.650
; #@! TA.AperFunction,NonPlated,NPTH,ComponentDrill
T2C1.702
; #@! TA.AperFunction,NonPlated,NPTH,ComponentDrill
T3C3.429
%
G90
G05
T1
X147.11Y-36.275
X152.89Y-36.275
T2
X52.859Y-68.323
X57.259Y-51.902
X61.659Y-35.481
X63.485Y-71.171
X67.885Y-54.75
X72.285Y-38.329
X73.352Y-61.39
X77.751Y-44.97
X82.151Y-28.549
X83.978Y-64.238
X88.377Y-47.818
X91.773Y-62.185
X92.777Y-31.397
X95.032Y-84.799
X96.173Y-45.765
X100.573Y-29.344
X102.399Y-65.033
X105.658Y-87.647
X106.799Y-48.613
X108.125Y-70.708
X111.199Y-32.192
X111.901Y-91.39
X112.525Y-54.287
X116.925Y-37.866
X118.751Y-73.556
X122.527Y-94.238
X123.151Y-57.135
X124.994Y-77.298
X127.551Y-40.714
X129.287Y-96.049
X129.394Y-60.878
X133.794Y-44.457
X135.62Y-80.146
X139.913Y-98.897
X140.02Y-63.726
X144.42Y-47.305
X155.58Y-47.305
X159.98Y-63.726
X160.087Y-98.897
X164.38Y-80.146
X166.206Y-44.457
X170.606Y-60.878
X170.713Y-96.049
X172.449Y-40.714
X175.006Y-77.298
X176.849Y-57.135
X177.473Y-94.238
X181.249Y-73.556
X183.075Y-37.866
X187.475Y-54.287
X188.099Y-91.39
X188.801Y-32.192
X191.875Y-70.708
X193.201Y-48.613
X194.342Y-87.647
X197.601Y-65.033
X199.427Y-29.344
X203.827Y-45.765
X204.968Y-84.799
X207.223Y-31.397
X208.227Y-62.185
X211.623Y-47.818
X216.022Y-64.238
X217.849Y-28.549
X222.249Y-44.97
X226.648Y-61.39
X227.715Y-38.329
X232.115Y-54.75
X236.515Y-71.171
X238.341Y-35.481
X242.741Y-51.902
X247.141Y-68.323
T3
X58.172Y-69.747
X62.572Y-53.326
X66.972Y-36.905
X78.665Y-62.814
X83.064Y-46.394
X87.464Y-29.973
X97.086Y-63.609
X100.345Y-86.223
X101.486Y-47.189
X105.886Y-30.768
X113.438Y-72.132
X117.214Y-92.814
X117.838Y-55.711
X122.238Y-39.29
X130.307Y-78.722
X134.6Y-97.473
X134.707Y-62.302
X139.107Y-45.881
X160.893Y-45.881
X165.293Y-62.302
X165.4Y-97.473
X169.693Y-78.722
X177.762Y-39.29
X182.162Y-55.711
X182.786Y-92.814
X186.562Y-72.132
X194.114Y-30.768
X198.514Y-47.189
X199.655Y-86.223
X202.914Y-63.609
X212.536Y-29.973
X216.936Y-46.394
X221.335Y-62.814
X233.028Y-36.905
X237.428Y-53.326
X241.828Y-69.747
M30
