G04 #@! TF.GenerationSoftware,KiCad,Pcbnew,8.0.6+1*
G04 #@! TF.CreationDate,2024-12-07T22:08:21+01:00*
G04 #@! TF.ProjectId,keymini,6b65796d-696e-4692-9e6b-696361645f70,rev?*
G04 #@! TF.SameCoordinates,Original*
G04 #@! TF.FileFunction,Soldermask,Bot*
G04 #@! TF.FilePolarity,Negative*
%FSLAX46Y46*%
G04 Gerber Fmt 4.6, Leading zero omitted, Abs format (unit mm)*
G04 Created by KiCad (PCBNEW 8.0.6+1) date 2024-12-07 22:08:21*
%MOMM*%
%LPD*%
G01*
G04 APERTURE LIST*
%ADD10C,1.701800*%
%ADD11C,3.429000*%
%ADD12C,2.032000*%
%ADD13C,0.650000*%
%ADD14O,1.000000X2.100000*%
%ADD15O,1.000000X1.600000*%
%ADD16R,1.500000X1.500000*%
G04 APERTURE END LIST*
D10*
G04 #@! TO.C,SW1J1*
X227715408Y-38328505D03*
D11*
X233028000Y-36905000D03*
D10*
X238340592Y-35481495D03*
D12*
X234555032Y-42603962D03*
X229181883Y-41869613D03*
G04 #@! TD*
D10*
G04 #@! TO.C,SW4F1*
X160087408Y-98896505D03*
D11*
X165400000Y-97473000D03*
D10*
X170712592Y-96049495D03*
D12*
X166927032Y-103171962D03*
X161553883Y-102437613D03*
G04 #@! TD*
D10*
G04 #@! TO.C,SW2I1*
X211623408Y-47817505D03*
D11*
X216936000Y-46394000D03*
D10*
X222248592Y-44970495D03*
D12*
X218463032Y-52092962D03*
X213089883Y-51358613D03*
G04 #@! TD*
D10*
G04 #@! TO.C,SW3I1*
X216022408Y-64237505D03*
D11*
X221335000Y-62814000D03*
D10*
X226647592Y-61390495D03*
D12*
X222862032Y-68512962D03*
X217488883Y-67778613D03*
G04 #@! TD*
D10*
G04 #@! TO.C,SW1G1*
X172449408Y-40713505D03*
D11*
X177762000Y-39290000D03*
D10*
X183074592Y-37866495D03*
D12*
X179289032Y-44988962D03*
X173915883Y-44254613D03*
G04 #@! TD*
D10*
G04 #@! TO.C,SW4E1*
X129287408Y-96049495D03*
D11*
X134600000Y-97473000D03*
D10*
X139912592Y-98896505D03*
D12*
X133072968Y-103171962D03*
X128786858Y-99849423D03*
G04 #@! TD*
D10*
G04 #@! TO.C,SW3G1*
X181249408Y-73555505D03*
D11*
X186562000Y-72132000D03*
D10*
X191874592Y-70708495D03*
D12*
X188089032Y-77830962D03*
X182715883Y-77096613D03*
G04 #@! TD*
D10*
G04 #@! TO.C,SW3C1*
X91773408Y-62185495D03*
D11*
X97086000Y-63609000D03*
D10*
X102398592Y-65032505D03*
D12*
X95558968Y-69307962D03*
X91272858Y-65985423D03*
G04 #@! TD*
D10*
G04 #@! TO.C,SW4D1*
X111901408Y-91390495D03*
D11*
X117214000Y-92814000D03*
D10*
X122526592Y-94237505D03*
D12*
X115686968Y-98512962D03*
X111400858Y-95190423D03*
G04 #@! TD*
D10*
G04 #@! TO.C,SW4C1*
X95032408Y-84799495D03*
D11*
X100345000Y-86223000D03*
D10*
X105657592Y-87646505D03*
D12*
X98817968Y-91921962D03*
X94531858Y-88599423D03*
G04 #@! TD*
D10*
G04 #@! TO.C,SW2F1*
X159980408Y-63725505D03*
D11*
X165293000Y-62302000D03*
D10*
X170605592Y-60878495D03*
D12*
X166820032Y-68000962D03*
X161446883Y-67266613D03*
G04 #@! TD*
D10*
G04 #@! TO.C,SW4G1*
X177473408Y-94237505D03*
D11*
X182786000Y-92814000D03*
D10*
X188098592Y-91390495D03*
D12*
X184313032Y-98512962D03*
X178939883Y-97778613D03*
G04 #@! TD*
D10*
G04 #@! TO.C,SW2G1*
X176849408Y-57134505D03*
D11*
X182162000Y-55711000D03*
D10*
X187474592Y-54287495D03*
D12*
X183689032Y-61409962D03*
X178315883Y-60675613D03*
G04 #@! TD*
D10*
G04 #@! TO.C,SW1H1*
X188801408Y-32191505D03*
D11*
X194114000Y-30768000D03*
D10*
X199426592Y-29344495D03*
D12*
X195641032Y-36466962D03*
X190267883Y-35732613D03*
G04 #@! TD*
D10*
G04 #@! TO.C,SW3A1*
X52859408Y-68323495D03*
D11*
X58172000Y-69747000D03*
D10*
X63484592Y-71170505D03*
D12*
X56644968Y-75445962D03*
X52358858Y-72123423D03*
G04 #@! TD*
D10*
G04 #@! TO.C,SW3F1*
X164380408Y-80145505D03*
D11*
X169693000Y-78722000D03*
D10*
X175005592Y-77298495D03*
D12*
X171220032Y-84420962D03*
X165846883Y-83686613D03*
G04 #@! TD*
D10*
G04 #@! TO.C,SW2E1*
X129394408Y-60878495D03*
D11*
X134707000Y-62302000D03*
D10*
X140019592Y-63725505D03*
D12*
X133179968Y-68000962D03*
X128893858Y-64678423D03*
G04 #@! TD*
D10*
G04 #@! TO.C,SW3D1*
X108125408Y-70708495D03*
D11*
X113438000Y-72132000D03*
D10*
X118750592Y-73555505D03*
D12*
X111910968Y-77830962D03*
X107624858Y-74508423D03*
G04 #@! TD*
D10*
G04 #@! TO.C,SW3J1*
X236515408Y-71170505D03*
D11*
X241828000Y-69747000D03*
D10*
X247140592Y-68323495D03*
D12*
X243355032Y-75445962D03*
X237981883Y-74711613D03*
G04 #@! TD*
D10*
G04 #@! TO.C,SW3B1*
X73352408Y-61390495D03*
D11*
X78665000Y-62814000D03*
D10*
X83977592Y-64237505D03*
D12*
X77137968Y-68512962D03*
X72851858Y-65190423D03*
G04 #@! TD*
D10*
G04 #@! TO.C,SW1F1*
X155580408Y-47304505D03*
D11*
X160893000Y-45881000D03*
D10*
X166205592Y-44457495D03*
D12*
X162420032Y-51579962D03*
X157046883Y-50845613D03*
G04 #@! TD*
D10*
G04 #@! TO.C,SW2D1*
X112525408Y-54287495D03*
D11*
X117838000Y-55711000D03*
D10*
X123150592Y-57134505D03*
D12*
X116310968Y-61409962D03*
X112024858Y-58087423D03*
G04 #@! TD*
D10*
G04 #@! TO.C,SW4H1*
X194342408Y-87646505D03*
D11*
X199655000Y-86223000D03*
D10*
X204967592Y-84799495D03*
D12*
X201182032Y-91921962D03*
X195808883Y-91187613D03*
G04 #@! TD*
D10*
G04 #@! TO.C,SW2B1*
X77751408Y-44970495D03*
D11*
X83064000Y-46394000D03*
D10*
X88376592Y-47817505D03*
D12*
X81536968Y-52092962D03*
X77250858Y-48770423D03*
G04 #@! TD*
D10*
G04 #@! TO.C,SW1E1*
X133794408Y-44457495D03*
D11*
X139107000Y-45881000D03*
D10*
X144419592Y-47304505D03*
D12*
X137579968Y-51579962D03*
X133293858Y-48257423D03*
G04 #@! TD*
D13*
G04 #@! TO.C,J1*
X152890000Y-36275000D03*
X147110000Y-36275000D03*
D14*
X154320000Y-36805000D03*
D15*
X154320000Y-32625000D03*
D14*
X145680000Y-36805000D03*
D15*
X145680000Y-32625000D03*
G04 #@! TD*
D10*
G04 #@! TO.C,SW3H1*
X197601408Y-65032505D03*
D11*
X202914000Y-63609000D03*
D10*
X208226592Y-62185495D03*
D12*
X204441032Y-69307962D03*
X199067883Y-68573613D03*
G04 #@! TD*
D10*
G04 #@! TO.C,SW2J1*
X232115408Y-54749505D03*
D11*
X237428000Y-53326000D03*
D10*
X242740592Y-51902495D03*
D12*
X238955032Y-59024962D03*
X233581883Y-58290613D03*
G04 #@! TD*
D10*
G04 #@! TO.C,SW1B1*
X82151408Y-28549495D03*
D11*
X87464000Y-29973000D03*
D10*
X92776592Y-31396505D03*
D12*
X85936968Y-35671962D03*
X81650858Y-32349423D03*
G04 #@! TD*
D10*
G04 #@! TO.C,SW1D1*
X116925408Y-37866495D03*
D11*
X122238000Y-39290000D03*
D10*
X127550592Y-40713505D03*
D12*
X120710968Y-44988962D03*
X116424858Y-41666423D03*
G04 #@! TD*
D10*
G04 #@! TO.C,SW2A1*
X57259408Y-51902495D03*
D11*
X62572000Y-53326000D03*
D10*
X67884592Y-54749505D03*
D12*
X61044968Y-59024962D03*
X56758858Y-55702423D03*
G04 #@! TD*
D10*
G04 #@! TO.C,SW1A1*
X61659408Y-35481495D03*
D11*
X66972000Y-36905000D03*
D10*
X72284592Y-38328505D03*
D12*
X65444968Y-42603962D03*
X61158858Y-39281423D03*
G04 #@! TD*
D10*
G04 #@! TO.C,SW3E1*
X124994408Y-77298495D03*
D11*
X130307000Y-78722000D03*
D10*
X135619592Y-80145505D03*
D12*
X128779968Y-84420962D03*
X124493858Y-81098423D03*
G04 #@! TD*
D10*
G04 #@! TO.C,SW2C1*
X96173408Y-45765495D03*
D11*
X101486000Y-47189000D03*
D10*
X106798592Y-48612505D03*
D12*
X99958968Y-52887962D03*
X95672858Y-49565423D03*
G04 #@! TD*
D10*
G04 #@! TO.C,SW1C1*
X100573408Y-29344495D03*
D11*
X105886000Y-30768000D03*
D10*
X111198592Y-32191505D03*
D12*
X104358968Y-36466962D03*
X100072858Y-33144423D03*
G04 #@! TD*
D10*
G04 #@! TO.C,SW2H1*
X193201408Y-48612505D03*
D11*
X198514000Y-47189000D03*
D10*
X203826592Y-45765495D03*
D12*
X200041032Y-52887962D03*
X194667883Y-52153613D03*
G04 #@! TD*
D10*
G04 #@! TO.C,SW1I1*
X207223408Y-31396505D03*
D11*
X212536000Y-29973000D03*
D10*
X217848592Y-28549495D03*
D12*
X214063032Y-35671962D03*
X208689883Y-34937613D03*
G04 #@! TD*
D16*
G04 #@! TO.C,BOOT0*
X154000000Y-88000000D03*
X146200000Y-88000000D03*
G04 #@! TD*
M02*
