%TF.GenerationSoftware,KiCad,Pcbnew,8.0.6+1*%
%TF.CreationDate,2024-12-08T12:34:57+01:00*%
%TF.ProjectId,keymini,6b65796d-696e-4692-9e6b-696361645f70,rev?*%
%TF.SameCoordinates,Original*%
%TF.FileFunction,Drillmap*%
%TF.FilePolarity,Positive*%
%FSLAX45Y45*%
G04 Gerber Fmt 4.5, Leading zero omitted, Abs format (unit mm)*
G04 Created by KiCad (PCBNEW 8.0.6+1) date 2024-12-08 12:34:57*
%MOMM*%
%LPD*%
G01*
G04 APERTURE LIST*
%ADD10C,0.200000*%
%ADD11C,0.100000*%
%ADD12C,0.127000*%
G04 APERTURE END LIST*
D10*
X9939290Y-2022820D02*
X8097100Y-1943320D01*
X25272100Y-7562770D02*
X23952150Y-2636560D01*
X21902900Y-1943320D02*
X20060710Y-2022820D01*
X15890636Y-10801230D02*
X19367970Y-9869480D01*
X23952150Y-2636560D02*
X21902900Y-1943320D01*
X11677960Y-2488700D02*
X9939290Y-2022820D01*
X4727900Y-7562770D02*
X10632030Y-9869480D01*
X8097100Y-1943320D02*
X6047850Y-2636560D01*
X17198130Y-3000000D02*
X12801870Y-3000000D01*
X6047850Y-2636560D02*
X4727900Y-7562770D01*
X10632030Y-9869480D02*
X14109364Y-10801230D01*
X18322040Y-2488700D02*
X17198130Y-3000000D01*
X14109364Y-10801230D02*
X15890636Y-10801230D01*
X20060710Y-2022820D02*
X18322040Y-2488700D01*
X19367970Y-9869480D02*
X25272100Y-7562770D01*
X12801870Y-3000000D02*
X11677960Y-2488700D01*
D11*
X13935000Y-8035000D02*
X13965000Y-8065000D01*
X13965000Y-8035000D02*
X13935000Y-8065000D01*
X14035000Y-7885000D02*
X14065000Y-7915000D01*
X14065000Y-7885000D02*
X14035000Y-7915000D01*
X14135000Y-7735000D02*
X14165000Y-7765000D01*
X14165000Y-7735000D02*
X14135000Y-7765000D01*
X14285000Y-7735000D02*
X14315000Y-7765000D01*
X14315000Y-7735000D02*
X14285000Y-7765000D01*
X14285000Y-7885000D02*
X14315000Y-7915000D01*
X14315000Y-7885000D02*
X14285000Y-7915000D01*
X14285000Y-8035000D02*
X14315000Y-8065000D01*
X14315000Y-8035000D02*
X14285000Y-8065000D01*
X14285000Y-8185000D02*
X14315000Y-8215000D01*
X14315000Y-8185000D02*
X14285000Y-8215000D01*
X14285000Y-9235000D02*
X14315000Y-9265000D01*
X14315000Y-9235000D02*
X14285000Y-9265000D01*
X14385000Y-8835000D02*
X14415000Y-8865000D01*
X14415000Y-8835000D02*
X14385000Y-8865000D01*
X14485000Y-7185000D02*
X14515000Y-7215000D01*
X14515000Y-7185000D02*
X14485000Y-7215000D01*
X14685000Y-6160000D02*
X14715000Y-6190000D01*
X14715000Y-6160000D02*
X14685000Y-6190000D01*
X14735000Y-8235000D02*
X14765000Y-8265000D01*
X14765000Y-8235000D02*
X14735000Y-8265000D01*
X14735000Y-8785000D02*
X14765000Y-8815000D01*
X14765000Y-8785000D02*
X14735000Y-8815000D01*
X14785000Y-7335000D02*
X14815000Y-7365000D01*
X14815000Y-7335000D02*
X14785000Y-7365000D01*
X14935000Y-7935000D02*
X14965000Y-7965000D01*
X14965000Y-7935000D02*
X14935000Y-7965000D01*
X14985000Y-8035000D02*
X15015000Y-8065000D01*
X15015000Y-8035000D02*
X14985000Y-8065000D01*
X15035000Y-8135000D02*
X15065000Y-8165000D01*
X15065000Y-8135000D02*
X15035000Y-8165000D01*
X15085000Y-8235000D02*
X15115000Y-8265000D01*
X15115000Y-8235000D02*
X15085000Y-8265000D01*
X15135000Y-8335000D02*
X15165000Y-8365000D01*
X15165000Y-8335000D02*
X15135000Y-8365000D01*
X15185000Y-8985000D02*
X15215000Y-9015000D01*
X15215000Y-8985000D02*
X15185000Y-9015000D01*
X15285000Y-6085000D02*
X15315000Y-6115000D01*
X15315000Y-6085000D02*
X15285000Y-6115000D01*
X15285000Y-9085000D02*
X15315000Y-9115000D01*
X15315000Y-9085000D02*
X15285000Y-9115000D01*
X15733139Y-7933139D02*
X15763139Y-7963139D01*
X15763139Y-7933139D02*
X15733139Y-7963139D01*
X15735000Y-7285000D02*
X15765000Y-7315000D01*
X15765000Y-7285000D02*
X15735000Y-7315000D01*
X15735000Y-7835000D02*
X15765000Y-7865000D01*
X15765000Y-7835000D02*
X15735000Y-7865000D01*
X15735000Y-8035000D02*
X15765000Y-8065000D01*
X15765000Y-8035000D02*
X15735000Y-8065000D01*
X15735000Y-8135000D02*
X15765000Y-8165000D01*
X15765000Y-8135000D02*
X15735000Y-8165000D01*
X15751278Y-8510000D02*
X15781278Y-8540000D01*
X15781278Y-8510000D02*
X15751278Y-8540000D01*
X14598000Y-3262500D02*
G75*
G02*
X14538000Y-3262500I-30000J0D01*
G01*
X14538000Y-3262500D02*
G75*
G02*
X14598000Y-3262500I30000J0D01*
G01*
X14598000Y-3292500D02*
X14598000Y-3232500D01*
X14538000Y-3232500D02*
G75*
G02*
X14598000Y-3232500I30000J0D01*
G01*
X14538000Y-3232500D02*
X14538000Y-3292500D01*
X14538000Y-3292500D02*
G75*
G03*
X14598000Y-3292500I30000J0D01*
G01*
X14598000Y-3680500D02*
G75*
G02*
X14538000Y-3680500I-30000J0D01*
G01*
X14538000Y-3680500D02*
G75*
G02*
X14598000Y-3680500I30000J0D01*
G01*
X14598000Y-3735500D02*
X14598000Y-3625500D01*
X14538000Y-3625500D02*
G75*
G02*
X14598000Y-3625500I30000J0D01*
G01*
X14538000Y-3625500D02*
X14538000Y-3735500D01*
X14538000Y-3735500D02*
G75*
G03*
X14598000Y-3735500I30000J0D01*
G01*
X15462000Y-3262500D02*
G75*
G02*
X15402000Y-3262500I-30000J0D01*
G01*
X15402000Y-3262500D02*
G75*
G02*
X15462000Y-3262500I30000J0D01*
G01*
X15462000Y-3292500D02*
X15462000Y-3232500D01*
X15402000Y-3232500D02*
G75*
G02*
X15462000Y-3232500I30000J0D01*
G01*
X15402000Y-3232500D02*
X15402000Y-3292500D01*
X15402000Y-3292500D02*
G75*
G03*
X15462000Y-3292500I30000J0D01*
G01*
X15462000Y-3680500D02*
G75*
G02*
X15402000Y-3680500I-30000J0D01*
G01*
X15402000Y-3680500D02*
G75*
G02*
X15462000Y-3680500I30000J0D01*
G01*
X15462000Y-3735500D02*
X15462000Y-3625500D01*
X15402000Y-3625500D02*
G75*
G02*
X15462000Y-3625500I30000J0D01*
G01*
X15402000Y-3625500D02*
X15402000Y-3735500D01*
X15402000Y-3735500D02*
G75*
G03*
X15462000Y-3735500I30000J0D01*
G01*
D12*
X5235886Y-7148842D02*
X5235886Y-7275842D01*
X5172386Y-7212342D02*
X5299386Y-7212342D01*
X5664497Y-7481096D02*
X5664497Y-7608096D01*
X5600997Y-7544596D02*
X5727997Y-7544596D01*
X5675886Y-5506742D02*
X5675886Y-5633742D01*
X5612386Y-5570242D02*
X5739386Y-5570242D01*
X6104497Y-5838996D02*
X6104497Y-5965996D01*
X6040997Y-5902496D02*
X6167997Y-5902496D01*
X6115886Y-3864642D02*
X6115886Y-3991642D01*
X6052386Y-3928142D02*
X6179386Y-3928142D01*
X6544497Y-4196896D02*
X6544497Y-4323896D01*
X6480997Y-4260396D02*
X6607997Y-4260396D01*
X7285186Y-6455542D02*
X7285186Y-6582542D01*
X7221686Y-6519042D02*
X7348686Y-6519042D01*
X7713797Y-6787796D02*
X7713797Y-6914796D01*
X7650297Y-6851296D02*
X7777297Y-6851296D01*
X7725086Y-4813542D02*
X7725086Y-4940542D01*
X7661586Y-4877042D02*
X7788586Y-4877042D01*
X8153697Y-5145796D02*
X8153697Y-5272796D01*
X8090197Y-5209296D02*
X8217197Y-5209296D01*
X8165086Y-3171442D02*
X8165086Y-3298442D01*
X8101586Y-3234942D02*
X8228586Y-3234942D01*
X8593697Y-3503696D02*
X8593697Y-3630696D01*
X8530197Y-3567196D02*
X8657197Y-3567196D01*
X9127286Y-6535042D02*
X9127286Y-6662042D01*
X9063786Y-6598542D02*
X9190786Y-6598542D01*
X9453186Y-8796442D02*
X9453186Y-8923442D01*
X9389686Y-8859942D02*
X9516686Y-8859942D01*
X9555897Y-6867296D02*
X9555897Y-6994296D01*
X9492397Y-6930796D02*
X9619397Y-6930796D01*
X9567286Y-4893042D02*
X9567286Y-5020042D01*
X9503786Y-4956542D02*
X9630786Y-4956542D01*
X9881797Y-9128696D02*
X9881797Y-9255696D01*
X9818297Y-9192196D02*
X9945297Y-9192196D01*
X9995897Y-5225296D02*
X9995897Y-5352296D01*
X9932397Y-5288796D02*
X10059397Y-5288796D01*
X10007286Y-3250942D02*
X10007286Y-3377942D01*
X9943786Y-3314442D02*
X10070786Y-3314442D01*
X10435897Y-3583196D02*
X10435897Y-3710196D01*
X10372397Y-3646696D02*
X10499397Y-3646696D01*
X10762486Y-7387342D02*
X10762486Y-7514342D01*
X10698986Y-7450842D02*
X10825986Y-7450842D01*
X11140086Y-9455542D02*
X11140086Y-9582542D01*
X11076586Y-9519042D02*
X11203586Y-9519042D01*
X11191097Y-7719596D02*
X11191097Y-7846596D01*
X11127597Y-7783096D02*
X11254597Y-7783096D01*
X11202486Y-5745242D02*
X11202486Y-5872242D01*
X11138986Y-5808742D02*
X11265986Y-5808742D01*
X11568697Y-9787796D02*
X11568697Y-9914796D01*
X11505197Y-9851296D02*
X11632197Y-9851296D01*
X11631097Y-6077496D02*
X11631097Y-6204496D01*
X11567597Y-6140996D02*
X11694597Y-6140996D01*
X11642486Y-4103142D02*
X11642486Y-4230142D01*
X11578986Y-4166642D02*
X11705986Y-4166642D01*
X12071097Y-4435396D02*
X12071097Y-4562396D01*
X12007597Y-4498896D02*
X12134597Y-4498896D01*
X12449386Y-8046342D02*
X12449386Y-8173342D01*
X12385886Y-8109842D02*
X12512886Y-8109842D01*
X12877997Y-8378596D02*
X12877997Y-8505596D01*
X12814497Y-8442096D02*
X12941497Y-8442096D01*
X12878686Y-9921442D02*
X12878686Y-10048442D01*
X12815186Y-9984942D02*
X12942186Y-9984942D01*
X12889386Y-6404342D02*
X12889386Y-6531342D01*
X12825886Y-6467842D02*
X12952886Y-6467842D01*
X13307297Y-10253696D02*
X13307297Y-10380696D01*
X13243797Y-10317196D02*
X13370797Y-10317196D01*
X13317997Y-6736596D02*
X13317997Y-6863596D01*
X13254497Y-6800096D02*
X13381497Y-6800096D01*
X13329386Y-4762242D02*
X13329386Y-4889242D01*
X13265886Y-4825742D02*
X13392886Y-4825742D01*
X13757997Y-5094496D02*
X13757997Y-5221496D01*
X13694497Y-5157996D02*
X13821497Y-5157996D01*
X15704688Y-5021061D02*
X15704688Y-5148061D01*
X15641188Y-5084561D02*
X15768188Y-5084561D01*
X16144688Y-6663161D02*
X16144688Y-6790161D01*
X16081188Y-6726661D02*
X16208188Y-6726661D01*
X16155388Y-10180261D02*
X16155388Y-10307261D01*
X16091888Y-10243761D02*
X16218888Y-10243761D01*
X16242003Y-5094496D02*
X16242003Y-5221496D01*
X16178503Y-5157996D02*
X16305503Y-5157996D01*
X16584688Y-8305161D02*
X16584688Y-8432161D01*
X16521188Y-8368661D02*
X16648188Y-8368661D01*
X16682003Y-6736596D02*
X16682003Y-6863596D01*
X16618503Y-6800096D02*
X16745503Y-6800096D01*
X16692703Y-10253696D02*
X16692703Y-10380696D01*
X16629203Y-10317196D02*
X16756203Y-10317196D01*
X17122003Y-8378596D02*
X17122003Y-8505596D01*
X17058503Y-8442096D02*
X17185503Y-8442096D01*
X17391588Y-4361961D02*
X17391588Y-4488961D01*
X17328088Y-4425461D02*
X17455088Y-4425461D01*
X17831588Y-6004061D02*
X17831588Y-6131061D01*
X17768088Y-6067561D02*
X17895088Y-6067561D01*
X17893988Y-9714361D02*
X17893988Y-9841361D01*
X17830488Y-9777861D02*
X17957488Y-9777861D01*
X17928903Y-4435396D02*
X17928903Y-4562396D01*
X17865403Y-4498896D02*
X17992403Y-4498896D01*
X18271588Y-7646161D02*
X18271588Y-7773161D01*
X18208088Y-7709661D02*
X18335088Y-7709661D01*
X18368903Y-6077496D02*
X18368903Y-6204496D01*
X18305403Y-6140996D02*
X18432403Y-6140996D01*
X18431303Y-9787796D02*
X18431303Y-9914796D01*
X18367803Y-9851296D02*
X18494803Y-9851296D01*
X18808903Y-7719596D02*
X18808903Y-7846596D01*
X18745403Y-7783096D02*
X18872403Y-7783096D01*
X19026788Y-3509761D02*
X19026788Y-3636761D01*
X18963288Y-3573261D02*
X19090288Y-3573261D01*
X19466788Y-5151861D02*
X19466788Y-5278861D01*
X19403288Y-5215361D02*
X19530288Y-5215361D01*
X19564103Y-3583196D02*
X19564103Y-3710196D01*
X19500603Y-3646696D02*
X19627603Y-3646696D01*
X19580888Y-9055261D02*
X19580888Y-9182261D01*
X19517388Y-9118761D02*
X19644388Y-9118761D01*
X19906788Y-6793861D02*
X19906788Y-6920861D01*
X19843288Y-6857361D02*
X19970288Y-6857361D01*
X20004103Y-5225296D02*
X20004103Y-5352296D01*
X19940603Y-5288796D02*
X20067603Y-5288796D01*
X20118203Y-9128696D02*
X20118203Y-9255696D01*
X20054703Y-9192196D02*
X20181703Y-9192196D01*
X20444103Y-6867296D02*
X20444103Y-6994296D01*
X20380603Y-6930796D02*
X20507603Y-6930796D01*
X20868988Y-3430261D02*
X20868988Y-3557261D01*
X20805488Y-3493761D02*
X20932488Y-3493761D01*
X21308988Y-5072361D02*
X21308988Y-5199361D01*
X21245488Y-5135861D02*
X21372488Y-5135861D01*
X21406303Y-3503696D02*
X21406303Y-3630696D01*
X21342803Y-3567196D02*
X21469803Y-3567196D01*
X21748888Y-6714361D02*
X21748888Y-6841361D01*
X21685388Y-6777861D02*
X21812388Y-6777861D01*
X21846303Y-5145796D02*
X21846303Y-5272796D01*
X21782803Y-5209296D02*
X21909803Y-5209296D01*
X22286203Y-6787796D02*
X22286203Y-6914796D01*
X22222703Y-6851296D02*
X22349703Y-6851296D01*
X22918188Y-4123461D02*
X22918188Y-4250461D01*
X22854688Y-4186961D02*
X22981688Y-4186961D01*
X23358188Y-5765561D02*
X23358188Y-5892561D01*
X23294688Y-5829061D02*
X23421688Y-5829061D01*
X23455503Y-4196896D02*
X23455503Y-4323896D01*
X23392003Y-4260396D02*
X23519003Y-4260396D01*
X23798188Y-7407661D02*
X23798188Y-7534661D01*
X23734688Y-7471161D02*
X23861688Y-7471161D01*
X23895503Y-5838996D02*
X23895503Y-5965996D01*
X23832003Y-5902496D02*
X23959003Y-5902496D01*
X24335503Y-7481096D02*
X24335503Y-7608096D01*
X24272003Y-7544596D02*
X24399003Y-7544596D01*
D10*
X4978677Y-11122714D02*
X4978677Y-10922714D01*
X4978677Y-10922714D02*
X5026296Y-10922714D01*
X5026296Y-10922714D02*
X5054867Y-10932238D01*
X5054867Y-10932238D02*
X5073915Y-10951285D01*
X5073915Y-10951285D02*
X5083439Y-10970333D01*
X5083439Y-10970333D02*
X5092963Y-11008428D01*
X5092963Y-11008428D02*
X5092963Y-11037000D01*
X5092963Y-11037000D02*
X5083439Y-11075095D01*
X5083439Y-11075095D02*
X5073915Y-11094142D01*
X5073915Y-11094142D02*
X5054867Y-11113190D01*
X5054867Y-11113190D02*
X5026296Y-11122714D01*
X5026296Y-11122714D02*
X4978677Y-11122714D01*
X5178677Y-11122714D02*
X5178677Y-10989380D01*
X5178677Y-11027476D02*
X5188201Y-11008428D01*
X5188201Y-11008428D02*
X5197724Y-10998904D01*
X5197724Y-10998904D02*
X5216772Y-10989380D01*
X5216772Y-10989380D02*
X5235820Y-10989380D01*
X5302486Y-11122714D02*
X5302486Y-10989380D01*
X5302486Y-10922714D02*
X5292963Y-10932238D01*
X5292963Y-10932238D02*
X5302486Y-10941761D01*
X5302486Y-10941761D02*
X5312010Y-10932238D01*
X5312010Y-10932238D02*
X5302486Y-10922714D01*
X5302486Y-10922714D02*
X5302486Y-10941761D01*
X5426296Y-11122714D02*
X5407248Y-11113190D01*
X5407248Y-11113190D02*
X5397724Y-11094142D01*
X5397724Y-11094142D02*
X5397724Y-10922714D01*
X5531058Y-11122714D02*
X5512010Y-11113190D01*
X5512010Y-11113190D02*
X5502486Y-11094142D01*
X5502486Y-11094142D02*
X5502486Y-10922714D01*
X5759629Y-11122714D02*
X5759629Y-10922714D01*
X5759629Y-10922714D02*
X5826296Y-11065571D01*
X5826296Y-11065571D02*
X5892962Y-10922714D01*
X5892962Y-10922714D02*
X5892962Y-11122714D01*
X6073915Y-11122714D02*
X6073915Y-11017952D01*
X6073915Y-11017952D02*
X6064391Y-10998904D01*
X6064391Y-10998904D02*
X6045343Y-10989380D01*
X6045343Y-10989380D02*
X6007248Y-10989380D01*
X6007248Y-10989380D02*
X5988201Y-10998904D01*
X6073915Y-11113190D02*
X6054867Y-11122714D01*
X6054867Y-11122714D02*
X6007248Y-11122714D01*
X6007248Y-11122714D02*
X5988201Y-11113190D01*
X5988201Y-11113190D02*
X5978677Y-11094142D01*
X5978677Y-11094142D02*
X5978677Y-11075095D01*
X5978677Y-11075095D02*
X5988201Y-11056047D01*
X5988201Y-11056047D02*
X6007248Y-11046523D01*
X6007248Y-11046523D02*
X6054867Y-11046523D01*
X6054867Y-11046523D02*
X6073915Y-11037000D01*
X6169153Y-10989380D02*
X6169153Y-11189380D01*
X6169153Y-10998904D02*
X6188201Y-10989380D01*
X6188201Y-10989380D02*
X6226296Y-10989380D01*
X6226296Y-10989380D02*
X6245343Y-10998904D01*
X6245343Y-10998904D02*
X6254867Y-11008428D01*
X6254867Y-11008428D02*
X6264391Y-11027476D01*
X6264391Y-11027476D02*
X6264391Y-11084619D01*
X6264391Y-11084619D02*
X6254867Y-11103666D01*
X6254867Y-11103666D02*
X6245343Y-11113190D01*
X6245343Y-11113190D02*
X6226296Y-11122714D01*
X6226296Y-11122714D02*
X6188201Y-11122714D01*
X6188201Y-11122714D02*
X6169153Y-11113190D01*
X6350105Y-11103666D02*
X6359629Y-11113190D01*
X6359629Y-11113190D02*
X6350105Y-11122714D01*
X6350105Y-11122714D02*
X6340582Y-11113190D01*
X6340582Y-11113190D02*
X6350105Y-11103666D01*
X6350105Y-11103666D02*
X6350105Y-11122714D01*
X6350105Y-10998904D02*
X6359629Y-11008428D01*
X6359629Y-11008428D02*
X6350105Y-11017952D01*
X6350105Y-11017952D02*
X6340582Y-11008428D01*
X6340582Y-11008428D02*
X6350105Y-10998904D01*
X6350105Y-10998904D02*
X6350105Y-11017952D01*
D11*
X4687900Y-11436230D02*
X4717900Y-11466230D01*
X4717900Y-11436230D02*
X4687900Y-11466230D01*
D10*
X5016772Y-11342714D02*
X5035820Y-11342714D01*
X5035820Y-11342714D02*
X5054867Y-11352238D01*
X5054867Y-11352238D02*
X5064391Y-11361761D01*
X5064391Y-11361761D02*
X5073915Y-11380809D01*
X5073915Y-11380809D02*
X5083439Y-11418904D01*
X5083439Y-11418904D02*
X5083439Y-11466523D01*
X5083439Y-11466523D02*
X5073915Y-11504618D01*
X5073915Y-11504618D02*
X5064391Y-11523666D01*
X5064391Y-11523666D02*
X5054867Y-11533190D01*
X5054867Y-11533190D02*
X5035820Y-11542714D01*
X5035820Y-11542714D02*
X5016772Y-11542714D01*
X5016772Y-11542714D02*
X4997724Y-11533190D01*
X4997724Y-11533190D02*
X4988201Y-11523666D01*
X4988201Y-11523666D02*
X4978677Y-11504618D01*
X4978677Y-11504618D02*
X4969153Y-11466523D01*
X4969153Y-11466523D02*
X4969153Y-11418904D01*
X4969153Y-11418904D02*
X4978677Y-11380809D01*
X4978677Y-11380809D02*
X4988201Y-11361761D01*
X4988201Y-11361761D02*
X4997724Y-11352238D01*
X4997724Y-11352238D02*
X5016772Y-11342714D01*
X5169153Y-11523666D02*
X5178677Y-11533190D01*
X5178677Y-11533190D02*
X5169153Y-11542714D01*
X5169153Y-11542714D02*
X5159629Y-11533190D01*
X5159629Y-11533190D02*
X5169153Y-11523666D01*
X5169153Y-11523666D02*
X5169153Y-11542714D01*
X5245344Y-11342714D02*
X5369153Y-11342714D01*
X5369153Y-11342714D02*
X5302486Y-11418904D01*
X5302486Y-11418904D02*
X5331058Y-11418904D01*
X5331058Y-11418904D02*
X5350105Y-11428428D01*
X5350105Y-11428428D02*
X5359629Y-11437952D01*
X5359629Y-11437952D02*
X5369153Y-11456999D01*
X5369153Y-11456999D02*
X5369153Y-11504618D01*
X5369153Y-11504618D02*
X5359629Y-11523666D01*
X5359629Y-11523666D02*
X5350105Y-11533190D01*
X5350105Y-11533190D02*
X5331058Y-11542714D01*
X5331058Y-11542714D02*
X5273915Y-11542714D01*
X5273915Y-11542714D02*
X5254867Y-11533190D01*
X5254867Y-11533190D02*
X5245344Y-11523666D01*
X5492963Y-11342714D02*
X5512010Y-11342714D01*
X5512010Y-11342714D02*
X5531058Y-11352238D01*
X5531058Y-11352238D02*
X5540582Y-11361761D01*
X5540582Y-11361761D02*
X5550105Y-11380809D01*
X5550105Y-11380809D02*
X5559629Y-11418904D01*
X5559629Y-11418904D02*
X5559629Y-11466523D01*
X5559629Y-11466523D02*
X5550105Y-11504618D01*
X5550105Y-11504618D02*
X5540582Y-11523666D01*
X5540582Y-11523666D02*
X5531058Y-11533190D01*
X5531058Y-11533190D02*
X5512010Y-11542714D01*
X5512010Y-11542714D02*
X5492963Y-11542714D01*
X5492963Y-11542714D02*
X5473915Y-11533190D01*
X5473915Y-11533190D02*
X5464391Y-11523666D01*
X5464391Y-11523666D02*
X5454867Y-11504618D01*
X5454867Y-11504618D02*
X5445344Y-11466523D01*
X5445344Y-11466523D02*
X5445344Y-11418904D01*
X5445344Y-11418904D02*
X5454867Y-11380809D01*
X5454867Y-11380809D02*
X5464391Y-11361761D01*
X5464391Y-11361761D02*
X5473915Y-11352238D01*
X5473915Y-11352238D02*
X5492963Y-11342714D01*
X5683439Y-11342714D02*
X5702486Y-11342714D01*
X5702486Y-11342714D02*
X5721534Y-11352238D01*
X5721534Y-11352238D02*
X5731058Y-11361761D01*
X5731058Y-11361761D02*
X5740582Y-11380809D01*
X5740582Y-11380809D02*
X5750105Y-11418904D01*
X5750105Y-11418904D02*
X5750105Y-11466523D01*
X5750105Y-11466523D02*
X5740582Y-11504618D01*
X5740582Y-11504618D02*
X5731058Y-11523666D01*
X5731058Y-11523666D02*
X5721534Y-11533190D01*
X5721534Y-11533190D02*
X5702486Y-11542714D01*
X5702486Y-11542714D02*
X5683439Y-11542714D01*
X5683439Y-11542714D02*
X5664391Y-11533190D01*
X5664391Y-11533190D02*
X5654867Y-11523666D01*
X5654867Y-11523666D02*
X5645343Y-11504618D01*
X5645343Y-11504618D02*
X5635820Y-11466523D01*
X5635820Y-11466523D02*
X5635820Y-11418904D01*
X5635820Y-11418904D02*
X5645343Y-11380809D01*
X5645343Y-11380809D02*
X5654867Y-11361761D01*
X5654867Y-11361761D02*
X5664391Y-11352238D01*
X5664391Y-11352238D02*
X5683439Y-11342714D01*
X5835820Y-11542714D02*
X5835820Y-11409380D01*
X5835820Y-11428428D02*
X5845343Y-11418904D01*
X5845343Y-11418904D02*
X5864391Y-11409380D01*
X5864391Y-11409380D02*
X5892963Y-11409380D01*
X5892963Y-11409380D02*
X5912010Y-11418904D01*
X5912010Y-11418904D02*
X5921534Y-11437952D01*
X5921534Y-11437952D02*
X5921534Y-11542714D01*
X5921534Y-11437952D02*
X5931058Y-11418904D01*
X5931058Y-11418904D02*
X5950105Y-11409380D01*
X5950105Y-11409380D02*
X5978677Y-11409380D01*
X5978677Y-11409380D02*
X5997724Y-11418904D01*
X5997724Y-11418904D02*
X6007248Y-11437952D01*
X6007248Y-11437952D02*
X6007248Y-11542714D01*
X6102486Y-11542714D02*
X6102486Y-11409380D01*
X6102486Y-11428428D02*
X6112010Y-11418904D01*
X6112010Y-11418904D02*
X6131058Y-11409380D01*
X6131058Y-11409380D02*
X6159629Y-11409380D01*
X6159629Y-11409380D02*
X6178677Y-11418904D01*
X6178677Y-11418904D02*
X6188201Y-11437952D01*
X6188201Y-11437952D02*
X6188201Y-11542714D01*
X6188201Y-11437952D02*
X6197724Y-11418904D01*
X6197724Y-11418904D02*
X6216772Y-11409380D01*
X6216772Y-11409380D02*
X6245343Y-11409380D01*
X6245343Y-11409380D02*
X6264391Y-11418904D01*
X6264391Y-11418904D02*
X6273915Y-11437952D01*
X6273915Y-11437952D02*
X6273915Y-11542714D01*
X6664391Y-11333190D02*
X6492963Y-11590333D01*
X6921534Y-11342714D02*
X6940582Y-11342714D01*
X6940582Y-11342714D02*
X6959629Y-11352238D01*
X6959629Y-11352238D02*
X6969153Y-11361761D01*
X6969153Y-11361761D02*
X6978677Y-11380809D01*
X6978677Y-11380809D02*
X6988201Y-11418904D01*
X6988201Y-11418904D02*
X6988201Y-11466523D01*
X6988201Y-11466523D02*
X6978677Y-11504618D01*
X6978677Y-11504618D02*
X6969153Y-11523666D01*
X6969153Y-11523666D02*
X6959629Y-11533190D01*
X6959629Y-11533190D02*
X6940582Y-11542714D01*
X6940582Y-11542714D02*
X6921534Y-11542714D01*
X6921534Y-11542714D02*
X6902486Y-11533190D01*
X6902486Y-11533190D02*
X6892963Y-11523666D01*
X6892963Y-11523666D02*
X6883439Y-11504618D01*
X6883439Y-11504618D02*
X6873915Y-11466523D01*
X6873915Y-11466523D02*
X6873915Y-11418904D01*
X6873915Y-11418904D02*
X6883439Y-11380809D01*
X6883439Y-11380809D02*
X6892963Y-11361761D01*
X6892963Y-11361761D02*
X6902486Y-11352238D01*
X6902486Y-11352238D02*
X6921534Y-11342714D01*
X7073915Y-11523666D02*
X7083439Y-11533190D01*
X7083439Y-11533190D02*
X7073915Y-11542714D01*
X7073915Y-11542714D02*
X7064391Y-11533190D01*
X7064391Y-11533190D02*
X7073915Y-11523666D01*
X7073915Y-11523666D02*
X7073915Y-11542714D01*
X7207248Y-11342714D02*
X7226296Y-11342714D01*
X7226296Y-11342714D02*
X7245344Y-11352238D01*
X7245344Y-11352238D02*
X7254867Y-11361761D01*
X7254867Y-11361761D02*
X7264391Y-11380809D01*
X7264391Y-11380809D02*
X7273915Y-11418904D01*
X7273915Y-11418904D02*
X7273915Y-11466523D01*
X7273915Y-11466523D02*
X7264391Y-11504618D01*
X7264391Y-11504618D02*
X7254867Y-11523666D01*
X7254867Y-11523666D02*
X7245344Y-11533190D01*
X7245344Y-11533190D02*
X7226296Y-11542714D01*
X7226296Y-11542714D02*
X7207248Y-11542714D01*
X7207248Y-11542714D02*
X7188201Y-11533190D01*
X7188201Y-11533190D02*
X7178677Y-11523666D01*
X7178677Y-11523666D02*
X7169153Y-11504618D01*
X7169153Y-11504618D02*
X7159629Y-11466523D01*
X7159629Y-11466523D02*
X7159629Y-11418904D01*
X7159629Y-11418904D02*
X7169153Y-11380809D01*
X7169153Y-11380809D02*
X7178677Y-11361761D01*
X7178677Y-11361761D02*
X7188201Y-11352238D01*
X7188201Y-11352238D02*
X7207248Y-11342714D01*
X7464391Y-11542714D02*
X7350106Y-11542714D01*
X7407248Y-11542714D02*
X7407248Y-11342714D01*
X7407248Y-11342714D02*
X7388201Y-11371285D01*
X7388201Y-11371285D02*
X7369153Y-11390333D01*
X7369153Y-11390333D02*
X7350106Y-11399857D01*
X7654867Y-11542714D02*
X7540582Y-11542714D01*
X7597725Y-11542714D02*
X7597725Y-11342714D01*
X7597725Y-11342714D02*
X7578677Y-11371285D01*
X7578677Y-11371285D02*
X7559629Y-11390333D01*
X7559629Y-11390333D02*
X7540582Y-11399857D01*
X7769153Y-11428428D02*
X7750106Y-11418904D01*
X7750106Y-11418904D02*
X7740582Y-11409380D01*
X7740582Y-11409380D02*
X7731058Y-11390333D01*
X7731058Y-11390333D02*
X7731058Y-11380809D01*
X7731058Y-11380809D02*
X7740582Y-11361761D01*
X7740582Y-11361761D02*
X7750106Y-11352238D01*
X7750106Y-11352238D02*
X7769153Y-11342714D01*
X7769153Y-11342714D02*
X7807248Y-11342714D01*
X7807248Y-11342714D02*
X7826296Y-11352238D01*
X7826296Y-11352238D02*
X7835820Y-11361761D01*
X7835820Y-11361761D02*
X7845344Y-11380809D01*
X7845344Y-11380809D02*
X7845344Y-11390333D01*
X7845344Y-11390333D02*
X7835820Y-11409380D01*
X7835820Y-11409380D02*
X7826296Y-11418904D01*
X7826296Y-11418904D02*
X7807248Y-11428428D01*
X7807248Y-11428428D02*
X7769153Y-11428428D01*
X7769153Y-11428428D02*
X7750106Y-11437952D01*
X7750106Y-11437952D02*
X7740582Y-11447476D01*
X7740582Y-11447476D02*
X7731058Y-11466523D01*
X7731058Y-11466523D02*
X7731058Y-11504618D01*
X7731058Y-11504618D02*
X7740582Y-11523666D01*
X7740582Y-11523666D02*
X7750106Y-11533190D01*
X7750106Y-11533190D02*
X7769153Y-11542714D01*
X7769153Y-11542714D02*
X7807248Y-11542714D01*
X7807248Y-11542714D02*
X7826296Y-11533190D01*
X7826296Y-11533190D02*
X7835820Y-11523666D01*
X7835820Y-11523666D02*
X7845344Y-11504618D01*
X7845344Y-11504618D02*
X7845344Y-11466523D01*
X7845344Y-11466523D02*
X7835820Y-11447476D01*
X7835820Y-11447476D02*
X7826296Y-11437952D01*
X7826296Y-11437952D02*
X7807248Y-11428428D01*
X7921534Y-11342714D02*
X7921534Y-11380809D01*
X7997725Y-11342714D02*
X7997725Y-11380809D01*
X8292963Y-11618904D02*
X8283439Y-11609380D01*
X8283439Y-11609380D02*
X8264391Y-11580809D01*
X8264391Y-11580809D02*
X8254868Y-11561761D01*
X8254868Y-11561761D02*
X8245344Y-11533190D01*
X8245344Y-11533190D02*
X8235820Y-11485571D01*
X8235820Y-11485571D02*
X8235820Y-11447476D01*
X8235820Y-11447476D02*
X8245344Y-11399857D01*
X8245344Y-11399857D02*
X8254868Y-11371285D01*
X8254868Y-11371285D02*
X8264391Y-11352238D01*
X8264391Y-11352238D02*
X8283439Y-11323666D01*
X8283439Y-11323666D02*
X8292963Y-11314142D01*
X8359629Y-11361761D02*
X8369153Y-11352238D01*
X8369153Y-11352238D02*
X8388201Y-11342714D01*
X8388201Y-11342714D02*
X8435820Y-11342714D01*
X8435820Y-11342714D02*
X8454868Y-11352238D01*
X8454868Y-11352238D02*
X8464391Y-11361761D01*
X8464391Y-11361761D02*
X8473915Y-11380809D01*
X8473915Y-11380809D02*
X8473915Y-11399857D01*
X8473915Y-11399857D02*
X8464391Y-11428428D01*
X8464391Y-11428428D02*
X8350106Y-11542714D01*
X8350106Y-11542714D02*
X8473915Y-11542714D01*
X8588201Y-11428428D02*
X8569153Y-11418904D01*
X8569153Y-11418904D02*
X8559630Y-11409380D01*
X8559630Y-11409380D02*
X8550106Y-11390333D01*
X8550106Y-11390333D02*
X8550106Y-11380809D01*
X8550106Y-11380809D02*
X8559630Y-11361761D01*
X8559630Y-11361761D02*
X8569153Y-11352238D01*
X8569153Y-11352238D02*
X8588201Y-11342714D01*
X8588201Y-11342714D02*
X8626296Y-11342714D01*
X8626296Y-11342714D02*
X8645344Y-11352238D01*
X8645344Y-11352238D02*
X8654868Y-11361761D01*
X8654868Y-11361761D02*
X8664391Y-11380809D01*
X8664391Y-11380809D02*
X8664391Y-11390333D01*
X8664391Y-11390333D02*
X8654868Y-11409380D01*
X8654868Y-11409380D02*
X8645344Y-11418904D01*
X8645344Y-11418904D02*
X8626296Y-11428428D01*
X8626296Y-11428428D02*
X8588201Y-11428428D01*
X8588201Y-11428428D02*
X8569153Y-11437952D01*
X8569153Y-11437952D02*
X8559630Y-11447476D01*
X8559630Y-11447476D02*
X8550106Y-11466523D01*
X8550106Y-11466523D02*
X8550106Y-11504618D01*
X8550106Y-11504618D02*
X8559630Y-11523666D01*
X8559630Y-11523666D02*
X8569153Y-11533190D01*
X8569153Y-11533190D02*
X8588201Y-11542714D01*
X8588201Y-11542714D02*
X8626296Y-11542714D01*
X8626296Y-11542714D02*
X8645344Y-11533190D01*
X8645344Y-11533190D02*
X8654868Y-11523666D01*
X8654868Y-11523666D02*
X8664391Y-11504618D01*
X8664391Y-11504618D02*
X8664391Y-11466523D01*
X8664391Y-11466523D02*
X8654868Y-11447476D01*
X8654868Y-11447476D02*
X8645344Y-11437952D01*
X8645344Y-11437952D02*
X8626296Y-11428428D01*
X8902487Y-11542714D02*
X8902487Y-11342714D01*
X8988201Y-11542714D02*
X8988201Y-11437952D01*
X8988201Y-11437952D02*
X8978677Y-11418904D01*
X8978677Y-11418904D02*
X8959630Y-11409380D01*
X8959630Y-11409380D02*
X8931058Y-11409380D01*
X8931058Y-11409380D02*
X8912011Y-11418904D01*
X8912011Y-11418904D02*
X8902487Y-11428428D01*
X9112011Y-11542714D02*
X9092963Y-11533190D01*
X9092963Y-11533190D02*
X9083439Y-11523666D01*
X9083439Y-11523666D02*
X9073915Y-11504618D01*
X9073915Y-11504618D02*
X9073915Y-11447476D01*
X9073915Y-11447476D02*
X9083439Y-11428428D01*
X9083439Y-11428428D02*
X9092963Y-11418904D01*
X9092963Y-11418904D02*
X9112011Y-11409380D01*
X9112011Y-11409380D02*
X9140582Y-11409380D01*
X9140582Y-11409380D02*
X9159630Y-11418904D01*
X9159630Y-11418904D02*
X9169153Y-11428428D01*
X9169153Y-11428428D02*
X9178677Y-11447476D01*
X9178677Y-11447476D02*
X9178677Y-11504618D01*
X9178677Y-11504618D02*
X9169153Y-11523666D01*
X9169153Y-11523666D02*
X9159630Y-11533190D01*
X9159630Y-11533190D02*
X9140582Y-11542714D01*
X9140582Y-11542714D02*
X9112011Y-11542714D01*
X9292963Y-11542714D02*
X9273915Y-11533190D01*
X9273915Y-11533190D02*
X9264392Y-11514142D01*
X9264392Y-11514142D02*
X9264392Y-11342714D01*
X9445344Y-11533190D02*
X9426296Y-11542714D01*
X9426296Y-11542714D02*
X9388201Y-11542714D01*
X9388201Y-11542714D02*
X9369153Y-11533190D01*
X9369153Y-11533190D02*
X9359630Y-11514142D01*
X9359630Y-11514142D02*
X9359630Y-11437952D01*
X9359630Y-11437952D02*
X9369153Y-11418904D01*
X9369153Y-11418904D02*
X9388201Y-11409380D01*
X9388201Y-11409380D02*
X9426296Y-11409380D01*
X9426296Y-11409380D02*
X9445344Y-11418904D01*
X9445344Y-11418904D02*
X9454868Y-11437952D01*
X9454868Y-11437952D02*
X9454868Y-11456999D01*
X9454868Y-11456999D02*
X9359630Y-11476047D01*
X9531058Y-11533190D02*
X9550106Y-11542714D01*
X9550106Y-11542714D02*
X9588201Y-11542714D01*
X9588201Y-11542714D02*
X9607249Y-11533190D01*
X9607249Y-11533190D02*
X9616773Y-11514142D01*
X9616773Y-11514142D02*
X9616773Y-11504618D01*
X9616773Y-11504618D02*
X9607249Y-11485571D01*
X9607249Y-11485571D02*
X9588201Y-11476047D01*
X9588201Y-11476047D02*
X9559630Y-11476047D01*
X9559630Y-11476047D02*
X9540582Y-11466523D01*
X9540582Y-11466523D02*
X9531058Y-11447476D01*
X9531058Y-11447476D02*
X9531058Y-11437952D01*
X9531058Y-11437952D02*
X9540582Y-11418904D01*
X9540582Y-11418904D02*
X9559630Y-11409380D01*
X9559630Y-11409380D02*
X9588201Y-11409380D01*
X9588201Y-11409380D02*
X9607249Y-11418904D01*
X9683439Y-11618904D02*
X9692963Y-11609380D01*
X9692963Y-11609380D02*
X9712011Y-11580809D01*
X9712011Y-11580809D02*
X9721534Y-11561761D01*
X9721534Y-11561761D02*
X9731058Y-11533190D01*
X9731058Y-11533190D02*
X9740582Y-11485571D01*
X9740582Y-11485571D02*
X9740582Y-11447476D01*
X9740582Y-11447476D02*
X9731058Y-11399857D01*
X9731058Y-11399857D02*
X9721534Y-11371285D01*
X9721534Y-11371285D02*
X9712011Y-11352238D01*
X9712011Y-11352238D02*
X9692963Y-11323666D01*
X9692963Y-11323666D02*
X9683439Y-11314142D01*
D11*
X4717900Y-11715230D02*
G75*
G02*
X4657900Y-11715230I-30000J0D01*
G01*
X4657900Y-11715230D02*
G75*
G02*
X4717900Y-11715230I30000J0D01*
G01*
D10*
X5016772Y-11606714D02*
X5035820Y-11606714D01*
X5035820Y-11606714D02*
X5054867Y-11616238D01*
X5054867Y-11616238D02*
X5064391Y-11625761D01*
X5064391Y-11625761D02*
X5073915Y-11644809D01*
X5073915Y-11644809D02*
X5083439Y-11682904D01*
X5083439Y-11682904D02*
X5083439Y-11730523D01*
X5083439Y-11730523D02*
X5073915Y-11768618D01*
X5073915Y-11768618D02*
X5064391Y-11787666D01*
X5064391Y-11787666D02*
X5054867Y-11797190D01*
X5054867Y-11797190D02*
X5035820Y-11806714D01*
X5035820Y-11806714D02*
X5016772Y-11806714D01*
X5016772Y-11806714D02*
X4997724Y-11797190D01*
X4997724Y-11797190D02*
X4988201Y-11787666D01*
X4988201Y-11787666D02*
X4978677Y-11768618D01*
X4978677Y-11768618D02*
X4969153Y-11730523D01*
X4969153Y-11730523D02*
X4969153Y-11682904D01*
X4969153Y-11682904D02*
X4978677Y-11644809D01*
X4978677Y-11644809D02*
X4988201Y-11625761D01*
X4988201Y-11625761D02*
X4997724Y-11616238D01*
X4997724Y-11616238D02*
X5016772Y-11606714D01*
X5169153Y-11787666D02*
X5178677Y-11797190D01*
X5178677Y-11797190D02*
X5169153Y-11806714D01*
X5169153Y-11806714D02*
X5159629Y-11797190D01*
X5159629Y-11797190D02*
X5169153Y-11787666D01*
X5169153Y-11787666D02*
X5169153Y-11806714D01*
X5350105Y-11606714D02*
X5312010Y-11606714D01*
X5312010Y-11606714D02*
X5292963Y-11616238D01*
X5292963Y-11616238D02*
X5283439Y-11625761D01*
X5283439Y-11625761D02*
X5264391Y-11654333D01*
X5264391Y-11654333D02*
X5254867Y-11692428D01*
X5254867Y-11692428D02*
X5254867Y-11768618D01*
X5254867Y-11768618D02*
X5264391Y-11787666D01*
X5264391Y-11787666D02*
X5273915Y-11797190D01*
X5273915Y-11797190D02*
X5292963Y-11806714D01*
X5292963Y-11806714D02*
X5331058Y-11806714D01*
X5331058Y-11806714D02*
X5350105Y-11797190D01*
X5350105Y-11797190D02*
X5359629Y-11787666D01*
X5359629Y-11787666D02*
X5369153Y-11768618D01*
X5369153Y-11768618D02*
X5369153Y-11720999D01*
X5369153Y-11720999D02*
X5359629Y-11701952D01*
X5359629Y-11701952D02*
X5350105Y-11692428D01*
X5350105Y-11692428D02*
X5331058Y-11682904D01*
X5331058Y-11682904D02*
X5292963Y-11682904D01*
X5292963Y-11682904D02*
X5273915Y-11692428D01*
X5273915Y-11692428D02*
X5264391Y-11701952D01*
X5264391Y-11701952D02*
X5254867Y-11720999D01*
X5492963Y-11606714D02*
X5512010Y-11606714D01*
X5512010Y-11606714D02*
X5531058Y-11616238D01*
X5531058Y-11616238D02*
X5540582Y-11625761D01*
X5540582Y-11625761D02*
X5550105Y-11644809D01*
X5550105Y-11644809D02*
X5559629Y-11682904D01*
X5559629Y-11682904D02*
X5559629Y-11730523D01*
X5559629Y-11730523D02*
X5550105Y-11768618D01*
X5550105Y-11768618D02*
X5540582Y-11787666D01*
X5540582Y-11787666D02*
X5531058Y-11797190D01*
X5531058Y-11797190D02*
X5512010Y-11806714D01*
X5512010Y-11806714D02*
X5492963Y-11806714D01*
X5492963Y-11806714D02*
X5473915Y-11797190D01*
X5473915Y-11797190D02*
X5464391Y-11787666D01*
X5464391Y-11787666D02*
X5454867Y-11768618D01*
X5454867Y-11768618D02*
X5445344Y-11730523D01*
X5445344Y-11730523D02*
X5445344Y-11682904D01*
X5445344Y-11682904D02*
X5454867Y-11644809D01*
X5454867Y-11644809D02*
X5464391Y-11625761D01*
X5464391Y-11625761D02*
X5473915Y-11616238D01*
X5473915Y-11616238D02*
X5492963Y-11606714D01*
X5683439Y-11606714D02*
X5702486Y-11606714D01*
X5702486Y-11606714D02*
X5721534Y-11616238D01*
X5721534Y-11616238D02*
X5731058Y-11625761D01*
X5731058Y-11625761D02*
X5740582Y-11644809D01*
X5740582Y-11644809D02*
X5750105Y-11682904D01*
X5750105Y-11682904D02*
X5750105Y-11730523D01*
X5750105Y-11730523D02*
X5740582Y-11768618D01*
X5740582Y-11768618D02*
X5731058Y-11787666D01*
X5731058Y-11787666D02*
X5721534Y-11797190D01*
X5721534Y-11797190D02*
X5702486Y-11806714D01*
X5702486Y-11806714D02*
X5683439Y-11806714D01*
X5683439Y-11806714D02*
X5664391Y-11797190D01*
X5664391Y-11797190D02*
X5654867Y-11787666D01*
X5654867Y-11787666D02*
X5645343Y-11768618D01*
X5645343Y-11768618D02*
X5635820Y-11730523D01*
X5635820Y-11730523D02*
X5635820Y-11682904D01*
X5635820Y-11682904D02*
X5645343Y-11644809D01*
X5645343Y-11644809D02*
X5654867Y-11625761D01*
X5654867Y-11625761D02*
X5664391Y-11616238D01*
X5664391Y-11616238D02*
X5683439Y-11606714D01*
X5835820Y-11806714D02*
X5835820Y-11673380D01*
X5835820Y-11692428D02*
X5845343Y-11682904D01*
X5845343Y-11682904D02*
X5864391Y-11673380D01*
X5864391Y-11673380D02*
X5892963Y-11673380D01*
X5892963Y-11673380D02*
X5912010Y-11682904D01*
X5912010Y-11682904D02*
X5921534Y-11701952D01*
X5921534Y-11701952D02*
X5921534Y-11806714D01*
X5921534Y-11701952D02*
X5931058Y-11682904D01*
X5931058Y-11682904D02*
X5950105Y-11673380D01*
X5950105Y-11673380D02*
X5978677Y-11673380D01*
X5978677Y-11673380D02*
X5997724Y-11682904D01*
X5997724Y-11682904D02*
X6007248Y-11701952D01*
X6007248Y-11701952D02*
X6007248Y-11806714D01*
X6102486Y-11806714D02*
X6102486Y-11673380D01*
X6102486Y-11692428D02*
X6112010Y-11682904D01*
X6112010Y-11682904D02*
X6131058Y-11673380D01*
X6131058Y-11673380D02*
X6159629Y-11673380D01*
X6159629Y-11673380D02*
X6178677Y-11682904D01*
X6178677Y-11682904D02*
X6188201Y-11701952D01*
X6188201Y-11701952D02*
X6188201Y-11806714D01*
X6188201Y-11701952D02*
X6197724Y-11682904D01*
X6197724Y-11682904D02*
X6216772Y-11673380D01*
X6216772Y-11673380D02*
X6245343Y-11673380D01*
X6245343Y-11673380D02*
X6264391Y-11682904D01*
X6264391Y-11682904D02*
X6273915Y-11701952D01*
X6273915Y-11701952D02*
X6273915Y-11806714D01*
X6664391Y-11597190D02*
X6492963Y-11854333D01*
X6921534Y-11606714D02*
X6940582Y-11606714D01*
X6940582Y-11606714D02*
X6959629Y-11616238D01*
X6959629Y-11616238D02*
X6969153Y-11625761D01*
X6969153Y-11625761D02*
X6978677Y-11644809D01*
X6978677Y-11644809D02*
X6988201Y-11682904D01*
X6988201Y-11682904D02*
X6988201Y-11730523D01*
X6988201Y-11730523D02*
X6978677Y-11768618D01*
X6978677Y-11768618D02*
X6969153Y-11787666D01*
X6969153Y-11787666D02*
X6959629Y-11797190D01*
X6959629Y-11797190D02*
X6940582Y-11806714D01*
X6940582Y-11806714D02*
X6921534Y-11806714D01*
X6921534Y-11806714D02*
X6902486Y-11797190D01*
X6902486Y-11797190D02*
X6892963Y-11787666D01*
X6892963Y-11787666D02*
X6883439Y-11768618D01*
X6883439Y-11768618D02*
X6873915Y-11730523D01*
X6873915Y-11730523D02*
X6873915Y-11682904D01*
X6873915Y-11682904D02*
X6883439Y-11644809D01*
X6883439Y-11644809D02*
X6892963Y-11625761D01*
X6892963Y-11625761D02*
X6902486Y-11616238D01*
X6902486Y-11616238D02*
X6921534Y-11606714D01*
X7073915Y-11787666D02*
X7083439Y-11797190D01*
X7083439Y-11797190D02*
X7073915Y-11806714D01*
X7073915Y-11806714D02*
X7064391Y-11797190D01*
X7064391Y-11797190D02*
X7073915Y-11787666D01*
X7073915Y-11787666D02*
X7073915Y-11806714D01*
X7207248Y-11606714D02*
X7226296Y-11606714D01*
X7226296Y-11606714D02*
X7245344Y-11616238D01*
X7245344Y-11616238D02*
X7254867Y-11625761D01*
X7254867Y-11625761D02*
X7264391Y-11644809D01*
X7264391Y-11644809D02*
X7273915Y-11682904D01*
X7273915Y-11682904D02*
X7273915Y-11730523D01*
X7273915Y-11730523D02*
X7264391Y-11768618D01*
X7264391Y-11768618D02*
X7254867Y-11787666D01*
X7254867Y-11787666D02*
X7245344Y-11797190D01*
X7245344Y-11797190D02*
X7226296Y-11806714D01*
X7226296Y-11806714D02*
X7207248Y-11806714D01*
X7207248Y-11806714D02*
X7188201Y-11797190D01*
X7188201Y-11797190D02*
X7178677Y-11787666D01*
X7178677Y-11787666D02*
X7169153Y-11768618D01*
X7169153Y-11768618D02*
X7159629Y-11730523D01*
X7159629Y-11730523D02*
X7159629Y-11682904D01*
X7159629Y-11682904D02*
X7169153Y-11644809D01*
X7169153Y-11644809D02*
X7178677Y-11625761D01*
X7178677Y-11625761D02*
X7188201Y-11616238D01*
X7188201Y-11616238D02*
X7207248Y-11606714D01*
X7350106Y-11625761D02*
X7359629Y-11616238D01*
X7359629Y-11616238D02*
X7378677Y-11606714D01*
X7378677Y-11606714D02*
X7426296Y-11606714D01*
X7426296Y-11606714D02*
X7445344Y-11616238D01*
X7445344Y-11616238D02*
X7454867Y-11625761D01*
X7454867Y-11625761D02*
X7464391Y-11644809D01*
X7464391Y-11644809D02*
X7464391Y-11663857D01*
X7464391Y-11663857D02*
X7454867Y-11692428D01*
X7454867Y-11692428D02*
X7340582Y-11806714D01*
X7340582Y-11806714D02*
X7464391Y-11806714D01*
X7531058Y-11606714D02*
X7654867Y-11606714D01*
X7654867Y-11606714D02*
X7588201Y-11682904D01*
X7588201Y-11682904D02*
X7616772Y-11682904D01*
X7616772Y-11682904D02*
X7635820Y-11692428D01*
X7635820Y-11692428D02*
X7645344Y-11701952D01*
X7645344Y-11701952D02*
X7654867Y-11720999D01*
X7654867Y-11720999D02*
X7654867Y-11768618D01*
X7654867Y-11768618D02*
X7645344Y-11787666D01*
X7645344Y-11787666D02*
X7635820Y-11797190D01*
X7635820Y-11797190D02*
X7616772Y-11806714D01*
X7616772Y-11806714D02*
X7559629Y-11806714D01*
X7559629Y-11806714D02*
X7540582Y-11797190D01*
X7540582Y-11797190D02*
X7531058Y-11787666D01*
X7826296Y-11606714D02*
X7788201Y-11606714D01*
X7788201Y-11606714D02*
X7769153Y-11616238D01*
X7769153Y-11616238D02*
X7759629Y-11625761D01*
X7759629Y-11625761D02*
X7740582Y-11654333D01*
X7740582Y-11654333D02*
X7731058Y-11692428D01*
X7731058Y-11692428D02*
X7731058Y-11768618D01*
X7731058Y-11768618D02*
X7740582Y-11787666D01*
X7740582Y-11787666D02*
X7750106Y-11797190D01*
X7750106Y-11797190D02*
X7769153Y-11806714D01*
X7769153Y-11806714D02*
X7807248Y-11806714D01*
X7807248Y-11806714D02*
X7826296Y-11797190D01*
X7826296Y-11797190D02*
X7835820Y-11787666D01*
X7835820Y-11787666D02*
X7845344Y-11768618D01*
X7845344Y-11768618D02*
X7845344Y-11720999D01*
X7845344Y-11720999D02*
X7835820Y-11701952D01*
X7835820Y-11701952D02*
X7826296Y-11692428D01*
X7826296Y-11692428D02*
X7807248Y-11682904D01*
X7807248Y-11682904D02*
X7769153Y-11682904D01*
X7769153Y-11682904D02*
X7750106Y-11692428D01*
X7750106Y-11692428D02*
X7740582Y-11701952D01*
X7740582Y-11701952D02*
X7731058Y-11720999D01*
X7921534Y-11606714D02*
X7921534Y-11644809D01*
X7997725Y-11606714D02*
X7997725Y-11644809D01*
X8292963Y-11882904D02*
X8283439Y-11873380D01*
X8283439Y-11873380D02*
X8264391Y-11844809D01*
X8264391Y-11844809D02*
X8254868Y-11825761D01*
X8254868Y-11825761D02*
X8245344Y-11797190D01*
X8245344Y-11797190D02*
X8235820Y-11749571D01*
X8235820Y-11749571D02*
X8235820Y-11711476D01*
X8235820Y-11711476D02*
X8245344Y-11663857D01*
X8245344Y-11663857D02*
X8254868Y-11635285D01*
X8254868Y-11635285D02*
X8264391Y-11616238D01*
X8264391Y-11616238D02*
X8283439Y-11587666D01*
X8283439Y-11587666D02*
X8292963Y-11578142D01*
X8407249Y-11606714D02*
X8426296Y-11606714D01*
X8426296Y-11606714D02*
X8445344Y-11616238D01*
X8445344Y-11616238D02*
X8454868Y-11625761D01*
X8454868Y-11625761D02*
X8464391Y-11644809D01*
X8464391Y-11644809D02*
X8473915Y-11682904D01*
X8473915Y-11682904D02*
X8473915Y-11730523D01*
X8473915Y-11730523D02*
X8464391Y-11768618D01*
X8464391Y-11768618D02*
X8454868Y-11787666D01*
X8454868Y-11787666D02*
X8445344Y-11797190D01*
X8445344Y-11797190D02*
X8426296Y-11806714D01*
X8426296Y-11806714D02*
X8407249Y-11806714D01*
X8407249Y-11806714D02*
X8388201Y-11797190D01*
X8388201Y-11797190D02*
X8378677Y-11787666D01*
X8378677Y-11787666D02*
X8369153Y-11768618D01*
X8369153Y-11768618D02*
X8359629Y-11730523D01*
X8359629Y-11730523D02*
X8359629Y-11682904D01*
X8359629Y-11682904D02*
X8369153Y-11644809D01*
X8369153Y-11644809D02*
X8378677Y-11625761D01*
X8378677Y-11625761D02*
X8388201Y-11616238D01*
X8388201Y-11616238D02*
X8407249Y-11606714D01*
X8712011Y-11806714D02*
X8712011Y-11606714D01*
X8797725Y-11806714D02*
X8797725Y-11701952D01*
X8797725Y-11701952D02*
X8788201Y-11682904D01*
X8788201Y-11682904D02*
X8769153Y-11673380D01*
X8769153Y-11673380D02*
X8740582Y-11673380D01*
X8740582Y-11673380D02*
X8721534Y-11682904D01*
X8721534Y-11682904D02*
X8712011Y-11692428D01*
X8921534Y-11806714D02*
X8902487Y-11797190D01*
X8902487Y-11797190D02*
X8892963Y-11787666D01*
X8892963Y-11787666D02*
X8883439Y-11768618D01*
X8883439Y-11768618D02*
X8883439Y-11711476D01*
X8883439Y-11711476D02*
X8892963Y-11692428D01*
X8892963Y-11692428D02*
X8902487Y-11682904D01*
X8902487Y-11682904D02*
X8921534Y-11673380D01*
X8921534Y-11673380D02*
X8950106Y-11673380D01*
X8950106Y-11673380D02*
X8969153Y-11682904D01*
X8969153Y-11682904D02*
X8978677Y-11692428D01*
X8978677Y-11692428D02*
X8988201Y-11711476D01*
X8988201Y-11711476D02*
X8988201Y-11768618D01*
X8988201Y-11768618D02*
X8978677Y-11787666D01*
X8978677Y-11787666D02*
X8969153Y-11797190D01*
X8969153Y-11797190D02*
X8950106Y-11806714D01*
X8950106Y-11806714D02*
X8921534Y-11806714D01*
X9102487Y-11806714D02*
X9083439Y-11797190D01*
X9083439Y-11797190D02*
X9073915Y-11778142D01*
X9073915Y-11778142D02*
X9073915Y-11606714D01*
X9254868Y-11797190D02*
X9235820Y-11806714D01*
X9235820Y-11806714D02*
X9197725Y-11806714D01*
X9197725Y-11806714D02*
X9178677Y-11797190D01*
X9178677Y-11797190D02*
X9169153Y-11778142D01*
X9169153Y-11778142D02*
X9169153Y-11701952D01*
X9169153Y-11701952D02*
X9178677Y-11682904D01*
X9178677Y-11682904D02*
X9197725Y-11673380D01*
X9197725Y-11673380D02*
X9235820Y-11673380D01*
X9235820Y-11673380D02*
X9254868Y-11682904D01*
X9254868Y-11682904D02*
X9264392Y-11701952D01*
X9264392Y-11701952D02*
X9264392Y-11720999D01*
X9264392Y-11720999D02*
X9169153Y-11740047D01*
X9340582Y-11797190D02*
X9359630Y-11806714D01*
X9359630Y-11806714D02*
X9397725Y-11806714D01*
X9397725Y-11806714D02*
X9416773Y-11797190D01*
X9416773Y-11797190D02*
X9426296Y-11778142D01*
X9426296Y-11778142D02*
X9426296Y-11768618D01*
X9426296Y-11768618D02*
X9416773Y-11749571D01*
X9416773Y-11749571D02*
X9397725Y-11740047D01*
X9397725Y-11740047D02*
X9369153Y-11740047D01*
X9369153Y-11740047D02*
X9350106Y-11730523D01*
X9350106Y-11730523D02*
X9340582Y-11711476D01*
X9340582Y-11711476D02*
X9340582Y-11701952D01*
X9340582Y-11701952D02*
X9350106Y-11682904D01*
X9350106Y-11682904D02*
X9369153Y-11673380D01*
X9369153Y-11673380D02*
X9397725Y-11673380D01*
X9397725Y-11673380D02*
X9416773Y-11682904D01*
X9664392Y-11730523D02*
X9816773Y-11730523D01*
X9740582Y-11806714D02*
X9740582Y-11654333D01*
X10150106Y-11673380D02*
X10150106Y-11806714D01*
X10102487Y-11597190D02*
X10054868Y-11740047D01*
X10054868Y-11740047D02*
X10178677Y-11740047D01*
X10397725Y-11797190D02*
X10416773Y-11806714D01*
X10416773Y-11806714D02*
X10454868Y-11806714D01*
X10454868Y-11806714D02*
X10473916Y-11797190D01*
X10473916Y-11797190D02*
X10483439Y-11778142D01*
X10483439Y-11778142D02*
X10483439Y-11768618D01*
X10483439Y-11768618D02*
X10473916Y-11749571D01*
X10473916Y-11749571D02*
X10454868Y-11740047D01*
X10454868Y-11740047D02*
X10426296Y-11740047D01*
X10426296Y-11740047D02*
X10407249Y-11730523D01*
X10407249Y-11730523D02*
X10397725Y-11711476D01*
X10397725Y-11711476D02*
X10397725Y-11701952D01*
X10397725Y-11701952D02*
X10407249Y-11682904D01*
X10407249Y-11682904D02*
X10426296Y-11673380D01*
X10426296Y-11673380D02*
X10454868Y-11673380D01*
X10454868Y-11673380D02*
X10473916Y-11682904D01*
X10597725Y-11806714D02*
X10578677Y-11797190D01*
X10578677Y-11797190D02*
X10569154Y-11778142D01*
X10569154Y-11778142D02*
X10569154Y-11606714D01*
X10702487Y-11806714D02*
X10683439Y-11797190D01*
X10683439Y-11797190D02*
X10673916Y-11787666D01*
X10673916Y-11787666D02*
X10664392Y-11768618D01*
X10664392Y-11768618D02*
X10664392Y-11711476D01*
X10664392Y-11711476D02*
X10673916Y-11692428D01*
X10673916Y-11692428D02*
X10683439Y-11682904D01*
X10683439Y-11682904D02*
X10702487Y-11673380D01*
X10702487Y-11673380D02*
X10731058Y-11673380D01*
X10731058Y-11673380D02*
X10750106Y-11682904D01*
X10750106Y-11682904D02*
X10759630Y-11692428D01*
X10759630Y-11692428D02*
X10769154Y-11711476D01*
X10769154Y-11711476D02*
X10769154Y-11768618D01*
X10769154Y-11768618D02*
X10759630Y-11787666D01*
X10759630Y-11787666D02*
X10750106Y-11797190D01*
X10750106Y-11797190D02*
X10731058Y-11806714D01*
X10731058Y-11806714D02*
X10702487Y-11806714D01*
X10826297Y-11673380D02*
X10902487Y-11673380D01*
X10854868Y-11606714D02*
X10854868Y-11778142D01*
X10854868Y-11778142D02*
X10864392Y-11797190D01*
X10864392Y-11797190D02*
X10883439Y-11806714D01*
X10883439Y-11806714D02*
X10902487Y-11806714D01*
X10959630Y-11797190D02*
X10978677Y-11806714D01*
X10978677Y-11806714D02*
X11016773Y-11806714D01*
X11016773Y-11806714D02*
X11035820Y-11797190D01*
X11035820Y-11797190D02*
X11045344Y-11778142D01*
X11045344Y-11778142D02*
X11045344Y-11768618D01*
X11045344Y-11768618D02*
X11035820Y-11749571D01*
X11035820Y-11749571D02*
X11016773Y-11740047D01*
X11016773Y-11740047D02*
X10988201Y-11740047D01*
X10988201Y-11740047D02*
X10969154Y-11730523D01*
X10969154Y-11730523D02*
X10959630Y-11711476D01*
X10959630Y-11711476D02*
X10959630Y-11701952D01*
X10959630Y-11701952D02*
X10969154Y-11682904D01*
X10969154Y-11682904D02*
X10988201Y-11673380D01*
X10988201Y-11673380D02*
X11016773Y-11673380D01*
X11016773Y-11673380D02*
X11035820Y-11682904D01*
X11112011Y-11882904D02*
X11121535Y-11873380D01*
X11121535Y-11873380D02*
X11140582Y-11844809D01*
X11140582Y-11844809D02*
X11150106Y-11825761D01*
X11150106Y-11825761D02*
X11159630Y-11797190D01*
X11159630Y-11797190D02*
X11169154Y-11749571D01*
X11169154Y-11749571D02*
X11169154Y-11711476D01*
X11169154Y-11711476D02*
X11159630Y-11663857D01*
X11159630Y-11663857D02*
X11150106Y-11635285D01*
X11150106Y-11635285D02*
X11140582Y-11616238D01*
X11140582Y-11616238D02*
X11121535Y-11587666D01*
X11121535Y-11587666D02*
X11112011Y-11578142D01*
D12*
X4654400Y-11915730D02*
X4654400Y-12042730D01*
X4590900Y-11979230D02*
X4717900Y-11979230D01*
D10*
X5083439Y-12070714D02*
X4969153Y-12070714D01*
X5026296Y-12070714D02*
X5026296Y-11870714D01*
X5026296Y-11870714D02*
X5007248Y-11899285D01*
X5007248Y-11899285D02*
X4988201Y-11918333D01*
X4988201Y-11918333D02*
X4969153Y-11927857D01*
X5169153Y-12051666D02*
X5178677Y-12061190D01*
X5178677Y-12061190D02*
X5169153Y-12070714D01*
X5169153Y-12070714D02*
X5159629Y-12061190D01*
X5159629Y-12061190D02*
X5169153Y-12051666D01*
X5169153Y-12051666D02*
X5169153Y-12070714D01*
X5254867Y-11889761D02*
X5264391Y-11880238D01*
X5264391Y-11880238D02*
X5283439Y-11870714D01*
X5283439Y-11870714D02*
X5331058Y-11870714D01*
X5331058Y-11870714D02*
X5350105Y-11880238D01*
X5350105Y-11880238D02*
X5359629Y-11889761D01*
X5359629Y-11889761D02*
X5369153Y-11908809D01*
X5369153Y-11908809D02*
X5369153Y-11927857D01*
X5369153Y-11927857D02*
X5359629Y-11956428D01*
X5359629Y-11956428D02*
X5245344Y-12070714D01*
X5245344Y-12070714D02*
X5369153Y-12070714D01*
X5435820Y-11870714D02*
X5569153Y-11870714D01*
X5569153Y-11870714D02*
X5483439Y-12070714D01*
X5683439Y-11870714D02*
X5702486Y-11870714D01*
X5702486Y-11870714D02*
X5721534Y-11880238D01*
X5721534Y-11880238D02*
X5731058Y-11889761D01*
X5731058Y-11889761D02*
X5740582Y-11908809D01*
X5740582Y-11908809D02*
X5750105Y-11946904D01*
X5750105Y-11946904D02*
X5750105Y-11994523D01*
X5750105Y-11994523D02*
X5740582Y-12032618D01*
X5740582Y-12032618D02*
X5731058Y-12051666D01*
X5731058Y-12051666D02*
X5721534Y-12061190D01*
X5721534Y-12061190D02*
X5702486Y-12070714D01*
X5702486Y-12070714D02*
X5683439Y-12070714D01*
X5683439Y-12070714D02*
X5664391Y-12061190D01*
X5664391Y-12061190D02*
X5654867Y-12051666D01*
X5654867Y-12051666D02*
X5645343Y-12032618D01*
X5645343Y-12032618D02*
X5635820Y-11994523D01*
X5635820Y-11994523D02*
X5635820Y-11946904D01*
X5635820Y-11946904D02*
X5645343Y-11908809D01*
X5645343Y-11908809D02*
X5654867Y-11889761D01*
X5654867Y-11889761D02*
X5664391Y-11880238D01*
X5664391Y-11880238D02*
X5683439Y-11870714D01*
X5835820Y-12070714D02*
X5835820Y-11937380D01*
X5835820Y-11956428D02*
X5845343Y-11946904D01*
X5845343Y-11946904D02*
X5864391Y-11937380D01*
X5864391Y-11937380D02*
X5892963Y-11937380D01*
X5892963Y-11937380D02*
X5912010Y-11946904D01*
X5912010Y-11946904D02*
X5921534Y-11965952D01*
X5921534Y-11965952D02*
X5921534Y-12070714D01*
X5921534Y-11965952D02*
X5931058Y-11946904D01*
X5931058Y-11946904D02*
X5950105Y-11937380D01*
X5950105Y-11937380D02*
X5978677Y-11937380D01*
X5978677Y-11937380D02*
X5997724Y-11946904D01*
X5997724Y-11946904D02*
X6007248Y-11965952D01*
X6007248Y-11965952D02*
X6007248Y-12070714D01*
X6102486Y-12070714D02*
X6102486Y-11937380D01*
X6102486Y-11956428D02*
X6112010Y-11946904D01*
X6112010Y-11946904D02*
X6131058Y-11937380D01*
X6131058Y-11937380D02*
X6159629Y-11937380D01*
X6159629Y-11937380D02*
X6178677Y-11946904D01*
X6178677Y-11946904D02*
X6188201Y-11965952D01*
X6188201Y-11965952D02*
X6188201Y-12070714D01*
X6188201Y-11965952D02*
X6197724Y-11946904D01*
X6197724Y-11946904D02*
X6216772Y-11937380D01*
X6216772Y-11937380D02*
X6245343Y-11937380D01*
X6245343Y-11937380D02*
X6264391Y-11946904D01*
X6264391Y-11946904D02*
X6273915Y-11965952D01*
X6273915Y-11965952D02*
X6273915Y-12070714D01*
X6664391Y-11861190D02*
X6492963Y-12118333D01*
X6921534Y-11870714D02*
X6940582Y-11870714D01*
X6940582Y-11870714D02*
X6959629Y-11880238D01*
X6959629Y-11880238D02*
X6969153Y-11889761D01*
X6969153Y-11889761D02*
X6978677Y-11908809D01*
X6978677Y-11908809D02*
X6988201Y-11946904D01*
X6988201Y-11946904D02*
X6988201Y-11994523D01*
X6988201Y-11994523D02*
X6978677Y-12032618D01*
X6978677Y-12032618D02*
X6969153Y-12051666D01*
X6969153Y-12051666D02*
X6959629Y-12061190D01*
X6959629Y-12061190D02*
X6940582Y-12070714D01*
X6940582Y-12070714D02*
X6921534Y-12070714D01*
X6921534Y-12070714D02*
X6902486Y-12061190D01*
X6902486Y-12061190D02*
X6892963Y-12051666D01*
X6892963Y-12051666D02*
X6883439Y-12032618D01*
X6883439Y-12032618D02*
X6873915Y-11994523D01*
X6873915Y-11994523D02*
X6873915Y-11946904D01*
X6873915Y-11946904D02*
X6883439Y-11908809D01*
X6883439Y-11908809D02*
X6892963Y-11889761D01*
X6892963Y-11889761D02*
X6902486Y-11880238D01*
X6902486Y-11880238D02*
X6921534Y-11870714D01*
X7073915Y-12051666D02*
X7083439Y-12061190D01*
X7083439Y-12061190D02*
X7073915Y-12070714D01*
X7073915Y-12070714D02*
X7064391Y-12061190D01*
X7064391Y-12061190D02*
X7073915Y-12051666D01*
X7073915Y-12051666D02*
X7073915Y-12070714D01*
X7207248Y-11870714D02*
X7226296Y-11870714D01*
X7226296Y-11870714D02*
X7245344Y-11880238D01*
X7245344Y-11880238D02*
X7254867Y-11889761D01*
X7254867Y-11889761D02*
X7264391Y-11908809D01*
X7264391Y-11908809D02*
X7273915Y-11946904D01*
X7273915Y-11946904D02*
X7273915Y-11994523D01*
X7273915Y-11994523D02*
X7264391Y-12032618D01*
X7264391Y-12032618D02*
X7254867Y-12051666D01*
X7254867Y-12051666D02*
X7245344Y-12061190D01*
X7245344Y-12061190D02*
X7226296Y-12070714D01*
X7226296Y-12070714D02*
X7207248Y-12070714D01*
X7207248Y-12070714D02*
X7188201Y-12061190D01*
X7188201Y-12061190D02*
X7178677Y-12051666D01*
X7178677Y-12051666D02*
X7169153Y-12032618D01*
X7169153Y-12032618D02*
X7159629Y-11994523D01*
X7159629Y-11994523D02*
X7159629Y-11946904D01*
X7159629Y-11946904D02*
X7169153Y-11908809D01*
X7169153Y-11908809D02*
X7178677Y-11889761D01*
X7178677Y-11889761D02*
X7188201Y-11880238D01*
X7188201Y-11880238D02*
X7207248Y-11870714D01*
X7454867Y-11870714D02*
X7359629Y-11870714D01*
X7359629Y-11870714D02*
X7350106Y-11965952D01*
X7350106Y-11965952D02*
X7359629Y-11956428D01*
X7359629Y-11956428D02*
X7378677Y-11946904D01*
X7378677Y-11946904D02*
X7426296Y-11946904D01*
X7426296Y-11946904D02*
X7445344Y-11956428D01*
X7445344Y-11956428D02*
X7454867Y-11965952D01*
X7454867Y-11965952D02*
X7464391Y-11984999D01*
X7464391Y-11984999D02*
X7464391Y-12032618D01*
X7464391Y-12032618D02*
X7454867Y-12051666D01*
X7454867Y-12051666D02*
X7445344Y-12061190D01*
X7445344Y-12061190D02*
X7426296Y-12070714D01*
X7426296Y-12070714D02*
X7378677Y-12070714D01*
X7378677Y-12070714D02*
X7359629Y-12061190D01*
X7359629Y-12061190D02*
X7350106Y-12051666D01*
X7588201Y-11870714D02*
X7607248Y-11870714D01*
X7607248Y-11870714D02*
X7626296Y-11880238D01*
X7626296Y-11880238D02*
X7635820Y-11889761D01*
X7635820Y-11889761D02*
X7645344Y-11908809D01*
X7645344Y-11908809D02*
X7654867Y-11946904D01*
X7654867Y-11946904D02*
X7654867Y-11994523D01*
X7654867Y-11994523D02*
X7645344Y-12032618D01*
X7645344Y-12032618D02*
X7635820Y-12051666D01*
X7635820Y-12051666D02*
X7626296Y-12061190D01*
X7626296Y-12061190D02*
X7607248Y-12070714D01*
X7607248Y-12070714D02*
X7588201Y-12070714D01*
X7588201Y-12070714D02*
X7569153Y-12061190D01*
X7569153Y-12061190D02*
X7559629Y-12051666D01*
X7559629Y-12051666D02*
X7550106Y-12032618D01*
X7550106Y-12032618D02*
X7540582Y-11994523D01*
X7540582Y-11994523D02*
X7540582Y-11946904D01*
X7540582Y-11946904D02*
X7550106Y-11908809D01*
X7550106Y-11908809D02*
X7559629Y-11889761D01*
X7559629Y-11889761D02*
X7569153Y-11880238D01*
X7569153Y-11880238D02*
X7588201Y-11870714D01*
X7778677Y-11870714D02*
X7797725Y-11870714D01*
X7797725Y-11870714D02*
X7816772Y-11880238D01*
X7816772Y-11880238D02*
X7826296Y-11889761D01*
X7826296Y-11889761D02*
X7835820Y-11908809D01*
X7835820Y-11908809D02*
X7845344Y-11946904D01*
X7845344Y-11946904D02*
X7845344Y-11994523D01*
X7845344Y-11994523D02*
X7835820Y-12032618D01*
X7835820Y-12032618D02*
X7826296Y-12051666D01*
X7826296Y-12051666D02*
X7816772Y-12061190D01*
X7816772Y-12061190D02*
X7797725Y-12070714D01*
X7797725Y-12070714D02*
X7778677Y-12070714D01*
X7778677Y-12070714D02*
X7759629Y-12061190D01*
X7759629Y-12061190D02*
X7750106Y-12051666D01*
X7750106Y-12051666D02*
X7740582Y-12032618D01*
X7740582Y-12032618D02*
X7731058Y-11994523D01*
X7731058Y-11994523D02*
X7731058Y-11946904D01*
X7731058Y-11946904D02*
X7740582Y-11908809D01*
X7740582Y-11908809D02*
X7750106Y-11889761D01*
X7750106Y-11889761D02*
X7759629Y-11880238D01*
X7759629Y-11880238D02*
X7778677Y-11870714D01*
X7921534Y-11870714D02*
X7921534Y-11908809D01*
X7997725Y-11870714D02*
X7997725Y-11908809D01*
X8292963Y-12146904D02*
X8283439Y-12137380D01*
X8283439Y-12137380D02*
X8264391Y-12108809D01*
X8264391Y-12108809D02*
X8254868Y-12089761D01*
X8254868Y-12089761D02*
X8245344Y-12061190D01*
X8245344Y-12061190D02*
X8235820Y-12013571D01*
X8235820Y-12013571D02*
X8235820Y-11975476D01*
X8235820Y-11975476D02*
X8245344Y-11927857D01*
X8245344Y-11927857D02*
X8254868Y-11899285D01*
X8254868Y-11899285D02*
X8264391Y-11880238D01*
X8264391Y-11880238D02*
X8283439Y-11851666D01*
X8283439Y-11851666D02*
X8292963Y-11842142D01*
X8350106Y-11870714D02*
X8483439Y-11870714D01*
X8483439Y-11870714D02*
X8397725Y-12070714D01*
X8550106Y-11889761D02*
X8559630Y-11880238D01*
X8559630Y-11880238D02*
X8578677Y-11870714D01*
X8578677Y-11870714D02*
X8626296Y-11870714D01*
X8626296Y-11870714D02*
X8645344Y-11880238D01*
X8645344Y-11880238D02*
X8654868Y-11889761D01*
X8654868Y-11889761D02*
X8664391Y-11908809D01*
X8664391Y-11908809D02*
X8664391Y-11927857D01*
X8664391Y-11927857D02*
X8654868Y-11956428D01*
X8654868Y-11956428D02*
X8540582Y-12070714D01*
X8540582Y-12070714D02*
X8664391Y-12070714D01*
X8902487Y-12070714D02*
X8902487Y-11870714D01*
X8988201Y-12070714D02*
X8988201Y-11965952D01*
X8988201Y-11965952D02*
X8978677Y-11946904D01*
X8978677Y-11946904D02*
X8959630Y-11937380D01*
X8959630Y-11937380D02*
X8931058Y-11937380D01*
X8931058Y-11937380D02*
X8912011Y-11946904D01*
X8912011Y-11946904D02*
X8902487Y-11956428D01*
X9112011Y-12070714D02*
X9092963Y-12061190D01*
X9092963Y-12061190D02*
X9083439Y-12051666D01*
X9083439Y-12051666D02*
X9073915Y-12032618D01*
X9073915Y-12032618D02*
X9073915Y-11975476D01*
X9073915Y-11975476D02*
X9083439Y-11956428D01*
X9083439Y-11956428D02*
X9092963Y-11946904D01*
X9092963Y-11946904D02*
X9112011Y-11937380D01*
X9112011Y-11937380D02*
X9140582Y-11937380D01*
X9140582Y-11937380D02*
X9159630Y-11946904D01*
X9159630Y-11946904D02*
X9169153Y-11956428D01*
X9169153Y-11956428D02*
X9178677Y-11975476D01*
X9178677Y-11975476D02*
X9178677Y-12032618D01*
X9178677Y-12032618D02*
X9169153Y-12051666D01*
X9169153Y-12051666D02*
X9159630Y-12061190D01*
X9159630Y-12061190D02*
X9140582Y-12070714D01*
X9140582Y-12070714D02*
X9112011Y-12070714D01*
X9292963Y-12070714D02*
X9273915Y-12061190D01*
X9273915Y-12061190D02*
X9264392Y-12042142D01*
X9264392Y-12042142D02*
X9264392Y-11870714D01*
X9445344Y-12061190D02*
X9426296Y-12070714D01*
X9426296Y-12070714D02*
X9388201Y-12070714D01*
X9388201Y-12070714D02*
X9369153Y-12061190D01*
X9369153Y-12061190D02*
X9359630Y-12042142D01*
X9359630Y-12042142D02*
X9359630Y-11965952D01*
X9359630Y-11965952D02*
X9369153Y-11946904D01*
X9369153Y-11946904D02*
X9388201Y-11937380D01*
X9388201Y-11937380D02*
X9426296Y-11937380D01*
X9426296Y-11937380D02*
X9445344Y-11946904D01*
X9445344Y-11946904D02*
X9454868Y-11965952D01*
X9454868Y-11965952D02*
X9454868Y-11984999D01*
X9454868Y-11984999D02*
X9359630Y-12004047D01*
X9531058Y-12061190D02*
X9550106Y-12070714D01*
X9550106Y-12070714D02*
X9588201Y-12070714D01*
X9588201Y-12070714D02*
X9607249Y-12061190D01*
X9607249Y-12061190D02*
X9616773Y-12042142D01*
X9616773Y-12042142D02*
X9616773Y-12032618D01*
X9616773Y-12032618D02*
X9607249Y-12013571D01*
X9607249Y-12013571D02*
X9588201Y-12004047D01*
X9588201Y-12004047D02*
X9559630Y-12004047D01*
X9559630Y-12004047D02*
X9540582Y-11994523D01*
X9540582Y-11994523D02*
X9531058Y-11975476D01*
X9531058Y-11975476D02*
X9531058Y-11965952D01*
X9531058Y-11965952D02*
X9540582Y-11946904D01*
X9540582Y-11946904D02*
X9559630Y-11937380D01*
X9559630Y-11937380D02*
X9588201Y-11937380D01*
X9588201Y-11937380D02*
X9607249Y-11946904D01*
X9683439Y-12146904D02*
X9692963Y-12137380D01*
X9692963Y-12137380D02*
X9712011Y-12108809D01*
X9712011Y-12108809D02*
X9721534Y-12089761D01*
X9721534Y-12089761D02*
X9731058Y-12061190D01*
X9731058Y-12061190D02*
X9740582Y-12013571D01*
X9740582Y-12013571D02*
X9740582Y-11975476D01*
X9740582Y-11975476D02*
X9731058Y-11927857D01*
X9731058Y-11927857D02*
X9721534Y-11899285D01*
X9721534Y-11899285D02*
X9712011Y-11880238D01*
X9712011Y-11880238D02*
X9692963Y-11851666D01*
X9692963Y-11851666D02*
X9683439Y-11842142D01*
M02*
